<svg xmlns="http://www.w3.org/2000/svg" xmlns:xlink="http://www.w3.org/1999/xlink" width="500" zoomAndPan="magnify" viewBox="0 0 375 374.999991" height="500" preserveAspectRatio="xMidYMid meet" version="1.0"><defs><g/><clipPath id="4417ce5957"><path d="M 28 37.5 L 347 37.5 L 347 337.5 L 28 337.5 Z M 28 37.5 " clip-rule="nonzero"/></clipPath></defs><rect x="-37.5" width="450" fill="#ffffff" y="-37.499999" height="449.999989" fill-opacity="1"/><rect x="-37.5" width="450" fill="#ffffff" y="-37.499999" height="449.999989" fill-opacity="1"/><g clip-path="url(#4417ce5957)"><path fill="#000000" d="M 170.679688 213.519531 L 211.171875 213.519531 C 215.1875 213.519531 218.53125 210.171875 218.53125 206.15625 C 218.53125 202.140625 215.1875 198.792969 211.171875 198.792969 L 137.886719 198.792969 C 133.871094 198.792969 130.523438 195.449219 130.523438 191.433594 C 130.523438 187.417969 133.871094 184.070312 137.886719 184.070312 L 162.816406 184.070312 C 166.832031 184.070312 170.179688 180.722656 170.179688 176.707031 C 170.179688 172.691406 166.832031 169.347656 162.816406 169.347656 L 113.457031 169.347656 C 109.441406 169.347656 106.09375 166 106.09375 161.984375 C 106.09375 157.96875 109.441406 154.621094 113.457031 154.621094 L 143.40625 154.621094 C 147.421875 154.621094 150.769531 151.277344 150.769531 147.261719 C 150.769531 143.246094 147.421875 139.898438 143.40625 139.898438 L 87.1875 139.898438 C 83.171875 139.898438 79.828125 136.550781 79.828125 132.535156 C 79.828125 128.519531 83.171875 125.175781 87.1875 125.175781 L 115.128906 125.175781 C 118.980469 124.839844 121.992188 121.828125 121.992188 117.980469 C 121.992188 114.464844 119.3125 111.453125 115.96875 110.785156 L 100.910156 110.785156 C 96.894531 110.785156 93.546875 107.4375 93.546875 103.421875 C 93.546875 99.40625 96.894531 96.0625 100.910156 96.0625 L 122.996094 96.0625 C 123.664062 96.0625 124.164062 96.0625 124.667969 96.226562 L 130.1875 96.226562 C 134.203125 96.226562 137.550781 92.882812 137.550781 88.867188 C 137.550781 84.851562 134.203125 81.503906 130.1875 81.503906 L 103.921875 81.503906 C 103.585938 81.503906 103.082031 81.671875 102.75 81.671875 L 61.921875 81.671875 C 57.90625 81.671875 54.5625 78.324219 54.5625 74.308594 C 54.5625 70.292969 57.90625 66.949219 61.921875 66.949219 L 88.359375 66.949219 C 92.375 66.949219 95.722656 63.601562 95.722656 59.585938 C 95.722656 56.070312 93.042969 53.058594 89.699219 52.390625 L 71.796875 52.390625 C 67.78125 52.390625 64.433594 49.042969 64.433594 45.027344 C 64.433594 41.011719 67.78125 37.667969 71.796875 37.667969 L 129.855469 37.667969 C 134.539062 37.667969 138.722656 40.007812 141.066406 44.023438 L 197.785156 139.394531 C 200.128906 143.410156 204.3125 145.753906 208.996094 145.753906 C 213.679688 145.753906 217.695312 143.578125 220.207031 139.394531 L 278.097656 43.859375 C 280.605469 39.84375 284.621094 37.5 289.308594 37.5 L 333.144531 37.5 C 337.996094 37.5 342.179688 40.007812 344.523438 44.191406 C 346.863281 48.542969 346.699219 53.394531 344.019531 57.410156 L 243.628906 214.6875 C 242.292969 216.863281 241.621094 219.039062 241.621094 221.714844 L 241.621094 324.449219 C 241.621094 331.644531 235.765625 337.5 228.570312 337.5 L 169.675781 337.5 C 169.507812 336.996094 169.507812 336.328125 169.507812 335.660156 C 169.507812 331.8125 172.351562 328.800781 176.035156 328.464844 L 182.558594 328.464844 C 186.574219 328.464844 189.921875 325.117188 189.921875 321.101562 C 189.921875 317.085938 186.574219 313.742188 182.558594 313.742188 L 132.53125 313.742188 C 128.515625 313.742188 125.167969 310.394531 125.167969 306.378906 C 125.167969 302.363281 128.515625 299.015625 132.53125 299.015625 L 175.363281 299.015625 C 179.214844 298.851562 182.558594 295.671875 182.558594 291.65625 C 182.558594 287.640625 179.378906 284.460938 175.363281 284.292969 L 174.195312 284.292969 C 170.179688 284.292969 166.832031 280.945312 166.832031 276.929688 C 166.832031 272.914062 170.179688 269.570312 174.195312 269.570312 L 195.777344 269.570312 C 199.792969 269.570312 203.140625 266.222656 203.140625 262.207031 C 203.140625 258.191406 199.792969 254.84375 195.777344 254.84375 L 165.324219 254.84375 C 161.308594 254.84375 157.964844 251.5 157.964844 247.484375 C 157.964844 243.46875 161.308594 240.121094 165.324219 240.121094 L 184.902344 240.121094 C 188.917969 240.121094 192.265625 236.773438 192.265625 232.757812 C 192.265625 228.742188 188.917969 225.398438 184.902344 225.398438 L 154.617188 225.398438 C 150.601562 225.398438 147.253906 222.050781 147.253906 218.035156 C 147.253906 214.019531 150.601562 210.671875 154.617188 210.671875 L 170.679688 210.671875 Z M 71.796875 155.292969 L 92.542969 155.292969 C 96.558594 155.292969 99.90625 158.636719 99.90625 162.652344 C 99.90625 166.667969 96.558594 170.015625 92.542969 170.015625 L 71.796875 170.015625 C 67.78125 170.015625 64.433594 166.667969 64.433594 162.652344 C 64.601562 158.46875 67.78125 155.292969 71.796875 155.292969 Z M 35.488281 68.285156 L 44.855469 68.285156 C 48.871094 68.285156 52.21875 71.632812 52.21875 75.648438 C 52.21875 79.664062 48.871094 83.011719 44.855469 83.011719 L 35.488281 83.011719 C 31.472656 83.011719 28.125 79.664062 28.125 75.648438 C 28.125 71.464844 31.472656 68.285156 35.488281 68.285156 Z M 120.316406 213.519531 L 129.6875 213.519531 C 133.703125 213.519531 137.050781 216.863281 137.050781 220.878906 C 137.050781 224.894531 133.703125 228.242188 129.6875 228.242188 L 120.316406 228.242188 C 116.300781 228.242188 112.957031 224.894531 112.957031 220.878906 C 113.121094 216.863281 116.300781 213.519531 120.316406 213.519531 Z M 115.464844 242.632812 L 144.242188 242.632812 C 148.257812 242.632812 151.605469 245.976562 151.605469 249.992188 C 151.605469 254.007812 148.257812 257.355469 144.242188 257.355469 L 115.464844 257.355469 C 111.449219 257.355469 108.101562 254.007812 108.101562 249.992188 C 108.269531 245.976562 111.449219 242.632812 115.464844 242.632812 Z M 101.074219 184.40625 L 112.957031 184.40625 C 116.972656 184.40625 120.316406 187.75 120.316406 191.765625 C 120.316406 195.78125 116.972656 199.128906 112.957031 199.128906 L 101.074219 199.128906 C 97.058594 199.128906 93.714844 195.78125 93.714844 191.765625 C 93.714844 187.75 97.058594 184.40625 101.074219 184.40625 Z M 143.910156 271.910156 L 153.277344 271.910156 C 157.292969 271.910156 160.640625 275.257812 160.640625 279.273438 C 160.640625 283.289062 157.292969 286.636719 153.277344 286.636719 L 143.910156 286.636719 C 139.894531 286.636719 136.546875 283.289062 136.546875 279.273438 C 136.546875 275.089844 139.894531 271.910156 143.910156 271.910156 Z M 55.898438 213.519531 L 95.050781 213.519531 C 99.066406 213.519531 102.414062 216.863281 102.414062 220.878906 C 102.414062 224.894531 99.066406 228.242188 95.050781 228.242188 L 55.898438 228.242188 C 51.882812 228.242188 48.539062 224.894531 48.539062 220.878906 C 48.707031 216.863281 51.882812 213.519531 55.898438 213.519531 Z M 55.898438 213.519531 " fill-opacity="1" fill-rule="evenodd"/></g><g fill="#000000" fill-opacity="1"><g transform="translate(33.21792, 352.399986)"><g><path d="M 2.546875 0 L 2.546875 -0.15625 L 2.90625 -0.15625 C 3.78125 -0.15625 4.21875 -0.539062 4.21875 -1.3125 L 4.21875 -5.015625 L 1.375 -10.421875 C 1.207031 -10.734375 1.039062 -10.953125 0.875 -11.078125 C 0.71875 -11.203125 0.503906 -11.265625 0.234375 -11.265625 L -0.078125 -11.265625 L -0.078125 -11.421875 L 4.3125 -11.421875 L 4.3125 -11.265625 L 3.78125 -11.265625 C 3.289062 -11.265625 3.046875 -11.117188 3.046875 -10.828125 C 3.046875 -10.640625 3.148438 -10.332031 3.359375 -9.90625 L 4.734375 -7.25 C 4.960938 -6.820312 5.160156 -6.425781 5.328125 -6.0625 C 5.503906 -5.695312 5.648438 -5.394531 5.765625 -5.15625 C 5.890625 -5.394531 6.046875 -5.703125 6.234375 -6.078125 C 6.421875 -6.453125 6.617188 -6.84375 6.828125 -7.25 L 8.046875 -9.59375 C 8.304688 -10.070312 8.4375 -10.441406 8.4375 -10.703125 C 8.4375 -10.910156 8.347656 -11.054688 8.171875 -11.140625 C 8.003906 -11.222656 7.738281 -11.265625 7.375 -11.265625 L 6.734375 -11.265625 L 6.734375 -11.421875 L 10.15625 -11.421875 L 10.15625 -11.265625 L 9.765625 -11.265625 C 9.503906 -11.265625 9.28125 -11.171875 9.09375 -10.984375 C 8.90625 -10.804688 8.691406 -10.484375 8.453125 -10.015625 L 5.84375 -4.96875 L 5.84375 -1.3125 C 5.84375 -0.539062 6.28125 -0.15625 7.15625 -0.15625 L 7.515625 -0.15625 L 7.515625 0 Z M 2.546875 0 "/></g></g></g><g fill="#000000" fill-opacity="1"><g transform="translate(43.215524, 352.399986)"><g><path d="M 4.671875 0.15625 C 3.472656 0.15625 2.539062 -0.222656 1.875 -0.984375 C 1.207031 -1.753906 0.875 -2.832031 0.875 -4.21875 C 0.875 -5.71875 1.179688 -6.84375 1.796875 -7.59375 C 2.410156 -8.351562 3.289062 -8.734375 4.4375 -8.734375 C 5.46875 -8.734375 6.28125 -8.410156 6.875 -7.765625 C 7.46875 -7.128906 7.765625 -6.175781 7.765625 -4.90625 L 7.765625 -4.53125 L 2.4375 -4.53125 C 2.445312 -2.894531 2.625 -1.726562 2.96875 -1.03125 C 3.3125 -0.34375 3.894531 0 4.71875 0 C 5.3125 0 5.8125 -0.160156 6.21875 -0.484375 C 6.632812 -0.816406 6.90625 -1.3125 7.03125 -1.96875 C 7.15625 -1.945312 7.25 -1.878906 7.3125 -1.765625 C 7.375 -1.660156 7.40625 -1.550781 7.40625 -1.4375 C 7.40625 -1.226562 7.300781 -1 7.09375 -0.75 C 6.894531 -0.5 6.59375 -0.285156 6.1875 -0.109375 C 5.789062 0.0664062 5.285156 0.15625 4.671875 0.15625 Z M 2.4375 -4.6875 L 6.140625 -4.6875 C 6.140625 -6.082031 6.003906 -7.078125 5.734375 -7.671875 C 5.472656 -8.273438 5.03125 -8.578125 4.40625 -8.578125 C 3.75 -8.578125 3.269531 -8.273438 2.96875 -7.671875 C 2.664062 -7.078125 2.488281 -6.082031 2.4375 -4.6875 Z M 2.4375 -4.6875 "/></g></g></g><g fill="#000000" fill-opacity="1"><g transform="translate(51.773472, 352.399986)"><g><path d="M 3.828125 0 L 1.078125 -7.5625 C 0.953125 -7.882812 0.816406 -8.109375 0.671875 -8.234375 C 0.535156 -8.359375 0.332031 -8.421875 0.0625 -8.421875 L 0.0625 -8.578125 L 4.0625 -8.578125 L 4.0625 -8.421875 L 3.6875 -8.421875 C 3.34375 -8.421875 3.085938 -8.375 2.921875 -8.28125 C 2.753906 -8.1875 2.671875 -8.03125 2.671875 -7.8125 C 2.671875 -7.632812 2.726562 -7.382812 2.84375 -7.0625 L 4.109375 -3.515625 C 4.242188 -3.128906 4.363281 -2.789062 4.46875 -2.5 C 4.570312 -2.207031 4.671875 -1.914062 4.765625 -1.625 C 4.867188 -1.332031 4.988281 -0.984375 5.125 -0.578125 C 5.21875 -0.878906 5.300781 -1.148438 5.375 -1.390625 C 5.457031 -1.628906 5.566406 -1.925781 5.703125 -2.28125 L 7.3125 -6.953125 C 7.363281 -7.128906 7.40625 -7.28125 7.4375 -7.40625 C 7.46875 -7.53125 7.484375 -7.648438 7.484375 -7.765625 C 7.484375 -8.003906 7.390625 -8.171875 7.203125 -8.265625 C 7.015625 -8.367188 6.71875 -8.421875 6.3125 -8.421875 L 5.796875 -8.421875 L 5.796875 -8.578125 L 9.21875 -8.578125 L 9.21875 -8.421875 L 8.765625 -8.421875 C 8.460938 -8.421875 8.222656 -8.328125 8.046875 -8.140625 C 7.878906 -7.960938 7.710938 -7.640625 7.546875 -7.171875 L 5.09375 0 Z M 3.828125 0 "/></g></g></g><g fill="#000000" fill-opacity="1"><g transform="translate(61.035244, 352.399986)"><g><path d="M 0.28125 0 L 0.28125 -0.15625 L 0.421875 -0.15625 C 0.910156 -0.15625 1.25 -0.257812 1.4375 -0.46875 C 1.632812 -0.6875 1.734375 -1.070312 1.734375 -1.625 L 1.734375 -10.5625 C 1.734375 -11.101562 1.640625 -11.476562 1.453125 -11.6875 C 1.273438 -11.894531 0.941406 -12 0.453125 -12 L 0.375 -12 L 0.375 -12.15625 L 3.234375 -12.15625 L 3.234375 -8.921875 C 3.234375 -8.617188 3.234375 -8.3125 3.234375 -8 C 3.234375 -7.6875 3.226562 -7.378906 3.21875 -7.078125 L 3.25 -7.078125 C 3.382812 -7.566406 3.585938 -7.929688 3.859375 -8.171875 C 4.128906 -8.410156 4.421875 -8.5625 4.734375 -8.625 C 5.054688 -8.695312 5.347656 -8.734375 5.609375 -8.734375 C 6.566406 -8.734375 7.273438 -8.484375 7.734375 -7.984375 C 8.203125 -7.492188 8.4375 -6.695312 8.4375 -5.59375 L 8.4375 -1.625 C 8.4375 -1.070312 8.519531 -0.6875 8.6875 -0.46875 C 8.851562 -0.257812 9.164062 -0.15625 9.625 -0.15625 L 9.71875 -0.15625 L 9.71875 0 L 6.921875 0 L 6.921875 -6.140625 C 6.921875 -6.835938 6.789062 -7.40625 6.53125 -7.84375 C 6.269531 -8.28125 5.832031 -8.5 5.21875 -8.5 C 4.71875 -8.5 4.320312 -8.363281 4.03125 -8.09375 C 3.738281 -7.832031 3.53125 -7.488281 3.40625 -7.0625 C 3.289062 -6.644531 3.234375 -6.207031 3.234375 -5.75 L 3.234375 -1.625 C 3.234375 -1.070312 3.320312 -0.6875 3.5 -0.46875 C 3.6875 -0.257812 4.023438 -0.15625 4.515625 -0.15625 L 4.59375 -0.15625 L 4.59375 0 Z M 0.28125 0 "/></g></g></g><g fill="#000000" fill-opacity="1"><g transform="translate(71.192802, 352.399986)"><g><path d="M 4.671875 0.15625 C 3.472656 0.15625 2.539062 -0.222656 1.875 -0.984375 C 1.207031 -1.753906 0.875 -2.832031 0.875 -4.21875 C 0.875 -5.71875 1.179688 -6.84375 1.796875 -7.59375 C 2.410156 -8.351562 3.289062 -8.734375 4.4375 -8.734375 C 5.46875 -8.734375 6.28125 -8.410156 6.875 -7.765625 C 7.46875 -7.128906 7.765625 -6.175781 7.765625 -4.90625 L 7.765625 -4.53125 L 2.4375 -4.53125 C 2.445312 -2.894531 2.625 -1.726562 2.96875 -1.03125 C 3.3125 -0.34375 3.894531 0 4.71875 0 C 5.3125 0 5.8125 -0.160156 6.21875 -0.484375 C 6.632812 -0.816406 6.90625 -1.3125 7.03125 -1.96875 C 7.15625 -1.945312 7.25 -1.878906 7.3125 -1.765625 C 7.375 -1.660156 7.40625 -1.550781 7.40625 -1.4375 C 7.40625 -1.226562 7.300781 -1 7.09375 -0.75 C 6.894531 -0.5 6.59375 -0.285156 6.1875 -0.109375 C 5.789062 0.0664062 5.285156 0.15625 4.671875 0.15625 Z M 2.4375 -4.6875 L 6.140625 -4.6875 C 6.140625 -6.082031 6.003906 -7.078125 5.734375 -7.671875 C 5.472656 -8.273438 5.03125 -8.578125 4.40625 -8.578125 C 3.75 -8.578125 3.269531 -8.273438 2.96875 -7.671875 C 2.664062 -7.078125 2.488281 -6.082031 2.4375 -4.6875 Z M 2.4375 -4.6875 "/></g></g></g><g fill="#000000" fill-opacity="1"><g transform="translate(79.75075, 352.399986)"><g><path d="M 0.453125 0 L 0.453125 -0.15625 L 0.578125 -0.15625 C 1.066406 -0.15625 1.40625 -0.257812 1.59375 -0.46875 C 1.789062 -0.6875 1.890625 -1.070312 1.890625 -1.625 L 1.890625 -6.96875 C 1.890625 -7.519531 1.796875 -7.898438 1.609375 -8.109375 C 1.429688 -8.316406 1.097656 -8.421875 0.609375 -8.421875 L 0.53125 -8.421875 L 0.53125 -8.578125 L 3.375 -8.578125 L 3.375 -7.078125 L 3.40625 -7.078125 C 3.539062 -7.566406 3.742188 -7.929688 4.015625 -8.171875 C 4.296875 -8.410156 4.59375 -8.5625 4.90625 -8.625 C 5.21875 -8.695312 5.507812 -8.734375 5.78125 -8.734375 C 6.726562 -8.734375 7.429688 -8.484375 7.890625 -7.984375 C 8.359375 -7.492188 8.59375 -6.695312 8.59375 -5.59375 L 8.59375 -1.625 C 8.59375 -1.070312 8.675781 -0.6875 8.84375 -0.46875 C 9.019531 -0.257812 9.335938 -0.15625 9.796875 -0.15625 L 9.875 -0.15625 L 9.875 0 L 7.09375 0 L 7.09375 -6.140625 C 7.09375 -6.835938 6.957031 -7.40625 6.6875 -7.84375 C 6.425781 -8.28125 5.988281 -8.5 5.375 -8.5 C 4.875 -8.5 4.476562 -8.363281 4.1875 -8.09375 C 3.90625 -7.832031 3.703125 -7.488281 3.578125 -7.0625 C 3.453125 -6.644531 3.390625 -6.207031 3.390625 -5.75 L 3.390625 -1.625 C 3.390625 -1.070312 3.476562 -0.6875 3.65625 -0.46875 C 3.84375 -0.257812 4.179688 -0.15625 4.671875 -0.15625 L 4.75 -0.15625 L 4.75 0 Z M 0.453125 0 "/></g></g></g><g fill="#000000" fill-opacity="1"><g transform="translate(90.068273, 352.399986)"><g><path d="M 2.5625 -10.109375 C 2.351562 -10.109375 2.179688 -10.175781 2.046875 -10.3125 C 1.921875 -10.445312 1.859375 -10.679688 1.859375 -11.015625 C 1.859375 -11.347656 1.921875 -11.578125 2.046875 -11.703125 C 2.179688 -11.835938 2.351562 -11.90625 2.5625 -11.90625 C 2.75 -11.90625 2.910156 -11.835938 3.046875 -11.703125 C 3.191406 -11.578125 3.265625 -11.347656 3.265625 -11.015625 C 3.265625 -10.679688 3.191406 -10.445312 3.046875 -10.3125 C 2.910156 -10.175781 2.75 -10.109375 2.5625 -10.109375 Z M 0.375 0 L 0.375 -0.15625 L 0.578125 -0.15625 C 1.046875 -0.15625 1.378906 -0.25 1.578125 -0.4375 C 1.785156 -0.632812 1.890625 -0.953125 1.890625 -1.390625 L 1.890625 -7.171875 C 1.890625 -7.617188 1.785156 -7.9375 1.578125 -8.125 C 1.378906 -8.320312 1.046875 -8.421875 0.578125 -8.421875 L 0.53125 -8.421875 L 0.53125 -8.578125 L 3.390625 -8.578125 L 3.390625 -1.46875 C 3.390625 -1 3.488281 -0.660156 3.6875 -0.453125 C 3.894531 -0.253906 4.234375 -0.15625 4.703125 -0.15625 L 4.90625 -0.15625 L 4.90625 0 Z M 0.375 0 "/></g></g></g><g fill="#000000" fill-opacity="1"><g transform="translate(95.187044, 352.399986)"><g><path d="M 2.5625 -10.109375 C 2.351562 -10.109375 2.179688 -10.175781 2.046875 -10.3125 C 1.921875 -10.445312 1.859375 -10.679688 1.859375 -11.015625 C 1.859375 -11.347656 1.921875 -11.578125 2.046875 -11.703125 C 2.179688 -11.835938 2.351562 -11.90625 2.5625 -11.90625 C 2.75 -11.90625 2.910156 -11.835938 3.046875 -11.703125 C 3.191406 -11.578125 3.265625 -11.347656 3.265625 -11.015625 C 3.265625 -10.679688 3.191406 -10.445312 3.046875 -10.3125 C 2.910156 -10.175781 2.75 -10.109375 2.5625 -10.109375 Z M 0.375 0 L 0.375 -0.15625 L 0.578125 -0.15625 C 1.046875 -0.15625 1.378906 -0.25 1.578125 -0.4375 C 1.785156 -0.632812 1.890625 -0.953125 1.890625 -1.390625 L 1.890625 -7.171875 C 1.890625 -7.617188 1.785156 -7.9375 1.578125 -8.125 C 1.378906 -8.320312 1.046875 -8.421875 0.578125 -8.421875 L 0.53125 -8.421875 L 0.53125 -8.578125 L 3.390625 -8.578125 L 3.390625 -1.46875 C 3.390625 -1 3.488281 -0.660156 3.6875 -0.453125 C 3.894531 -0.253906 4.234375 -0.15625 4.703125 -0.15625 L 4.90625 -0.15625 L 4.90625 0 Z M 0.375 0 "/></g></g></g><g fill="#000000" fill-opacity="1"><g transform="translate(100.305814, 352.399986)"><g><path d="M 3.4375 0.15625 C 2.613281 0.15625 1.96875 -0.0507812 1.5 -0.46875 C 1.03125 -0.894531 0.796875 -1.472656 0.796875 -2.203125 C 0.796875 -3.023438 1.097656 -3.640625 1.703125 -4.046875 C 2.304688 -4.453125 3.222656 -4.675781 4.453125 -4.71875 L 5.78125 -4.765625 L 5.78125 -5.96875 C 5.78125 -6.5625 5.742188 -7.050781 5.671875 -7.4375 C 5.609375 -7.820312 5.46875 -8.109375 5.25 -8.296875 C 5.039062 -8.484375 4.71875 -8.578125 4.28125 -8.578125 C 3.664062 -8.578125 3.269531 -8.382812 3.09375 -8 C 2.914062 -7.613281 2.828125 -7.007812 2.828125 -6.1875 C 2.378906 -6.1875 2.039062 -6.257812 1.8125 -6.40625 C 1.582031 -6.5625 1.46875 -6.8125 1.46875 -7.15625 C 1.46875 -7.539062 1.597656 -7.847656 1.859375 -8.078125 C 2.117188 -8.304688 2.460938 -8.472656 2.890625 -8.578125 C 3.328125 -8.679688 3.816406 -8.734375 4.359375 -8.734375 C 5.335938 -8.734375 6.066406 -8.523438 6.546875 -8.109375 C 7.035156 -7.691406 7.28125 -6.976562 7.28125 -5.96875 L 7.28125 -1.1875 C 7.28125 -0.800781 7.351562 -0.53125 7.5 -0.375 C 7.65625 -0.226562 7.910156 -0.15625 8.265625 -0.15625 L 8.3125 -0.15625 L 8.3125 0 L 5.90625 0 L 5.90625 -1.6875 L 5.875 -1.6875 C 5.695312 -1.039062 5.390625 -0.570312 4.953125 -0.28125 C 4.523438 0.0078125 4.019531 0.15625 3.4375 0.15625 Z M 3.765625 -0.0625 C 4.160156 -0.0625 4.507812 -0.160156 4.8125 -0.359375 C 5.113281 -0.566406 5.347656 -0.84375 5.515625 -1.1875 C 5.691406 -1.53125 5.78125 -1.894531 5.78125 -2.28125 L 5.78125 -4.59375 L 4.75 -4.546875 C 3.84375 -4.503906 3.21875 -4.296875 2.875 -3.921875 C 2.53125 -3.546875 2.359375 -2.914062 2.359375 -2.03125 C 2.359375 -0.71875 2.828125 -0.0625 3.765625 -0.0625 Z M 3.765625 -0.0625 "/></g></g></g></svg>