<svg xmlns="http://www.w3.org/2000/svg" xmlns:xlink="http://www.w3.org/1999/xlink" width="500" zoomAndPan="magnify" viewBox="0 0 375 374.999991" height="500" preserveAspectRatio="xMidYMid meet" version="1.0"><defs><g/><clipPath id="381e9044ca"><path d="M 122 99.554688 L 252.984375 99.554688 L 252.984375 222.554688 L 122 222.554688 Z M 122 99.554688 " clip-rule="nonzero"/></clipPath></defs><g fill="#2b2b2b" fill-opacity="1"><g transform="translate(99.666663, 252.786473)"><g><path d="M 0.515625 -19.28125 C 0.660156 -19.28125 1.039062 -19.25 1.65625 -19.1875 C 2.28125 -19.132812 2.960938 -19.109375 3.703125 -19.109375 C 4.453125 -19.109375 5.128906 -19.132812 5.734375 -19.1875 C 6.335938 -19.25 6.738281 -19.28125 6.9375 -19.28125 C 7.238281 -19.28125 7.460938 -19.203125 7.609375 -19.046875 C 7.753906 -18.890625 7.828125 -18.691406 7.828125 -18.453125 C 7.828125 -18.222656 7.753906 -17.992188 7.609375 -17.765625 C 7.503906 -17.578125 7.429688 -17.414062 7.390625 -17.28125 C 7.347656 -17.15625 7.328125 -16.976562 7.328125 -16.75 C 7.328125 -16.226562 7.410156 -15.519531 7.578125 -14.625 C 7.753906 -13.738281 7.96875 -12.957031 8.21875 -12.28125 C 8.46875 -11.601562 8.695312 -11.265625 8.90625 -11.265625 C 9.144531 -11.265625 9.390625 -11.625 9.640625 -12.34375 C 9.890625 -13.070312 10.09375 -13.898438 10.25 -14.828125 C 10.414062 -15.753906 10.5 -16.410156 10.5 -16.796875 C 10.5 -16.960938 10.472656 -17.113281 10.421875 -17.25 C 10.378906 -17.394531 10.320312 -17.523438 10.25 -17.640625 C 10.101562 -17.898438 10.03125 -18.132812 10.03125 -18.34375 C 10.03125 -18.625 10.109375 -18.847656 10.265625 -19.015625 C 10.421875 -19.191406 10.601562 -19.28125 10.8125 -19.28125 C 12.039062 -19.164062 13.097656 -19.109375 13.984375 -19.109375 C 14.535156 -19.109375 15.269531 -19.164062 16.1875 -19.28125 C 16.382812 -19.28125 16.550781 -19.195312 16.6875 -19.03125 C 16.832031 -18.875 16.90625 -18.671875 16.90625 -18.421875 C 16.90625 -18.210938 16.765625 -17.898438 16.484375 -17.484375 C 16.421875 -17.367188 16.347656 -17.019531 16.265625 -16.4375 C 16.015625 -14.851562 15.640625 -13.300781 15.140625 -11.78125 C 14.648438 -10.269531 13.804688 -8.8125 12.609375 -7.40625 C 12.460938 -7.238281 12.257812 -7.007812 12 -6.71875 C 11.738281 -6.4375 11.566406 -6.226562 11.484375 -6.09375 C 11.398438 -5.96875 11.359375 -5.800781 11.359375 -5.59375 L 11.359375 -2.875 C 11.359375 -2.476562 11.394531 -2.175781 11.46875 -1.96875 C 11.539062 -1.769531 11.632812 -1.578125 11.75 -1.390625 C 11.894531 -1.171875 11.96875 -0.945312 11.96875 -0.71875 C 11.96875 -0.445312 11.890625 -0.226562 11.734375 -0.0625 C 11.578125 0.09375 11.378906 0.171875 11.140625 0.171875 C 11.003906 0.171875 10.632812 0.140625 10.03125 0.078125 C 9.425781 0.0234375 8.804688 0 8.171875 0 C 7.429688 0 6.773438 0.0234375 6.203125 0.078125 C 5.628906 0.140625 5.300781 0.171875 5.21875 0.171875 C 4.957031 0.171875 4.75 0.09375 4.59375 -0.0625 C 4.4375 -0.226562 4.359375 -0.445312 4.359375 -0.71875 C 4.359375 -0.945312 4.4375 -1.171875 4.59375 -1.390625 C 4.707031 -1.585938 4.796875 -1.78125 4.859375 -1.96875 C 4.921875 -2.15625 4.953125 -2.429688 4.953125 -2.796875 L 4.953125 -5.515625 C 4.953125 -5.765625 4.894531 -5.96875 4.78125 -6.125 C 4.664062 -6.289062 4.378906 -6.628906 3.921875 -7.140625 C 2.765625 -8.398438 1.914062 -9.863281 1.375 -11.53125 C 0.832031 -13.195312 0.445312 -14.960938 0.21875 -16.828125 C 0.1875 -17.054688 0.0820312 -17.351562 -0.09375 -17.71875 C -0.257812 -18.007812 -0.34375 -18.253906 -0.34375 -18.453125 C -0.34375 -18.660156 -0.269531 -18.847656 -0.125 -19.015625 C 0.0195312 -19.191406 0.234375 -19.28125 0.515625 -19.28125 Z M 0.515625 -19.28125 "/></g></g></g><g fill="#2b2b2b" fill-opacity="1"><g transform="translate(120.908581, 252.786473)"><g><path d="M 1.640625 -19.28125 C 1.753906 -19.28125 2.007812 -19.265625 2.40625 -19.234375 C 3.550781 -19.148438 5.242188 -19.109375 7.484375 -19.109375 C 9.378906 -19.109375 11.160156 -19.15625 12.828125 -19.25 C 13.003906 -19.269531 13.191406 -19.28125 13.390625 -19.28125 C 13.703125 -19.28125 13.929688 -19.1875 14.078125 -19 C 14.222656 -18.820312 14.332031 -18.457031 14.40625 -17.90625 C 14.5 -16.820312 14.644531 -15.976562 14.84375 -15.375 C 14.90625 -15.082031 14.9375 -14.890625 14.9375 -14.796875 C 14.9375 -14.597656 14.847656 -14.429688 14.671875 -14.296875 C 14.503906 -14.171875 14.316406 -14.109375 14.109375 -14.109375 C 14.003906 -14.109375 13.882812 -14.128906 13.75 -14.171875 C 13.613281 -14.210938 13.503906 -14.238281 13.421875 -14.25 C 12.390625 -14.582031 11.195312 -14.75 9.84375 -14.75 L 8.21875 -14.75 C 7.90625 -14.75 7.695312 -14.6875 7.59375 -14.5625 C 7.488281 -14.4375 7.4375 -14.234375 7.4375 -13.953125 L 7.4375 -12.65625 C 7.4375 -12.363281 7.507812 -12.175781 7.65625 -12.09375 C 7.800781 -12.007812 8.070312 -11.96875 8.46875 -11.96875 L 10.40625 -11.96875 C 11.039062 -11.96875 11.609375 -12.046875 12.109375 -12.203125 C 12.609375 -12.359375 12.914062 -12.4375 13.03125 -12.4375 C 13.289062 -12.4375 13.488281 -12.351562 13.625 -12.1875 C 13.757812 -12.03125 13.828125 -11.835938 13.828125 -11.609375 C 13.828125 -11.441406 13.8125 -11.148438 13.78125 -10.734375 C 13.75 -10.328125 13.734375 -10.019531 13.734375 -9.8125 L 13.828125 -8.09375 C 13.828125 -7.914062 13.75 -7.738281 13.59375 -7.5625 C 13.445312 -7.394531 13.25 -7.3125 13 -7.3125 C 12.882812 -7.3125 12.660156 -7.359375 12.328125 -7.453125 C 12.003906 -7.554688 11.707031 -7.632812 11.4375 -7.6875 C 11.175781 -7.75 10.816406 -7.78125 10.359375 -7.78125 L 8.296875 -7.78125 C 7.992188 -7.78125 7.773438 -7.726562 7.640625 -7.625 C 7.503906 -7.53125 7.4375 -7.335938 7.4375 -7.046875 L 7.4375 -5.671875 C 7.4375 -5.367188 7.492188 -5.171875 7.609375 -5.078125 C 7.722656 -4.992188 7.925781 -4.945312 8.21875 -4.9375 C 8.800781 -4.894531 9.398438 -4.875 10.015625 -4.875 C 10.941406 -4.875 11.703125 -4.929688 12.296875 -5.046875 C 12.898438 -5.160156 13.460938 -5.3125 13.984375 -5.5 C 14.222656 -5.59375 14.410156 -5.640625 14.546875 -5.640625 C 14.773438 -5.640625 14.96875 -5.566406 15.125 -5.421875 C 15.289062 -5.273438 15.375 -5.101562 15.375 -4.90625 C 15.375 -4.695312 15.296875 -4.34375 15.140625 -3.84375 C 15.035156 -3.507812 14.921875 -3.003906 14.796875 -2.328125 C 14.679688 -1.660156 14.625 -1.238281 14.625 -1.0625 C 14.601562 -0.644531 14.523438 -0.332031 14.390625 -0.125 C 14.265625 0.0703125 14.019531 0.171875 13.65625 0.171875 L 12.484375 0.125 C 10.242188 0.0390625 8.316406 0 6.703125 0 C 4.835938 0 3.546875 0.0234375 2.828125 0.078125 C 2.117188 0.140625 1.707031 0.171875 1.59375 0.171875 C 1.3125 0.171875 1.09375 0.09375 0.9375 -0.0625 C 0.789062 -0.226562 0.71875 -0.453125 0.71875 -0.734375 C 0.71875 -0.867188 0.734375 -0.984375 0.765625 -1.078125 C 0.804688 -1.179688 0.875 -1.304688 0.96875 -1.453125 C 1.070312 -1.597656 1.15625 -1.765625 1.21875 -1.953125 C 1.289062 -2.148438 1.328125 -2.429688 1.328125 -2.796875 L 1.328125 -16.359375 C 1.328125 -16.703125 1.289062 -16.960938 1.21875 -17.140625 C 1.15625 -17.328125 1.078125 -17.492188 0.984375 -17.640625 C 0.898438 -17.785156 0.832031 -17.914062 0.78125 -18.03125 C 0.738281 -18.144531 0.71875 -18.273438 0.71875 -18.421875 C 0.71875 -18.679688 0.796875 -18.890625 0.953125 -19.046875 C 1.117188 -19.203125 1.347656 -19.28125 1.640625 -19.28125 Z M 1.640625 -19.28125 "/></g></g></g><g fill="#2b2b2b" fill-opacity="1"><g transform="translate(141.242982, 252.786473)"><g><path d="M 0.65625 -19.28125 C 2.375 -19.164062 3.515625 -19.109375 4.078125 -19.109375 C 4.578125 -19.109375 5.523438 -19.164062 6.921875 -19.28125 C 7.148438 -19.28125 7.34375 -19.195312 7.5 -19.03125 C 7.664062 -18.875 7.75 -18.671875 7.75 -18.421875 C 7.75 -18.253906 7.6875 -18.023438 7.5625 -17.734375 C 7.488281 -17.609375 7.421875 -17.457031 7.359375 -17.28125 C 7.304688 -17.113281 7.28125 -16.929688 7.28125 -16.734375 C 7.28125 -16.304688 7.351562 -15.546875 7.5 -14.453125 C 7.65625 -13.367188 7.820312 -12.3125 8 -11.28125 C 8.164062 -10.269531 8.304688 -9.519531 8.421875 -9.03125 C 8.546875 -8.550781 8.644531 -8.257812 8.71875 -8.15625 C 8.789062 -8.050781 8.878906 -8 8.984375 -8 C 9.242188 -8 9.484375 -8.628906 9.703125 -9.890625 C 9.921875 -11.148438 10.101562 -12.539062 10.25 -14.0625 C 10.394531 -15.59375 10.46875 -16.546875 10.46875 -16.921875 C 10.46875 -17.066406 10.4375 -17.210938 10.375 -17.359375 C 10.3125 -17.515625 10.269531 -17.609375 10.25 -17.640625 C 10.09375 -17.929688 10.015625 -18.1875 10.015625 -18.40625 C 10.015625 -18.625 10.078125 -18.820312 10.203125 -19 C 10.335938 -19.1875 10.535156 -19.28125 10.796875 -19.28125 C 12.023438 -19.164062 12.960938 -19.109375 13.609375 -19.109375 C 13.910156 -19.109375 14.3125 -19.132812 14.8125 -19.1875 C 15.320312 -19.25 15.71875 -19.28125 16 -19.28125 C 16.269531 -19.28125 16.472656 -19.195312 16.609375 -19.03125 C 16.753906 -18.875 16.828125 -18.664062 16.828125 -18.40625 C 16.828125 -18.300781 16.796875 -18.191406 16.734375 -18.078125 C 16.679688 -17.960938 16.585938 -17.816406 16.453125 -17.640625 C 16.441406 -17.617188 16.390625 -17.550781 16.296875 -17.4375 C 16.210938 -17.320312 16.113281 -17.003906 16 -16.484375 C 15.894531 -15.960938 15.785156 -15.25 15.671875 -14.34375 C 15.492188 -13.039062 15.144531 -11.304688 14.625 -9.140625 C 14.113281 -6.984375 13.601562 -5.113281 13.09375 -3.53125 C 12.71875 -2.382812 12.398438 -1.539062 12.140625 -1 C 11.878906 -0.46875 11.65625 -0.140625 11.46875 -0.015625 C 11.289062 0.109375 11.082031 0.171875 10.84375 0.171875 C 9.675781 0.0546875 8.84375 0 8.34375 0 C 7.882812 0 7.398438 0.0234375 6.890625 0.078125 C 6.390625 0.140625 5.957031 0.171875 5.59375 0.171875 C 5.21875 0.171875 4.832031 -0.238281 4.4375 -1.0625 C 4.039062 -1.894531 3.609375 -3.078125 3.140625 -4.609375 C 2.515625 -6.578125 1.976562 -8.648438 1.53125 -10.828125 C 1.082031 -13.015625 0.789062 -14.585938 0.65625 -15.546875 C 0.53125 -16.460938 0.3125 -17.1875 0 -17.71875 C -0.0625 -17.832031 -0.113281 -17.945312 -0.15625 -18.0625 C -0.195312 -18.175781 -0.21875 -18.289062 -0.21875 -18.40625 C -0.21875 -18.664062 -0.140625 -18.875 0.015625 -19.03125 C 0.179688 -19.195312 0.394531 -19.28125 0.65625 -19.28125 Z M 0.65625 -19.28125 "/></g></g></g><g fill="#2b2b2b" fill-opacity="1"><g transform="translate(162.533952, 252.786473)"><g><path d="M 1.59375 -19.28125 C 1.882812 -19.28125 2.304688 -19.25 2.859375 -19.1875 C 3.410156 -19.132812 3.90625 -19.109375 4.34375 -19.109375 C 4.71875 -19.109375 5.207031 -19.132812 5.8125 -19.1875 C 6.414062 -19.25 6.863281 -19.28125 7.15625 -19.28125 C 7.4375 -19.28125 7.648438 -19.203125 7.796875 -19.046875 C 7.941406 -18.890625 8.015625 -18.675781 8.015625 -18.40625 C 8.015625 -18.132812 7.941406 -17.894531 7.796875 -17.6875 C 7.679688 -17.519531 7.59375 -17.328125 7.53125 -17.109375 C 7.46875 -16.890625 7.4375 -16.539062 7.4375 -16.0625 L 7.4375 -13.203125 C 7.4375 -12.828125 7.492188 -12.570312 7.609375 -12.4375 C 7.722656 -12.300781 7.96875 -12.234375 8.34375 -12.234375 L 9.671875 -12.234375 C 10.046875 -12.234375 10.285156 -12.304688 10.390625 -12.453125 C 10.492188 -12.609375 10.546875 -12.878906 10.546875 -13.265625 L 10.546875 -16.3125 C 10.546875 -16.6875 10.515625 -16.972656 10.453125 -17.171875 C 10.390625 -17.378906 10.300781 -17.578125 10.1875 -17.765625 C 10.03125 -17.992188 9.953125 -18.222656 9.953125 -18.453125 C 9.953125 -18.679688 10.03125 -18.875 10.1875 -19.03125 C 10.34375 -19.195312 10.550781 -19.28125 10.8125 -19.28125 C 12.144531 -19.164062 13.054688 -19.109375 13.546875 -19.109375 C 13.960938 -19.109375 14.484375 -19.132812 15.109375 -19.1875 C 15.734375 -19.25 16.164062 -19.28125 16.40625 -19.28125 C 16.65625 -19.28125 16.859375 -19.203125 17.015625 -19.046875 C 17.171875 -18.890625 17.25 -18.679688 17.25 -18.421875 C 17.25 -18.179688 17.175781 -17.945312 17.03125 -17.71875 C 16.914062 -17.53125 16.828125 -17.347656 16.765625 -17.171875 C 16.710938 -17.003906 16.6875 -16.773438 16.6875 -16.484375 L 16.6875 -2.796875 C 16.6875 -2.421875 16.71875 -2.128906 16.78125 -1.921875 C 16.84375 -1.722656 16.929688 -1.53125 17.046875 -1.34375 C 17.109375 -1.25 17.160156 -1.148438 17.203125 -1.046875 C 17.242188 -0.953125 17.265625 -0.84375 17.265625 -0.71875 C 17.265625 -0.445312 17.1875 -0.226562 17.03125 -0.0625 C 16.875 0.09375 16.675781 0.171875 16.4375 0.171875 C 15.207031 0.0546875 14.191406 0 13.390625 0 C 12.585938 0 11.976562 0.0234375 11.5625 0.078125 C 11.144531 0.140625 10.878906 0.171875 10.765625 0.171875 C 10.523438 0.171875 10.328125 0.0859375 10.171875 -0.078125 C 10.023438 -0.253906 9.953125 -0.46875 9.953125 -0.71875 C 9.953125 -0.945312 10.046875 -1.191406 10.234375 -1.453125 C 10.410156 -1.742188 10.507812 -2.019531 10.53125 -2.28125 C 10.539062 -2.820312 10.546875 -4.03125 10.546875 -5.90625 C 10.546875 -6.445312 10.492188 -6.800781 10.390625 -6.96875 C 10.296875 -7.132812 10.070312 -7.21875 9.71875 -7.21875 L 8.296875 -7.21875 C 7.929688 -7.21875 7.695312 -7.140625 7.59375 -6.984375 C 7.488281 -6.828125 7.4375 -6.550781 7.4375 -6.15625 L 7.4375 -2.796875 C 7.4375 -2.429688 7.46875 -2.148438 7.53125 -1.953125 C 7.59375 -1.765625 7.679688 -1.578125 7.796875 -1.390625 C 7.941406 -1.171875 8.015625 -0.945312 8.015625 -0.71875 C 8.015625 -0.4375 7.941406 -0.21875 7.796875 -0.0625 C 7.648438 0.09375 7.445312 0.171875 7.1875 0.171875 C 7.101562 0.171875 6.757812 0.140625 6.15625 0.078125 C 5.550781 0.0234375 4.992188 0 4.484375 0 C 3.867188 0 2.894531 0.0546875 1.5625 0.171875 C 1.300781 0.171875 1.097656 0.09375 0.953125 -0.0625 C 0.804688 -0.21875 0.734375 -0.4375 0.734375 -0.71875 C 0.734375 -0.90625 0.804688 -1.128906 0.953125 -1.390625 C 1.066406 -1.585938 1.15625 -1.78125 1.21875 -1.96875 C 1.289062 -2.15625 1.328125 -2.40625 1.328125 -2.71875 L 1.328125 -16.40625 C 1.328125 -16.738281 1.296875 -16.988281 1.234375 -17.15625 C 1.179688 -17.332031 1.097656 -17.5 0.984375 -17.65625 C 0.898438 -17.789062 0.835938 -17.90625 0.796875 -18 C 0.753906 -18.101562 0.734375 -18.242188 0.734375 -18.421875 C 0.734375 -18.703125 0.816406 -18.914062 0.984375 -19.0625 C 1.148438 -19.207031 1.351562 -19.28125 1.59375 -19.28125 Z M 1.59375 -19.28125 "/></g></g></g><g fill="#2b2b2b" fill-opacity="1"><g transform="translate(185.222985, 252.786473)"><g><path d="M 1.640625 -19.28125 C 1.753906 -19.28125 2.007812 -19.265625 2.40625 -19.234375 C 3.550781 -19.148438 5.242188 -19.109375 7.484375 -19.109375 C 9.378906 -19.109375 11.160156 -19.15625 12.828125 -19.25 C 13.003906 -19.269531 13.191406 -19.28125 13.390625 -19.28125 C 13.703125 -19.28125 13.929688 -19.1875 14.078125 -19 C 14.222656 -18.820312 14.332031 -18.457031 14.40625 -17.90625 C 14.5 -16.820312 14.644531 -15.976562 14.84375 -15.375 C 14.90625 -15.082031 14.9375 -14.890625 14.9375 -14.796875 C 14.9375 -14.597656 14.847656 -14.429688 14.671875 -14.296875 C 14.503906 -14.171875 14.316406 -14.109375 14.109375 -14.109375 C 14.003906 -14.109375 13.882812 -14.128906 13.75 -14.171875 C 13.613281 -14.210938 13.503906 -14.238281 13.421875 -14.25 C 12.390625 -14.582031 11.195312 -14.75 9.84375 -14.75 L 8.21875 -14.75 C 7.90625 -14.75 7.695312 -14.6875 7.59375 -14.5625 C 7.488281 -14.4375 7.4375 -14.234375 7.4375 -13.953125 L 7.4375 -12.65625 C 7.4375 -12.363281 7.507812 -12.175781 7.65625 -12.09375 C 7.800781 -12.007812 8.070312 -11.96875 8.46875 -11.96875 L 10.40625 -11.96875 C 11.039062 -11.96875 11.609375 -12.046875 12.109375 -12.203125 C 12.609375 -12.359375 12.914062 -12.4375 13.03125 -12.4375 C 13.289062 -12.4375 13.488281 -12.351562 13.625 -12.1875 C 13.757812 -12.03125 13.828125 -11.835938 13.828125 -11.609375 C 13.828125 -11.441406 13.8125 -11.148438 13.78125 -10.734375 C 13.75 -10.328125 13.734375 -10.019531 13.734375 -9.8125 L 13.828125 -8.09375 C 13.828125 -7.914062 13.75 -7.738281 13.59375 -7.5625 C 13.445312 -7.394531 13.25 -7.3125 13 -7.3125 C 12.882812 -7.3125 12.660156 -7.359375 12.328125 -7.453125 C 12.003906 -7.554688 11.707031 -7.632812 11.4375 -7.6875 C 11.175781 -7.75 10.816406 -7.78125 10.359375 -7.78125 L 8.296875 -7.78125 C 7.992188 -7.78125 7.773438 -7.726562 7.640625 -7.625 C 7.503906 -7.53125 7.4375 -7.335938 7.4375 -7.046875 L 7.4375 -5.671875 C 7.4375 -5.367188 7.492188 -5.171875 7.609375 -5.078125 C 7.722656 -4.992188 7.925781 -4.945312 8.21875 -4.9375 C 8.800781 -4.894531 9.398438 -4.875 10.015625 -4.875 C 10.941406 -4.875 11.703125 -4.929688 12.296875 -5.046875 C 12.898438 -5.160156 13.460938 -5.3125 13.984375 -5.5 C 14.222656 -5.59375 14.410156 -5.640625 14.546875 -5.640625 C 14.773438 -5.640625 14.96875 -5.566406 15.125 -5.421875 C 15.289062 -5.273438 15.375 -5.101562 15.375 -4.90625 C 15.375 -4.695312 15.296875 -4.34375 15.140625 -3.84375 C 15.035156 -3.507812 14.921875 -3.003906 14.796875 -2.328125 C 14.679688 -1.660156 14.625 -1.238281 14.625 -1.0625 C 14.601562 -0.644531 14.523438 -0.332031 14.390625 -0.125 C 14.265625 0.0703125 14.019531 0.171875 13.65625 0.171875 L 12.484375 0.125 C 10.242188 0.0390625 8.316406 0 6.703125 0 C 4.835938 0 3.546875 0.0234375 2.828125 0.078125 C 2.117188 0.140625 1.707031 0.171875 1.59375 0.171875 C 1.3125 0.171875 1.09375 0.09375 0.9375 -0.0625 C 0.789062 -0.226562 0.71875 -0.453125 0.71875 -0.734375 C 0.71875 -0.867188 0.734375 -0.984375 0.765625 -1.078125 C 0.804688 -1.179688 0.875 -1.304688 0.96875 -1.453125 C 1.070312 -1.597656 1.15625 -1.765625 1.21875 -1.953125 C 1.289062 -2.148438 1.328125 -2.429688 1.328125 -2.796875 L 1.328125 -16.359375 C 1.328125 -16.703125 1.289062 -16.960938 1.21875 -17.140625 C 1.15625 -17.328125 1.078125 -17.492188 0.984375 -17.640625 C 0.898438 -17.785156 0.832031 -17.914062 0.78125 -18.03125 C 0.738281 -18.144531 0.71875 -18.273438 0.71875 -18.421875 C 0.71875 -18.679688 0.796875 -18.890625 0.953125 -19.046875 C 1.117188 -19.203125 1.347656 -19.28125 1.640625 -19.28125 Z M 1.640625 -19.28125 "/></g></g></g><g fill="#2b2b2b" fill-opacity="1"><g transform="translate(205.557384, 252.786473)"><g><path d="M 1.5625 -19.28125 C 1.875 -19.28125 2.148438 -19.269531 2.390625 -19.25 C 2.640625 -19.238281 2.984375 -19.210938 3.421875 -19.171875 C 3.867188 -19.128906 4.296875 -19.109375 4.703125 -19.109375 C 5.160156 -19.109375 5.59375 -19.132812 6 -19.1875 C 6.414062 -19.25 6.710938 -19.28125 6.890625 -19.28125 C 7.148438 -19.28125 7.367188 -19.171875 7.546875 -18.953125 C 7.734375 -18.742188 7.925781 -18.445312 8.125 -18.0625 L 11.796875 -10.890625 C 11.992188 -10.492188 12.191406 -10.296875 12.390625 -10.296875 C 12.585938 -10.296875 12.6875 -10.453125 12.6875 -10.765625 C 12.6875 -10.898438 12.675781 -11.035156 12.65625 -11.171875 C 12.644531 -11.304688 12.640625 -11.441406 12.640625 -11.578125 L 12.640625 -15.953125 C 12.640625 -16.484375 12.597656 -16.875 12.515625 -17.125 C 12.441406 -17.382812 12.347656 -17.613281 12.234375 -17.8125 C 12.191406 -17.894531 12.148438 -17.988281 12.109375 -18.09375 C 12.066406 -18.195312 12.046875 -18.320312 12.046875 -18.46875 C 12.046875 -18.6875 12.117188 -18.875 12.265625 -19.03125 C 12.410156 -19.195312 12.609375 -19.28125 12.859375 -19.28125 C 14.148438 -19.164062 14.929688 -19.109375 15.203125 -19.109375 C 15.535156 -19.109375 15.914062 -19.132812 16.34375 -19.1875 C 16.78125 -19.25 17.140625 -19.28125 17.421875 -19.28125 C 17.660156 -19.28125 17.859375 -19.203125 18.015625 -19.046875 C 18.171875 -18.890625 18.25 -18.695312 18.25 -18.46875 C 18.25 -18.320312 18.226562 -18.195312 18.1875 -18.09375 C 18.144531 -17.988281 18.09375 -17.882812 18.03125 -17.78125 C 17.914062 -17.570312 17.820312 -17.363281 17.75 -17.15625 C 17.6875 -16.957031 17.65625 -16.644531 17.65625 -16.21875 L 17.65625 -2.65625 C 17.65625 -2.320312 17.6875 -2.0625 17.75 -1.875 C 17.820312 -1.6875 17.914062 -1.507812 18.03125 -1.34375 C 18.175781 -1.113281 18.25 -0.882812 18.25 -0.65625 C 18.25 -0.445312 18.175781 -0.253906 18.03125 -0.078125 C 17.882812 0.0859375 17.664062 0.171875 17.375 0.171875 C 17.101562 0.171875 16.863281 0.160156 16.65625 0.140625 C 16.445312 0.128906 16.15625 0.101562 15.78125 0.0625 C 15.414062 0.0195312 15.046875 0 14.671875 0 C 14.335938 0 13.476562 0.0546875 12.09375 0.171875 C 11.882812 0.171875 11.679688 0.09375 11.484375 -0.0625 C 11.285156 -0.21875 11.082031 -0.507812 10.875 -0.9375 L 7.140625 -8.265625 C 7.023438 -8.515625 6.929688 -8.671875 6.859375 -8.734375 C 6.785156 -8.796875 6.679688 -8.828125 6.546875 -8.828125 C 6.367188 -8.828125 6.28125 -8.707031 6.28125 -8.46875 L 6.28125 -2.796875 C 6.28125 -2.429688 6.3125 -2.15625 6.375 -1.96875 C 6.4375 -1.78125 6.523438 -1.582031 6.640625 -1.375 C 6.804688 -1.113281 6.890625 -0.875 6.890625 -0.65625 C 6.890625 -0.414062 6.8125 -0.21875 6.65625 -0.0625 C 6.5 0.09375 6.285156 0.171875 6.015625 0.171875 C 5.328125 0.109375 4.8125 0.0625 4.46875 0.03125 C 4.132812 0.0078125 3.863281 0 3.65625 0 C 3.457031 0 3.050781 0.0234375 2.4375 0.078125 C 1.820312 0.140625 1.523438 0.171875 1.546875 0.171875 C 1.296875 0.171875 1.09375 0.09375 0.9375 -0.0625 C 0.789062 -0.21875 0.71875 -0.425781 0.71875 -0.6875 C 0.71875 -0.894531 0.789062 -1.109375 0.9375 -1.328125 C 1.0625 -1.523438 1.15625 -1.726562 1.21875 -1.9375 C 1.289062 -2.144531 1.328125 -2.460938 1.328125 -2.890625 L 1.328125 -16.28125 C 1.328125 -16.664062 1.289062 -16.957031 1.21875 -17.15625 C 1.15625 -17.363281 1.066406 -17.550781 0.953125 -17.71875 C 0.867188 -17.84375 0.804688 -17.953125 0.765625 -18.046875 C 0.734375 -18.148438 0.71875 -18.289062 0.71875 -18.46875 C 0.71875 -18.71875 0.789062 -18.914062 0.9375 -19.0625 C 1.09375 -19.207031 1.300781 -19.28125 1.5625 -19.28125 Z M 1.5625 -19.28125 "/></g></g></g><g fill="#2b2b2b" fill-opacity="1"><g transform="translate(229.227506, 252.786473)"><g><path d="M 1.640625 -19.28125 C 1.972656 -19.28125 2.363281 -19.25 2.8125 -19.1875 C 3.257812 -19.132812 3.8125 -19.109375 4.46875 -19.109375 C 5.101562 -19.109375 6.132812 -19.164062 7.5625 -19.28125 C 7.820312 -19.28125 8.023438 -19.203125 8.171875 -19.046875 C 8.316406 -18.890625 8.390625 -18.679688 8.390625 -18.421875 C 8.390625 -18.253906 8.359375 -18.117188 8.296875 -18.015625 C 8.242188 -17.910156 8.207031 -17.84375 8.1875 -17.8125 C 8.070312 -17.632812 7.976562 -17.410156 7.90625 -17.140625 C 7.832031 -16.878906 7.796875 -16.488281 7.796875 -15.96875 L 7.796875 -2.65625 C 7.796875 -2.34375 7.820312 -2.097656 7.875 -1.921875 C 7.9375 -1.753906 8.023438 -1.578125 8.140625 -1.390625 C 8.160156 -1.378906 8.207031 -1.3125 8.28125 -1.1875 C 8.351562 -1.0625 8.390625 -0.90625 8.390625 -0.71875 C 8.390625 -0.488281 8.316406 -0.28125 8.171875 -0.09375 C 8.035156 0.0820312 7.832031 0.171875 7.5625 0.171875 C 6.332031 0.0546875 5.347656 0 4.609375 0 C 4.023438 0 3.007812 0.0546875 1.5625 0.171875 C 1.300781 0.171875 1.09375 0.09375 0.9375 -0.0625 C 0.789062 -0.226562 0.71875 -0.453125 0.71875 -0.734375 C 0.71875 -0.929688 0.789062 -1.144531 0.9375 -1.375 C 1.0625 -1.570312 1.15625 -1.765625 1.21875 -1.953125 C 1.289062 -2.140625 1.328125 -2.394531 1.328125 -2.71875 L 1.328125 -16.359375 C 1.328125 -16.734375 1.289062 -17.007812 1.21875 -17.1875 C 1.15625 -17.375 1.066406 -17.550781 0.953125 -17.71875 C 0.941406 -17.726562 0.898438 -17.796875 0.828125 -17.921875 C 0.753906 -18.046875 0.71875 -18.210938 0.71875 -18.421875 C 0.71875 -18.703125 0.804688 -18.914062 0.984375 -19.0625 C 1.160156 -19.207031 1.378906 -19.28125 1.640625 -19.28125 Z M 1.640625 -19.28125 "/></g></g></g><g fill="#2b2b2b" fill-opacity="1"><g transform="translate(243.037629, 252.786473)"><g><path d="M 1.640625 -19.28125 C 1.972656 -19.28125 2.363281 -19.25 2.8125 -19.1875 C 3.257812 -19.132812 3.8125 -19.109375 4.46875 -19.109375 C 5.101562 -19.109375 6.132812 -19.164062 7.5625 -19.28125 C 7.820312 -19.28125 8.023438 -19.203125 8.171875 -19.046875 C 8.316406 -18.890625 8.390625 -18.679688 8.390625 -18.421875 C 8.390625 -18.253906 8.359375 -18.117188 8.296875 -18.015625 C 8.242188 -17.910156 8.207031 -17.84375 8.1875 -17.8125 C 8.070312 -17.632812 7.976562 -17.410156 7.90625 -17.140625 C 7.832031 -16.878906 7.796875 -16.488281 7.796875 -15.96875 L 7.796875 -2.65625 C 7.796875 -2.34375 7.820312 -2.097656 7.875 -1.921875 C 7.9375 -1.753906 8.023438 -1.578125 8.140625 -1.390625 C 8.160156 -1.378906 8.207031 -1.3125 8.28125 -1.1875 C 8.351562 -1.0625 8.390625 -0.90625 8.390625 -0.71875 C 8.390625 -0.488281 8.316406 -0.28125 8.171875 -0.09375 C 8.035156 0.0820312 7.832031 0.171875 7.5625 0.171875 C 6.332031 0.0546875 5.347656 0 4.609375 0 C 4.023438 0 3.007812 0.0546875 1.5625 0.171875 C 1.300781 0.171875 1.09375 0.09375 0.9375 -0.0625 C 0.789062 -0.226562 0.71875 -0.453125 0.71875 -0.734375 C 0.71875 -0.929688 0.789062 -1.144531 0.9375 -1.375 C 1.0625 -1.570312 1.15625 -1.765625 1.21875 -1.953125 C 1.289062 -2.140625 1.328125 -2.394531 1.328125 -2.71875 L 1.328125 -16.359375 C 1.328125 -16.734375 1.289062 -17.007812 1.21875 -17.1875 C 1.15625 -17.375 1.066406 -17.550781 0.953125 -17.71875 C 0.941406 -17.726562 0.898438 -17.796875 0.828125 -17.921875 C 0.753906 -18.046875 0.71875 -18.210938 0.71875 -18.421875 C 0.71875 -18.703125 0.804688 -18.914062 0.984375 -19.0625 C 1.160156 -19.207031 1.378906 -19.28125 1.640625 -19.28125 Z M 1.640625 -19.28125 "/></g></g></g><g fill="#2b2b2b" fill-opacity="1"><g transform="translate(256.847751, 252.786473)"><g><path d="M 4.421875 -16.625 C 4.773438 -17.53125 5.09375 -18.195312 5.375 -18.625 C 5.65625 -19.0625 5.929688 -19.28125 6.203125 -19.28125 C 6.304688 -19.28125 6.703125 -19.25 7.390625 -19.1875 C 8.078125 -19.132812 8.785156 -19.109375 9.515625 -19.109375 C 10.054688 -19.109375 11.046875 -19.164062 12.484375 -19.28125 C 12.742188 -19.28125 13 -19.070312 13.25 -18.65625 C 13.507812 -18.238281 13.816406 -17.585938 14.171875 -16.703125 C 15.046875 -14.566406 15.78125 -12.273438 16.375 -9.828125 C 16.96875 -7.378906 17.4375 -5.09375 17.78125 -2.96875 C 17.851562 -2.570312 17.9375 -2.265625 18.03125 -2.046875 C 18.125 -1.835938 18.238281 -1.640625 18.375 -1.453125 C 18.46875 -1.316406 18.535156 -1.195312 18.578125 -1.09375 C 18.617188 -1 18.640625 -0.875 18.640625 -0.71875 C 18.640625 -0.4375 18.570312 -0.21875 18.4375 -0.0625 C 18.300781 0.09375 18.109375 0.171875 17.859375 0.171875 C 17.773438 0.171875 17.363281 0.140625 16.625 0.078125 C 15.894531 0.0234375 15.210938 0 14.578125 0 C 13.742188 0 13.066406 0.0234375 12.546875 0.078125 C 12.035156 0.140625 11.722656 0.171875 11.609375 0.171875 C 11.335938 0.171875 11.117188 0.0859375 10.953125 -0.078125 C 10.796875 -0.253906 10.71875 -0.484375 10.71875 -0.765625 C 10.71875 -0.941406 10.789062 -1.144531 10.9375 -1.375 C 11.15625 -1.695312 11.265625 -2.015625 11.265625 -2.328125 C 11.265625 -2.847656 11.171875 -3.21875 10.984375 -3.4375 C 10.796875 -3.664062 10.472656 -3.78125 10.015625 -3.78125 L 7.328125 -3.78125 C 6.796875 -3.78125 6.445312 -3.65625 6.28125 -3.40625 C 6.113281 -3.164062 6.03125 -2.789062 6.03125 -2.28125 C 6.03125 -1.96875 6.117188 -1.691406 6.296875 -1.453125 C 6.316406 -1.429688 6.359375 -1.347656 6.421875 -1.203125 C 6.492188 -1.066406 6.53125 -0.910156 6.53125 -0.734375 C 6.53125 -0.492188 6.460938 -0.28125 6.328125 -0.09375 C 6.203125 0.0820312 6.023438 0.171875 5.796875 0.171875 C 5.566406 0.171875 5.226562 0.140625 4.78125 0.078125 C 4.34375 0.0234375 3.878906 0 3.390625 0 C 2.671875 0 1.925781 0.0390625 1.15625 0.125 L 0.640625 0.171875 C 0.390625 0.171875 0.1875 0.0859375 0.03125 -0.078125 C -0.125 -0.253906 -0.203125 -0.472656 -0.203125 -0.734375 C -0.203125 -0.867188 -0.171875 -0.992188 -0.109375 -1.109375 C -0.0546875 -1.234375 0.0664062 -1.421875 0.265625 -1.671875 C 0.378906 -1.828125 0.484375 -2.035156 0.578125 -2.296875 C 0.671875 -2.566406 0.796875 -3.175781 0.953125 -4.125 C 1.171875 -5.445312 1.597656 -7.359375 2.234375 -9.859375 C 2.867188 -12.359375 3.597656 -14.613281 4.421875 -16.625 Z M 7.96875 -12.78125 C 7.332031 -11.007812 7.015625 -9.757812 7.015625 -9.03125 C 7.015625 -8.8125 7.078125 -8.648438 7.203125 -8.546875 C 7.335938 -8.441406 7.570312 -8.390625 7.90625 -8.390625 L 9.515625 -8.390625 C 10.035156 -8.390625 10.296875 -8.609375 10.296875 -9.046875 C 10.296875 -9.472656 10.191406 -10.070312 9.984375 -10.84375 C 9.785156 -11.625 9.660156 -12.070312 9.609375 -12.1875 C 9.222656 -13.382812 8.921875 -13.984375 8.703125 -13.984375 C 8.578125 -13.984375 8.460938 -13.898438 8.359375 -13.734375 C 8.265625 -13.578125 8.132812 -13.257812 7.96875 -12.78125 Z M 7.96875 -12.78125 "/></g></g></g><g fill="#2b2b2b" fill-opacity="1"><g transform="translate(117.551583, 272.710324)"><g><path d="M 0.640625 -7.890625 C 0.710938 -7.890625 0.867188 -7.882812 1.109375 -7.875 C 1.671875 -7.84375 2.28125 -7.828125 2.9375 -7.828125 C 3.269531 -7.828125 3.769531 -7.84375 4.4375 -7.875 L 5.03125 -7.890625 C 5.15625 -7.890625 5.25 -7.875 5.3125 -7.84375 C 5.375 -7.8125 5.421875 -7.742188 5.453125 -7.640625 C 5.484375 -7.546875 5.5 -7.394531 5.5 -7.1875 C 5.507812 -6.9375 5.523438 -6.71875 5.546875 -6.53125 C 5.578125 -6.351562 5.617188 -6.160156 5.671875 -5.953125 C 5.703125 -5.785156 5.71875 -5.675781 5.71875 -5.625 C 5.71875 -5.539062 5.6875 -5.46875 5.625 -5.40625 C 5.5625 -5.34375 5.476562 -5.3125 5.375 -5.3125 C 5.289062 -5.3125 5.179688 -5.347656 5.046875 -5.421875 C 4.953125 -5.472656 4.859375 -5.515625 4.765625 -5.546875 C 4.671875 -5.578125 4.566406 -5.59375 4.453125 -5.59375 C 4.347656 -5.59375 4.269531 -5.570312 4.21875 -5.53125 C 4.175781 -5.488281 4.15625 -5.414062 4.15625 -5.3125 L 4.15625 -1.140625 C 4.15625 -0.972656 4.164062 -0.847656 4.1875 -0.765625 C 4.21875 -0.691406 4.257812 -0.617188 4.3125 -0.546875 C 4.34375 -0.503906 4.363281 -0.460938 4.375 -0.421875 C 4.394531 -0.390625 4.40625 -0.34375 4.40625 -0.28125 C 4.40625 -0.175781 4.367188 -0.0859375 4.296875 -0.015625 C 4.234375 0.046875 4.15625 0.078125 4.0625 0.078125 C 4.019531 0.078125 3.898438 0.0625 3.703125 0.03125 C 3.503906 0.0078125 3.226562 0 2.875 0 C 2.550781 0 2.128906 0.0234375 1.609375 0.078125 C 1.503906 0.078125 1.414062 0.046875 1.34375 -0.015625 C 1.28125 -0.0859375 1.25 -0.179688 1.25 -0.296875 C 1.25 -0.367188 1.28125 -0.453125 1.34375 -0.546875 C 1.394531 -0.617188 1.429688 -0.695312 1.453125 -0.78125 C 1.484375 -0.875 1.5 -1.003906 1.5 -1.171875 L 1.5 -5.28125 C 1.5 -5.40625 1.472656 -5.488281 1.421875 -5.53125 C 1.378906 -5.582031 1.296875 -5.609375 1.171875 -5.609375 C 1.046875 -5.609375 0.945312 -5.59375 0.875 -5.5625 C 0.800781 -5.539062 0.71875 -5.503906 0.625 -5.453125 C 0.613281 -5.441406 0.578125 -5.414062 0.515625 -5.375 C 0.453125 -5.34375 0.382812 -5.328125 0.3125 -5.328125 C 0.195312 -5.328125 0.101562 -5.359375 0.03125 -5.421875 C -0.0390625 -5.492188 -0.078125 -5.566406 -0.078125 -5.640625 C -0.078125 -5.703125 -0.0507812 -5.832031 0 -6.03125 C 0.125 -6.457031 0.195312 -6.898438 0.21875 -7.359375 C 0.226562 -7.566406 0.257812 -7.707031 0.3125 -7.78125 C 0.363281 -7.851562 0.472656 -7.890625 0.640625 -7.890625 Z M 0.640625 -7.890625 "/></g></g></g><g fill="#2b2b2b" fill-opacity="1"><g transform="translate(131.208382, 272.710324)"><g><path d="M 3.625 -8.03125 C 4.351562 -8.03125 4.976562 -7.84375 5.5 -7.46875 C 6.03125 -7.09375 6.429688 -6.59375 6.703125 -5.96875 C 6.972656 -5.351562 7.109375 -4.679688 7.109375 -3.953125 C 7.109375 -3.160156 6.976562 -2.453125 6.71875 -1.828125 C 6.46875 -1.203125 6.082031 -0.707031 5.5625 -0.34375 C 5.050781 0.0078125 4.410156 0.1875 3.640625 0.1875 C 2.867188 0.1875 2.222656 0.0078125 1.703125 -0.34375 C 1.191406 -0.695312 0.8125 -1.175781 0.5625 -1.78125 C 0.3125 -2.394531 0.1875 -3.085938 0.1875 -3.859375 C 0.1875 -4.753906 0.335938 -5.515625 0.640625 -6.140625 C 0.941406 -6.765625 1.351562 -7.234375 1.875 -7.546875 C 2.394531 -7.867188 2.976562 -8.03125 3.625 -8.03125 Z M 2.921875 -3.953125 C 2.921875 -3.296875 2.960938 -2.804688 3.046875 -2.484375 C 3.140625 -2.171875 3.335938 -2.015625 3.640625 -2.015625 C 3.929688 -2.015625 4.125 -2.175781 4.21875 -2.5 C 4.320312 -2.820312 4.375 -3.300781 4.375 -3.9375 C 4.375 -4.625 4.320312 -5.117188 4.21875 -5.421875 C 4.113281 -5.722656 3.921875 -5.875 3.640625 -5.875 C 3.347656 -5.875 3.15625 -5.710938 3.0625 -5.390625 C 2.96875 -5.078125 2.921875 -4.597656 2.921875 -3.953125 Z M 2.921875 -3.953125 "/></g></g></g><g fill="#2b2b2b" fill-opacity="1"><g transform="translate(146.542347, 272.710324)"><g><path d="M 0.65625 -7.890625 C 0.789062 -7.890625 0.921875 -7.878906 1.046875 -7.859375 C 1.273438 -7.835938 1.546875 -7.828125 1.859375 -7.828125 C 2.066406 -7.828125 2.25 -7.828125 2.40625 -7.828125 C 2.570312 -7.835938 2.800781 -7.847656 3.09375 -7.859375 C 3.394531 -7.878906 3.679688 -7.890625 3.953125 -7.890625 C 4.867188 -7.890625 5.5625 -7.6875 6.03125 -7.28125 C 6.507812 -6.882812 6.75 -6.347656 6.75 -5.671875 C 6.75 -5.234375 6.660156 -4.890625 6.484375 -4.640625 C 6.304688 -4.390625 6.132812 -4.226562 5.96875 -4.15625 C 5.90625 -4.113281 5.867188 -4.085938 5.859375 -4.078125 C 5.847656 -4.066406 5.84375 -4.050781 5.84375 -4.03125 C 5.84375 -4 5.875 -3.960938 5.9375 -3.921875 C 6.582031 -3.566406 6.90625 -3.015625 6.90625 -2.265625 C 6.90625 -0.691406 5.84375 0.09375 3.71875 0.09375 C 3.5 0.09375 3.171875 0.078125 2.734375 0.046875 C 2.347656 0.015625 2 0 1.6875 0 C 1.570312 0 1.472656 0 1.390625 0 C 1.316406 0.0078125 1.207031 0.0234375 1.0625 0.046875 C 0.914062 0.0664062 0.773438 0.078125 0.640625 0.078125 C 0.535156 0.078125 0.453125 0.046875 0.390625 -0.015625 C 0.328125 -0.0859375 0.296875 -0.179688 0.296875 -0.296875 C 0.296875 -0.390625 0.328125 -0.476562 0.390625 -0.5625 C 0.441406 -0.644531 0.476562 -0.71875 0.5 -0.78125 C 0.53125 -0.851562 0.546875 -0.953125 0.546875 -1.078125 L 0.546875 -6.765625 C 0.546875 -6.878906 0.53125 -6.96875 0.5 -7.03125 C 0.476562 -7.09375 0.445312 -7.160156 0.40625 -7.234375 C 0.363281 -7.285156 0.332031 -7.332031 0.3125 -7.375 C 0.300781 -7.425781 0.296875 -7.484375 0.296875 -7.546875 C 0.296875 -7.648438 0.320312 -7.734375 0.375 -7.796875 C 0.4375 -7.859375 0.53125 -7.890625 0.65625 -7.890625 Z M 3.015625 -5.8125 L 3.015625 -4.953125 C 3.015625 -4.828125 3.046875 -4.75 3.109375 -4.71875 C 3.179688 -4.6875 3.328125 -4.671875 3.546875 -4.671875 C 3.816406 -4.671875 4.015625 -4.738281 4.140625 -4.875 C 4.273438 -5.007812 4.34375 -5.1875 4.34375 -5.40625 C 4.34375 -5.882812 4.0625 -6.125 3.5 -6.125 C 3.289062 -6.125 3.15625 -6.101562 3.09375 -6.0625 C 3.039062 -6.019531 3.015625 -5.9375 3.015625 -5.8125 Z M 3.015625 -3.046875 L 3.015625 -2.078125 C 3.015625 -1.992188 3.023438 -1.929688 3.046875 -1.890625 C 3.078125 -1.859375 3.128906 -1.832031 3.203125 -1.8125 C 3.285156 -1.800781 3.414062 -1.796875 3.59375 -1.796875 C 3.875 -1.796875 4.082031 -1.863281 4.21875 -2 C 4.351562 -2.132812 4.421875 -2.316406 4.421875 -2.546875 C 4.421875 -2.785156 4.34375 -2.972656 4.1875 -3.109375 C 4.03125 -3.253906 3.785156 -3.328125 3.453125 -3.328125 L 3.390625 -3.328125 C 3.242188 -3.316406 3.144531 -3.296875 3.09375 -3.265625 C 3.039062 -3.234375 3.015625 -3.160156 3.015625 -3.046875 Z M 3.015625 -3.046875 "/></g></g></g><g fill="#2b2b2b" fill-opacity="1"><g transform="translate(161.695539, 272.710324)"><g><path d="M 3.625 -8.03125 C 4.351562 -8.03125 4.976562 -7.84375 5.5 -7.46875 C 6.03125 -7.09375 6.429688 -6.59375 6.703125 -5.96875 C 6.972656 -5.351562 7.109375 -4.679688 7.109375 -3.953125 C 7.109375 -3.160156 6.976562 -2.453125 6.71875 -1.828125 C 6.46875 -1.203125 6.082031 -0.707031 5.5625 -0.34375 C 5.050781 0.0078125 4.410156 0.1875 3.640625 0.1875 C 2.867188 0.1875 2.222656 0.0078125 1.703125 -0.34375 C 1.191406 -0.695312 0.8125 -1.175781 0.5625 -1.78125 C 0.3125 -2.394531 0.1875 -3.085938 0.1875 -3.859375 C 0.1875 -4.753906 0.335938 -5.515625 0.640625 -6.140625 C 0.941406 -6.765625 1.351562 -7.234375 1.875 -7.546875 C 2.394531 -7.867188 2.976562 -8.03125 3.625 -8.03125 Z M 2.921875 -3.953125 C 2.921875 -3.296875 2.960938 -2.804688 3.046875 -2.484375 C 3.140625 -2.171875 3.335938 -2.015625 3.640625 -2.015625 C 3.929688 -2.015625 4.125 -2.175781 4.21875 -2.5 C 4.320312 -2.820312 4.375 -3.300781 4.375 -3.9375 C 4.375 -4.625 4.320312 -5.117188 4.21875 -5.421875 C 4.113281 -5.722656 3.921875 -5.875 3.640625 -5.875 C 3.347656 -5.875 3.15625 -5.710938 3.0625 -5.390625 C 2.96875 -5.078125 2.921875 -4.597656 2.921875 -3.953125 Z M 2.921875 -3.953125 "/></g></g></g><g fill="#2b2b2b" fill-opacity="1"><g transform="translate(177.029506, 272.710324)"><g><path d="M 0.65625 -7.890625 C 0.769531 -7.890625 0.945312 -7.878906 1.1875 -7.859375 C 1.4375 -7.835938 1.660156 -7.828125 1.859375 -7.828125 C 2.078125 -7.828125 2.3125 -7.835938 2.5625 -7.859375 C 2.8125 -7.878906 2.984375 -7.890625 3.078125 -7.890625 C 3.191406 -7.890625 3.28125 -7.859375 3.34375 -7.796875 C 3.40625 -7.734375 3.4375 -7.648438 3.4375 -7.546875 C 3.4375 -7.441406 3.40625 -7.347656 3.34375 -7.265625 C 3.300781 -7.191406 3.265625 -7.109375 3.234375 -7.015625 C 3.203125 -6.921875 3.1875 -6.78125 3.1875 -6.59375 L 3.1875 -2.515625 C 3.1875 -2.328125 3.210938 -2.207031 3.265625 -2.15625 C 3.328125 -2.113281 3.457031 -2.09375 3.65625 -2.09375 C 3.832031 -2.09375 3.960938 -2.109375 4.046875 -2.140625 C 4.140625 -2.171875 4.226562 -2.21875 4.3125 -2.28125 C 4.363281 -2.320312 4.414062 -2.347656 4.46875 -2.359375 C 4.519531 -2.378906 4.582031 -2.390625 4.65625 -2.390625 C 4.757812 -2.390625 4.847656 -2.351562 4.921875 -2.28125 C 4.992188 -2.21875 5.03125 -2.144531 5.03125 -2.0625 C 5.03125 -2.019531 5.019531 -1.957031 5 -1.875 C 4.976562 -1.789062 4.960938 -1.722656 4.953125 -1.671875 C 4.835938 -1.265625 4.765625 -0.878906 4.734375 -0.515625 C 4.722656 -0.316406 4.691406 -0.164062 4.640625 -0.0625 C 4.597656 0.03125 4.5 0.078125 4.34375 0.078125 C 4.300781 0.078125 4.128906 0.0625 3.828125 0.03125 C 3.535156 0.0078125 3.0625 0 2.40625 0 C 2 0 1.421875 0.0234375 0.671875 0.078125 C 0.554688 0.078125 0.460938 0.046875 0.390625 -0.015625 C 0.328125 -0.0859375 0.296875 -0.179688 0.296875 -0.296875 C 0.296875 -0.390625 0.320312 -0.476562 0.375 -0.5625 C 0.4375 -0.632812 0.476562 -0.710938 0.5 -0.796875 C 0.53125 -0.878906 0.546875 -1 0.546875 -1.15625 L 0.546875 -6.734375 C 0.546875 -6.867188 0.53125 -6.96875 0.5 -7.03125 C 0.476562 -7.09375 0.445312 -7.164062 0.40625 -7.25 C 0.363281 -7.300781 0.332031 -7.34375 0.3125 -7.375 C 0.300781 -7.414062 0.296875 -7.472656 0.296875 -7.546875 C 0.296875 -7.648438 0.328125 -7.734375 0.390625 -7.796875 C 0.460938 -7.859375 0.550781 -7.890625 0.65625 -7.890625 Z M 0.65625 -7.890625 "/></g></g></g><g fill="#2b2b2b" fill-opacity="1"><g transform="translate(190.093777, 272.710324)"><g><path d="M 3.625 -8.03125 C 4.351562 -8.03125 4.976562 -7.84375 5.5 -7.46875 C 6.03125 -7.09375 6.429688 -6.59375 6.703125 -5.96875 C 6.972656 -5.351562 7.109375 -4.679688 7.109375 -3.953125 C 7.109375 -3.160156 6.976562 -2.453125 6.71875 -1.828125 C 6.46875 -1.203125 6.082031 -0.707031 5.5625 -0.34375 C 5.050781 0.0078125 4.410156 0.1875 3.640625 0.1875 C 2.867188 0.1875 2.222656 0.0078125 1.703125 -0.34375 C 1.191406 -0.695312 0.8125 -1.175781 0.5625 -1.78125 C 0.3125 -2.394531 0.1875 -3.085938 0.1875 -3.859375 C 0.1875 -4.753906 0.335938 -5.515625 0.640625 -6.140625 C 0.941406 -6.765625 1.351562 -7.234375 1.875 -7.546875 C 2.394531 -7.867188 2.976562 -8.03125 3.625 -8.03125 Z M 2.921875 -3.953125 C 2.921875 -3.296875 2.960938 -2.804688 3.046875 -2.484375 C 3.140625 -2.171875 3.335938 -2.015625 3.640625 -2.015625 C 3.929688 -2.015625 4.125 -2.175781 4.21875 -2.5 C 4.320312 -2.820312 4.375 -3.300781 4.375 -3.9375 C 4.375 -4.625 4.320312 -5.117188 4.21875 -5.421875 C 4.113281 -5.722656 3.921875 -5.875 3.640625 -5.875 C 3.347656 -5.875 3.15625 -5.710938 3.0625 -5.390625 C 2.96875 -5.078125 2.921875 -4.597656 2.921875 -3.953125 Z M 2.921875 -3.953125 "/></g></g></g><g fill="#2b2b2b" fill-opacity="1"><g transform="translate(205.427743, 272.710324)"><g><path d="M 0.265625 -7.890625 C 0.972656 -7.847656 1.441406 -7.828125 1.671875 -7.828125 C 1.878906 -7.828125 2.265625 -7.847656 2.828125 -7.890625 C 2.921875 -7.890625 3 -7.859375 3.0625 -7.796875 C 3.132812 -7.734375 3.171875 -7.648438 3.171875 -7.546875 C 3.171875 -7.472656 3.144531 -7.378906 3.09375 -7.265625 C 3.0625 -7.210938 3.035156 -7.148438 3.015625 -7.078125 C 2.992188 -7.003906 2.984375 -6.929688 2.984375 -6.859375 C 2.984375 -6.679688 3.015625 -6.367188 3.078125 -5.921875 C 3.140625 -5.472656 3.207031 -5.039062 3.28125 -4.625 C 3.34375 -4.207031 3.398438 -3.898438 3.453125 -3.703125 C 3.503906 -3.503906 3.539062 -3.382812 3.5625 -3.34375 C 3.59375 -3.300781 3.628906 -3.28125 3.671875 -3.28125 C 3.785156 -3.28125 3.882812 -3.535156 3.96875 -4.046875 C 4.0625 -4.566406 4.140625 -5.140625 4.203125 -5.765625 C 4.265625 -6.390625 4.296875 -6.78125 4.296875 -6.9375 C 4.296875 -6.988281 4.28125 -7.046875 4.25 -7.109375 C 4.21875 -7.171875 4.203125 -7.207031 4.203125 -7.21875 C 4.128906 -7.34375 4.09375 -7.445312 4.09375 -7.53125 C 4.09375 -7.625 4.117188 -7.707031 4.171875 -7.78125 C 4.234375 -7.851562 4.316406 -7.890625 4.421875 -7.890625 C 4.921875 -7.847656 5.304688 -7.828125 5.578125 -7.828125 C 5.691406 -7.828125 5.851562 -7.835938 6.0625 -7.859375 C 6.269531 -7.878906 6.429688 -7.890625 6.546875 -7.890625 C 6.660156 -7.890625 6.742188 -7.859375 6.796875 -7.796875 C 6.859375 -7.734375 6.890625 -7.644531 6.890625 -7.53125 C 6.890625 -7.488281 6.878906 -7.441406 6.859375 -7.390625 C 6.835938 -7.347656 6.796875 -7.289062 6.734375 -7.21875 C 6.734375 -7.21875 6.710938 -7.191406 6.671875 -7.140625 C 6.640625 -7.097656 6.597656 -6.96875 6.546875 -6.75 C 6.503906 -6.539062 6.460938 -6.25 6.421875 -5.875 C 6.347656 -5.34375 6.203125 -4.632812 5.984375 -3.75 C 5.773438 -2.863281 5.566406 -2.097656 5.359375 -1.453125 C 5.210938 -0.984375 5.082031 -0.632812 4.96875 -0.40625 C 4.863281 -0.1875 4.773438 -0.0507812 4.703125 0 C 4.628906 0.0507812 4.539062 0.078125 4.4375 0.078125 C 3.96875 0.0234375 3.628906 0 3.421875 0 C 3.234375 0 3.035156 0.0078125 2.828125 0.03125 C 2.617188 0.0625 2.441406 0.078125 2.296875 0.078125 C 2.140625 0.078125 1.976562 -0.0859375 1.8125 -0.421875 C 1.65625 -0.765625 1.476562 -1.253906 1.28125 -1.890625 C 1.03125 -2.691406 0.8125 -3.539062 0.625 -4.4375 C 0.445312 -5.332031 0.328125 -5.976562 0.265625 -6.375 C 0.210938 -6.75 0.125 -7.039062 0 -7.25 C -0.03125 -7.300781 -0.0507812 -7.347656 -0.0625 -7.390625 C -0.0820312 -7.441406 -0.09375 -7.488281 -0.09375 -7.53125 C -0.09375 -7.644531 -0.0625 -7.734375 0 -7.796875 C 0.0703125 -7.859375 0.160156 -7.890625 0.265625 -7.890625 Z M 0.265625 -7.890625 "/></g></g></g><g fill="#2b2b2b" fill-opacity="1"><g transform="translate(220.259565, 272.710324)"><g><path d="M 3.0625 -8.015625 C 3.4375 -8.015625 3.882812 -7.957031 4.40625 -7.84375 C 4.550781 -7.800781 4.640625 -7.78125 4.671875 -7.78125 C 4.710938 -7.78125 4.765625 -7.796875 4.828125 -7.828125 C 4.898438 -7.867188 4.972656 -7.890625 5.046875 -7.890625 C 5.179688 -7.890625 5.285156 -7.851562 5.359375 -7.78125 C 5.429688 -7.707031 5.46875 -7.613281 5.46875 -7.5 L 5.46875 -6.984375 C 5.46875 -6.828125 5.488281 -6.648438 5.53125 -6.453125 C 5.582031 -6.253906 5.617188 -6.097656 5.640625 -5.984375 C 5.660156 -5.878906 5.671875 -5.820312 5.671875 -5.8125 C 5.671875 -5.738281 5.640625 -5.664062 5.578125 -5.59375 C 5.523438 -5.53125 5.453125 -5.5 5.359375 -5.5 C 5.285156 -5.5 5.128906 -5.554688 4.890625 -5.671875 C 4.628906 -5.773438 4.40625 -5.851562 4.21875 -5.90625 C 4.039062 -5.96875 3.847656 -6 3.640625 -6 C 3.472656 -6 3.332031 -5.957031 3.21875 -5.875 C 3.101562 -5.789062 3.046875 -5.664062 3.046875 -5.5 C 3.046875 -5.351562 3.101562 -5.234375 3.21875 -5.140625 C 3.332031 -5.046875 3.53125 -4.960938 3.8125 -4.890625 C 4.257812 -4.753906 4.640625 -4.597656 4.953125 -4.421875 C 5.273438 -4.242188 5.53125 -3.992188 5.71875 -3.671875 C 5.90625 -3.347656 6 -2.929688 6 -2.421875 C 6 -1.847656 5.867188 -1.363281 5.609375 -0.96875 C 5.347656 -0.582031 5 -0.289062 4.5625 -0.09375 C 4.132812 0.09375 3.648438 0.1875 3.109375 0.1875 C 2.660156 0.1875 2.09375 0.109375 1.40625 -0.046875 C 1.28125 -0.078125 1.210938 -0.09375 1.203125 -0.09375 C 1.148438 -0.09375 1.078125 -0.0664062 0.984375 -0.015625 C 0.898438 0.0234375 0.820312 0.046875 0.75 0.046875 C 0.5625 0.046875 0.441406 0 0.390625 -0.09375 C 0.347656 -0.195312 0.328125 -0.347656 0.328125 -0.546875 C 0.328125 -0.816406 0.3125 -1.046875 0.28125 -1.234375 C 0.25 -1.421875 0.210938 -1.613281 0.171875 -1.8125 C 0.117188 -2 0.09375 -2.132812 0.09375 -2.21875 C 0.09375 -2.300781 0.125 -2.375 0.1875 -2.4375 C 0.257812 -2.507812 0.335938 -2.546875 0.421875 -2.546875 C 0.484375 -2.546875 0.546875 -2.53125 0.609375 -2.5 C 0.679688 -2.46875 0.765625 -2.425781 0.859375 -2.375 C 0.910156 -2.351562 1.039062 -2.285156 1.25 -2.171875 C 1.457031 -2.066406 1.664062 -1.984375 1.875 -1.921875 C 2.082031 -1.867188 2.28125 -1.84375 2.46875 -1.84375 C 2.632812 -1.84375 2.765625 -1.882812 2.859375 -1.96875 C 2.960938 -2.050781 3.015625 -2.171875 3.015625 -2.328125 C 3.015625 -2.503906 2.953125 -2.628906 2.828125 -2.703125 C 2.710938 -2.785156 2.476562 -2.882812 2.125 -3 C 1.46875 -3.207031 0.984375 -3.484375 0.671875 -3.828125 C 0.367188 -4.179688 0.21875 -4.679688 0.21875 -5.328125 C 0.21875 -5.910156 0.34375 -6.40625 0.59375 -6.8125 C 0.84375 -7.21875 1.179688 -7.519531 1.609375 -7.71875 C 2.046875 -7.914062 2.53125 -8.015625 3.0625 -8.015625 Z M 3.0625 -8.015625 "/></g></g></g><g fill="#2b2b2b" fill-opacity="1"><g transform="translate(234.378334, 272.710324)"><g><path d="M 0.65625 -7.890625 C 0.757812 -7.890625 0.925781 -7.878906 1.15625 -7.859375 C 1.382812 -7.835938 1.59375 -7.828125 1.78125 -7.828125 C 2 -7.828125 2.375 -7.847656 2.90625 -7.890625 C 3.007812 -7.890625 3.09375 -7.859375 3.15625 -7.796875 C 3.21875 -7.734375 3.25 -7.644531 3.25 -7.53125 C 3.25 -7.46875 3.238281 -7.410156 3.21875 -7.359375 C 3.195312 -7.316406 3.175781 -7.273438 3.15625 -7.234375 C 3.101562 -7.160156 3.066406 -7.09375 3.046875 -7.03125 C 3.023438 -6.96875 3.015625 -6.882812 3.015625 -6.78125 L 3.015625 -5.34375 C 3.015625 -5.238281 3.023438 -5.160156 3.046875 -5.109375 C 3.078125 -5.066406 3.125 -5.046875 3.1875 -5.046875 C 3.320312 -5.046875 3.476562 -5.164062 3.65625 -5.40625 C 3.832031 -5.65625 3.988281 -5.941406 4.125 -6.265625 C 4.257812 -6.597656 4.328125 -6.875 4.328125 -7.09375 C 4.328125 -7.15625 4.3125 -7.222656 4.28125 -7.296875 C 4.269531 -7.316406 4.257812 -7.347656 4.25 -7.390625 C 4.238281 -7.441406 4.234375 -7.492188 4.234375 -7.546875 C 4.234375 -7.648438 4.257812 -7.734375 4.3125 -7.796875 C 4.375 -7.859375 4.46875 -7.890625 4.59375 -7.890625 C 4.71875 -7.890625 4.90625 -7.878906 5.15625 -7.859375 C 5.40625 -7.835938 5.671875 -7.828125 5.953125 -7.828125 C 6.078125 -7.828125 6.210938 -7.832031 6.359375 -7.84375 C 6.515625 -7.863281 6.628906 -7.875 6.703125 -7.875 C 6.773438 -7.882812 6.847656 -7.890625 6.921875 -7.890625 C 7.046875 -7.890625 7.140625 -7.851562 7.203125 -7.78125 C 7.265625 -7.707031 7.296875 -7.625 7.296875 -7.53125 C 7.296875 -7.46875 7.285156 -7.414062 7.265625 -7.375 C 7.242188 -7.332031 7.207031 -7.28125 7.15625 -7.21875 C 7.125 -7.175781 7.085938 -7.113281 7.046875 -7.03125 C 7.015625 -6.957031 6.976562 -6.828125 6.9375 -6.640625 C 6.800781 -6.160156 6.640625 -5.738281 6.453125 -5.375 C 6.265625 -5.019531 6.082031 -4.734375 5.90625 -4.515625 C 5.8125 -4.398438 5.738281 -4.3125 5.6875 -4.25 C 5.632812 -4.1875 5.609375 -4.140625 5.609375 -4.109375 C 5.609375 -4.078125 5.640625 -4.019531 5.703125 -3.9375 C 5.765625 -3.863281 5.84375 -3.773438 5.9375 -3.671875 C 6.164062 -3.421875 6.363281 -3.117188 6.53125 -2.765625 C 6.695312 -2.410156 6.828125 -2.078125 6.921875 -1.765625 C 7.015625 -1.460938 7.078125 -1.234375 7.109375 -1.078125 C 7.117188 -0.972656 7.140625 -0.890625 7.171875 -0.828125 C 7.203125 -0.765625 7.253906 -0.6875 7.328125 -0.59375 C 7.378906 -0.539062 7.414062 -0.492188 7.4375 -0.453125 C 7.457031 -0.410156 7.46875 -0.351562 7.46875 -0.28125 C 7.46875 -0.1875 7.4375 -0.101562 7.375 -0.03125 C 7.320312 0.0390625 7.25 0.078125 7.15625 0.078125 C 6.59375 0.0234375 6.171875 0 5.890625 0 C 5.617188 0 5.207031 0.0234375 4.65625 0.078125 C 4.550781 0.078125 4.46875 0.046875 4.40625 -0.015625 C 4.34375 -0.0859375 4.3125 -0.179688 4.3125 -0.296875 C 4.3125 -0.359375 4.328125 -0.429688 4.359375 -0.515625 C 4.367188 -0.535156 4.378906 -0.566406 4.390625 -0.609375 C 4.398438 -0.660156 4.40625 -0.71875 4.40625 -0.78125 C 4.40625 -1.039062 4.332031 -1.335938 4.1875 -1.671875 C 4.039062 -2.015625 3.867188 -2.304688 3.671875 -2.546875 C 3.484375 -2.785156 3.328125 -2.90625 3.203125 -2.90625 C 3.128906 -2.90625 3.078125 -2.882812 3.046875 -2.84375 C 3.023438 -2.800781 3.015625 -2.71875 3.015625 -2.59375 L 3.015625 -1.0625 C 3.015625 -0.957031 3.023438 -0.867188 3.046875 -0.796875 C 3.066406 -0.734375 3.101562 -0.664062 3.15625 -0.59375 C 3.164062 -0.582031 3.179688 -0.546875 3.203125 -0.484375 C 3.234375 -0.429688 3.25 -0.367188 3.25 -0.296875 C 3.25 -0.179688 3.21875 -0.0859375 3.15625 -0.015625 C 3.09375 0.046875 3.007812 0.078125 2.90625 0.078125 C 2.363281 0.0234375 1.988281 0 1.78125 0 C 1.539062 0 1.164062 0.0234375 0.65625 0.078125 C 0.550781 0.078125 0.460938 0.046875 0.390625 -0.015625 C 0.328125 -0.0859375 0.296875 -0.171875 0.296875 -0.265625 C 0.296875 -0.335938 0.300781 -0.394531 0.3125 -0.4375 C 0.332031 -0.476562 0.359375 -0.523438 0.390625 -0.578125 C 0.441406 -0.648438 0.476562 -0.722656 0.5 -0.796875 C 0.53125 -0.878906 0.546875 -1.003906 0.546875 -1.171875 L 0.546875 -6.734375 C 0.546875 -6.859375 0.53125 -6.953125 0.5 -7.015625 C 0.476562 -7.085938 0.441406 -7.164062 0.390625 -7.25 C 0.328125 -7.351562 0.296875 -7.453125 0.296875 -7.546875 C 0.296875 -7.648438 0.328125 -7.734375 0.390625 -7.796875 C 0.460938 -7.859375 0.550781 -7.890625 0.65625 -7.890625 Z M 0.65625 -7.890625 "/></g></g></g><g fill="#2b2b2b" fill-opacity="1"><g transform="translate(249.883029, 272.710324)"><g><path d="M 1.8125 -6.8125 C 1.957031 -7.175781 2.085938 -7.445312 2.203125 -7.625 C 2.316406 -7.800781 2.429688 -7.890625 2.546875 -7.890625 C 2.585938 -7.890625 2.75 -7.878906 3.03125 -7.859375 C 3.3125 -7.835938 3.597656 -7.828125 3.890625 -7.828125 C 4.117188 -7.828125 4.523438 -7.847656 5.109375 -7.890625 C 5.222656 -7.890625 5.332031 -7.804688 5.4375 -7.640625 C 5.539062 -7.472656 5.664062 -7.207031 5.8125 -6.84375 C 6.164062 -5.96875 6.460938 -5.023438 6.703125 -4.015625 C 6.953125 -3.015625 7.144531 -2.082031 7.28125 -1.21875 C 7.3125 -1.050781 7.34375 -0.925781 7.375 -0.84375 C 7.414062 -0.757812 7.46875 -0.675781 7.53125 -0.59375 C 7.5625 -0.539062 7.585938 -0.492188 7.609375 -0.453125 C 7.628906 -0.410156 7.640625 -0.359375 7.640625 -0.296875 C 7.640625 -0.179688 7.609375 -0.0859375 7.546875 -0.015625 C 7.492188 0.046875 7.414062 0.078125 7.3125 0.078125 C 7.28125 0.078125 7.113281 0.0625 6.8125 0.03125 C 6.507812 0.0078125 6.226562 0 5.96875 0 C 5.625 0 5.347656 0.0078125 5.140625 0.03125 C 4.929688 0.0625 4.800781 0.078125 4.75 0.078125 C 4.644531 0.078125 4.554688 0.0390625 4.484375 -0.03125 C 4.421875 -0.101562 4.390625 -0.195312 4.390625 -0.3125 C 4.390625 -0.382812 4.421875 -0.46875 4.484375 -0.5625 C 4.566406 -0.695312 4.609375 -0.828125 4.609375 -0.953125 C 4.609375 -1.171875 4.566406 -1.320312 4.484375 -1.40625 C 4.410156 -1.5 4.28125 -1.546875 4.09375 -1.546875 L 3 -1.546875 C 2.78125 -1.546875 2.632812 -1.492188 2.5625 -1.390625 C 2.5 -1.296875 2.46875 -1.144531 2.46875 -0.9375 C 2.46875 -0.8125 2.503906 -0.695312 2.578125 -0.59375 C 2.585938 -0.582031 2.601562 -0.546875 2.625 -0.484375 C 2.65625 -0.429688 2.671875 -0.367188 2.671875 -0.296875 C 2.671875 -0.203125 2.644531 -0.113281 2.59375 -0.03125 C 2.539062 0.0390625 2.46875 0.078125 2.375 0.078125 C 2.28125 0.078125 2.140625 0.0625 1.953125 0.03125 C 1.773438 0.0078125 1.585938 0 1.390625 0 C 1.085938 0 0.78125 0.015625 0.46875 0.046875 L 0.265625 0.078125 C 0.160156 0.078125 0.078125 0.0390625 0.015625 -0.03125 C -0.046875 -0.101562 -0.078125 -0.191406 -0.078125 -0.296875 C -0.078125 -0.347656 -0.0664062 -0.398438 -0.046875 -0.453125 C -0.0234375 -0.503906 0.0234375 -0.582031 0.109375 -0.6875 C 0.160156 -0.75 0.203125 -0.832031 0.234375 -0.9375 C 0.273438 -1.050781 0.328125 -1.300781 0.390625 -1.6875 C 0.472656 -2.226562 0.644531 -3.007812 0.90625 -4.03125 C 1.175781 -5.0625 1.476562 -5.988281 1.8125 -6.8125 Z M 3.265625 -5.234375 C 3.003906 -4.515625 2.875 -4.003906 2.875 -3.703125 C 2.875 -3.609375 2.898438 -3.539062 2.953125 -3.5 C 3.003906 -3.457031 3.097656 -3.4375 3.234375 -3.4375 L 3.890625 -3.4375 C 4.109375 -3.4375 4.21875 -3.523438 4.21875 -3.703125 C 4.21875 -3.878906 4.175781 -4.125 4.09375 -4.4375 C 4.007812 -4.757812 3.957031 -4.945312 3.9375 -5 C 3.78125 -5.488281 3.65625 -5.734375 3.5625 -5.734375 C 3.507812 -5.734375 3.460938 -5.695312 3.421875 -5.625 C 3.378906 -5.5625 3.328125 -5.429688 3.265625 -5.234375 Z M 3.265625 -5.234375 "/></g></g></g><g clip-path="url(#381e9044ca)"><path fill="#2b2b2b" d="M 180.589844 171.867188 L 197.226562 171.867188 C 198.875 171.867188 200.25 170.492188 200.25 168.839844 C 200.25 167.191406 198.875 165.816406 197.226562 165.816406 L 167.117188 165.816406 C 165.46875 165.816406 164.09375 164.441406 164.09375 162.792969 C 164.09375 161.140625 165.46875 159.769531 167.117188 159.769531 L 177.359375 159.769531 C 179.011719 159.769531 180.386719 158.394531 180.386719 156.742188 C 180.386719 155.09375 179.011719 153.71875 177.359375 153.71875 L 157.082031 153.71875 C 155.433594 153.71875 154.058594 152.34375 154.058594 150.695312 C 154.058594 149.042969 155.433594 147.667969 157.082031 147.667969 L 169.386719 147.667969 C 171.035156 147.667969 172.410156 146.296875 172.410156 144.644531 C 172.410156 142.996094 171.035156 141.621094 169.386719 141.621094 L 146.292969 141.621094 C 144.640625 141.621094 143.265625 140.246094 143.265625 138.597656 C 143.265625 136.945312 144.640625 135.570312 146.292969 135.570312 L 157.769531 135.570312 C 159.351562 135.433594 160.589844 134.199219 160.589844 132.617188 C 160.589844 131.171875 159.488281 129.9375 158.113281 129.660156 L 151.929688 129.660156 C 150.277344 129.660156 148.902344 128.285156 148.902344 126.636719 C 148.902344 124.988281 150.277344 123.613281 151.929688 123.613281 L 161 123.613281 C 161.277344 123.613281 161.484375 123.613281 161.6875 123.679688 L 163.957031 123.679688 C 165.605469 123.679688 166.980469 122.304688 166.980469 120.65625 C 166.980469 119.007812 165.605469 117.632812 163.957031 117.632812 L 153.164062 117.632812 C 153.027344 117.632812 152.820312 117.699219 152.683594 117.699219 L 135.914062 117.699219 C 134.261719 117.699219 132.886719 116.324219 132.886719 114.675781 C 132.886719 113.027344 134.261719 111.652344 135.914062 111.652344 L 146.773438 111.652344 C 148.421875 111.652344 149.796875 110.277344 149.796875 108.628906 C 149.796875 107.183594 148.699219 105.945312 147.324219 105.671875 L 139.96875 105.671875 C 138.316406 105.671875 136.941406 104.296875 136.941406 102.648438 C 136.941406 100.996094 138.316406 99.621094 139.96875 99.621094 L 163.820312 99.621094 C 165.746094 99.621094 167.460938 100.585938 168.425781 102.234375 L 191.726562 141.414062 C 192.6875 143.066406 194.40625 144.027344 196.332031 144.027344 C 198.257812 144.027344 199.90625 143.132812 200.9375 141.414062 L 224.722656 102.164062 C 225.75 100.515625 227.402344 99.554688 229.328125 99.554688 L 247.335938 99.554688 C 249.328125 99.554688 251.046875 100.585938 252.007812 102.304688 C 252.972656 104.089844 252.902344 106.082031 251.804688 107.734375 L 210.5625 172.347656 C 210.011719 173.238281 209.734375 174.132812 209.734375 175.234375 L 209.734375 217.4375 C 209.734375 220.394531 207.332031 222.800781 204.375 222.800781 L 180.179688 222.800781 C 180.109375 222.59375 180.109375 222.320312 180.109375 222.042969 C 180.109375 220.460938 181.277344 219.226562 182.792969 219.089844 L 185.472656 219.089844 C 187.121094 219.089844 188.496094 217.714844 188.496094 216.0625 C 188.496094 214.414062 187.121094 213.039062 185.472656 213.039062 L 164.917969 213.039062 C 163.269531 213.039062 161.894531 211.664062 161.894531 210.015625 C 161.894531 208.363281 163.269531 206.992188 164.917969 206.992188 L 182.515625 206.992188 C 184.097656 206.921875 185.472656 205.617188 185.472656 203.964844 C 185.472656 202.316406 184.164062 201.011719 182.515625 200.941406 L 182.035156 200.941406 C 180.386719 200.941406 179.011719 199.566406 179.011719 197.917969 C 179.011719 196.265625 180.386719 194.890625 182.035156 194.890625 L 190.902344 194.890625 C 192.550781 194.890625 193.925781 193.519531 193.925781 191.867188 C 193.925781 190.21875 192.550781 188.84375 190.902344 188.84375 L 178.390625 188.84375 C 176.742188 188.84375 175.367188 187.46875 175.367188 185.820312 C 175.367188 184.167969 176.742188 182.792969 178.390625 182.792969 L 186.433594 182.792969 C 188.082031 182.792969 189.457031 181.421875 189.457031 179.769531 C 189.457031 178.121094 188.082031 176.746094 186.433594 176.746094 L 173.992188 176.746094 C 172.34375 176.746094 170.96875 175.371094 170.96875 173.722656 C 170.96875 172.070312 172.34375 170.695312 173.992188 170.695312 L 180.589844 170.695312 Z M 139.96875 147.945312 L 148.492188 147.945312 C 150.140625 147.945312 151.515625 149.320312 151.515625 150.96875 C 151.515625 152.617188 150.140625 153.992188 148.492188 153.992188 L 139.96875 153.992188 C 138.316406 153.992188 136.941406 152.617188 136.941406 150.96875 C 137.011719 149.25 138.316406 147.945312 139.96875 147.945312 Z M 125.050781 112.203125 L 128.902344 112.203125 C 130.550781 112.203125 131.925781 113.578125 131.925781 115.226562 C 131.925781 116.875 130.550781 118.25 128.902344 118.25 L 125.050781 118.25 C 123.402344 118.25 122.027344 116.875 122.027344 115.226562 C 122.027344 113.507812 123.402344 112.203125 125.050781 112.203125 Z M 159.902344 171.867188 L 163.75 171.867188 C 165.402344 171.867188 166.773438 173.238281 166.773438 174.890625 C 166.773438 176.539062 165.402344 177.914062 163.75 177.914062 L 159.902344 177.914062 C 158.25 177.914062 156.878906 176.539062 156.878906 174.890625 C 156.945312 173.238281 158.25 171.867188 159.902344 171.867188 Z M 157.90625 183.824219 L 169.730469 183.824219 C 171.378906 183.824219 172.753906 185.199219 172.753906 186.851562 C 172.753906 188.5 171.378906 189.875 169.730469 189.875 L 157.90625 189.875 C 156.257812 189.875 154.882812 188.5 154.882812 186.851562 C 154.953125 185.199219 156.257812 183.824219 157.90625 183.824219 Z M 151.996094 159.90625 L 156.878906 159.90625 C 158.527344 159.90625 159.902344 161.28125 159.902344 162.929688 C 159.902344 164.578125 158.527344 165.953125 156.878906 165.953125 L 151.996094 165.953125 C 150.347656 165.953125 148.972656 164.578125 148.972656 162.929688 C 148.972656 161.28125 150.347656 159.90625 151.996094 159.90625 Z M 169.59375 195.855469 L 173.441406 195.855469 C 175.09375 195.855469 176.46875 197.230469 176.46875 198.878906 C 176.46875 200.527344 175.09375 201.902344 173.441406 201.902344 L 169.59375 201.902344 C 167.945312 201.902344 166.570312 200.527344 166.570312 198.878906 C 166.570312 197.160156 167.945312 195.855469 169.59375 195.855469 Z M 133.4375 171.867188 L 149.523438 171.867188 C 151.171875 171.867188 152.546875 173.238281 152.546875 174.890625 C 152.546875 176.539062 151.171875 177.914062 149.523438 177.914062 L 133.4375 177.914062 C 131.789062 177.914062 130.414062 176.539062 130.414062 174.890625 C 130.480469 173.238281 131.789062 171.867188 133.4375 171.867188 Z M 133.4375 171.867188 " fill-opacity="1" fill-rule="evenodd"/></g></svg>