<svg xmlns="http://www.w3.org/2000/svg" xmlns:xlink="http://www.w3.org/1999/xlink" width="100" zoomAndPan="magnify" viewBox="0 0 75 37.5" height="50" preserveAspectRatio="xMidYMid meet" version="1.0"><defs><g/><clipPath id="6ba7af3db6"><path d="M 0.492188 0 L 39.71875 0 L 39.71875 37 L 0.492188 37 Z M 0.492188 0 " clip-rule="nonzero"/></clipPath></defs><g fill="#ffffff" fill-opacity="1"><g transform="translate(34.559622, 21.260829)"><g><path d="M 0.09375 -3.671875 C 0.125 -3.671875 0.195312 -3.664062 0.3125 -3.65625 C 0.4375 -3.644531 0.566406 -3.640625 0.703125 -3.640625 C 0.847656 -3.640625 0.976562 -3.644531 1.09375 -3.65625 C 1.207031 -3.664062 1.285156 -3.671875 1.328125 -3.671875 C 1.378906 -3.671875 1.414062 -3.65625 1.4375 -3.625 C 1.46875 -3.59375 1.484375 -3.554688 1.484375 -3.515625 C 1.484375 -3.472656 1.472656 -3.425781 1.453125 -3.375 C 1.429688 -3.34375 1.414062 -3.3125 1.40625 -3.28125 C 1.394531 -3.257812 1.390625 -3.226562 1.390625 -3.1875 C 1.390625 -3.09375 1.40625 -2.957031 1.4375 -2.78125 C 1.476562 -2.613281 1.519531 -2.460938 1.5625 -2.328125 C 1.613281 -2.203125 1.660156 -2.140625 1.703125 -2.140625 C 1.742188 -2.140625 1.785156 -2.207031 1.828125 -2.34375 C 1.878906 -2.488281 1.921875 -2.648438 1.953125 -2.828125 C 1.984375 -3.003906 2 -3.128906 2 -3.203125 C 2 -3.234375 1.992188 -3.257812 1.984375 -3.28125 C 1.972656 -3.3125 1.960938 -3.335938 1.953125 -3.359375 C 1.921875 -3.410156 1.90625 -3.457031 1.90625 -3.5 C 1.90625 -3.550781 1.921875 -3.59375 1.953125 -3.625 C 1.984375 -3.65625 2.019531 -3.671875 2.0625 -3.671875 C 2.289062 -3.648438 2.488281 -3.640625 2.65625 -3.640625 C 2.769531 -3.640625 2.910156 -3.648438 3.078125 -3.671875 C 3.117188 -3.671875 3.148438 -3.65625 3.171875 -3.625 C 3.203125 -3.59375 3.21875 -3.554688 3.21875 -3.515625 C 3.21875 -3.472656 3.191406 -3.410156 3.140625 -3.328125 C 3.128906 -3.304688 3.113281 -3.238281 3.09375 -3.125 C 3.050781 -2.820312 2.984375 -2.523438 2.890625 -2.234375 C 2.796875 -1.953125 2.632812 -1.675781 2.40625 -1.40625 C 2.375 -1.375 2.332031 -1.332031 2.28125 -1.28125 C 2.226562 -1.226562 2.191406 -1.1875 2.171875 -1.15625 C 2.160156 -1.132812 2.15625 -1.101562 2.15625 -1.0625 L 2.15625 -0.546875 C 2.15625 -0.472656 2.160156 -0.414062 2.171875 -0.375 C 2.191406 -0.332031 2.210938 -0.296875 2.234375 -0.265625 C 2.265625 -0.222656 2.28125 -0.179688 2.28125 -0.140625 C 2.28125 -0.0859375 2.265625 -0.046875 2.234375 -0.015625 C 2.203125 0.015625 2.164062 0.03125 2.125 0.03125 C 2.09375 0.03125 2.019531 0.0234375 1.90625 0.015625 C 1.789062 0.00390625 1.675781 0 1.5625 0 C 1.414062 0 1.285156 0.00390625 1.171875 0.015625 C 1.066406 0.0234375 1.007812 0.03125 1 0.03125 C 0.945312 0.03125 0.90625 0.015625 0.875 -0.015625 C 0.84375 -0.046875 0.828125 -0.0859375 0.828125 -0.140625 C 0.828125 -0.179688 0.84375 -0.222656 0.875 -0.265625 C 0.894531 -0.304688 0.910156 -0.34375 0.921875 -0.375 C 0.929688 -0.414062 0.9375 -0.46875 0.9375 -0.53125 L 0.9375 -1.046875 C 0.9375 -1.097656 0.925781 -1.140625 0.90625 -1.171875 C 0.882812 -1.203125 0.832031 -1.265625 0.75 -1.359375 C 0.53125 -1.597656 0.367188 -1.875 0.265625 -2.1875 C 0.160156 -2.507812 0.0859375 -2.847656 0.046875 -3.203125 C 0.0351562 -3.242188 0.015625 -3.300781 -0.015625 -3.375 C -0.046875 -3.425781 -0.0625 -3.472656 -0.0625 -3.515625 C -0.0625 -3.554688 -0.046875 -3.59375 -0.015625 -3.625 C 0.00390625 -3.65625 0.0390625 -3.671875 0.09375 -3.671875 Z M 0.09375 -3.671875 "/></g></g></g><g fill="#ffffff" fill-opacity="1"><g transform="translate(38.600247, 21.260829)"><g><path d="M 0.3125 -3.671875 C 0.332031 -3.671875 0.378906 -3.664062 0.453125 -3.65625 C 0.671875 -3.644531 0.992188 -3.640625 1.421875 -3.640625 C 1.785156 -3.640625 2.125 -3.648438 2.4375 -3.671875 C 2.476562 -3.671875 2.515625 -3.671875 2.546875 -3.671875 C 2.609375 -3.671875 2.648438 -3.648438 2.671875 -3.609375 C 2.703125 -3.578125 2.726562 -3.507812 2.75 -3.40625 C 2.757812 -3.207031 2.785156 -3.046875 2.828125 -2.921875 C 2.835938 -2.867188 2.84375 -2.832031 2.84375 -2.8125 C 2.84375 -2.78125 2.828125 -2.75 2.796875 -2.71875 C 2.765625 -2.695312 2.726562 -2.6875 2.6875 -2.6875 C 2.664062 -2.6875 2.640625 -2.6875 2.609375 -2.6875 C 2.585938 -2.695312 2.570312 -2.707031 2.5625 -2.71875 C 2.363281 -2.78125 2.132812 -2.8125 1.875 -2.8125 L 1.5625 -2.8125 C 1.5 -2.8125 1.457031 -2.796875 1.4375 -2.765625 C 1.425781 -2.742188 1.421875 -2.707031 1.421875 -2.65625 L 1.421875 -2.40625 C 1.421875 -2.351562 1.429688 -2.316406 1.453125 -2.296875 C 1.484375 -2.285156 1.535156 -2.28125 1.609375 -2.28125 L 1.984375 -2.28125 C 2.097656 -2.28125 2.203125 -2.296875 2.296875 -2.328125 C 2.398438 -2.359375 2.460938 -2.375 2.484375 -2.375 C 2.535156 -2.375 2.570312 -2.359375 2.59375 -2.328125 C 2.625 -2.296875 2.640625 -2.253906 2.640625 -2.203125 C 2.640625 -2.171875 2.632812 -2.113281 2.625 -2.03125 C 2.613281 -1.957031 2.609375 -1.90625 2.609375 -1.875 L 2.640625 -1.546875 C 2.640625 -1.503906 2.625 -1.46875 2.59375 -1.4375 C 2.5625 -1.40625 2.519531 -1.390625 2.46875 -1.390625 C 2.445312 -1.390625 2.40625 -1.398438 2.34375 -1.421875 C 2.28125 -1.441406 2.222656 -1.457031 2.171875 -1.46875 C 2.128906 -1.476562 2.0625 -1.484375 1.96875 -1.484375 L 1.578125 -1.484375 C 1.523438 -1.484375 1.484375 -1.472656 1.453125 -1.453125 C 1.429688 -1.429688 1.421875 -1.394531 1.421875 -1.34375 L 1.421875 -1.078125 C 1.421875 -1.023438 1.429688 -0.988281 1.453125 -0.96875 C 1.472656 -0.945312 1.507812 -0.9375 1.5625 -0.9375 C 1.675781 -0.9375 1.789062 -0.9375 1.90625 -0.9375 C 2.082031 -0.9375 2.226562 -0.945312 2.34375 -0.96875 C 2.457031 -0.988281 2.5625 -1.015625 2.65625 -1.046875 C 2.707031 -1.066406 2.742188 -1.078125 2.765625 -1.078125 C 2.804688 -1.078125 2.84375 -1.0625 2.875 -1.03125 C 2.90625 -1 2.921875 -0.96875 2.921875 -0.9375 C 2.921875 -0.894531 2.90625 -0.828125 2.875 -0.734375 C 2.863281 -0.671875 2.84375 -0.570312 2.8125 -0.4375 C 2.789062 -0.3125 2.78125 -0.234375 2.78125 -0.203125 C 2.78125 -0.117188 2.765625 -0.0546875 2.734375 -0.015625 C 2.710938 0.015625 2.671875 0.03125 2.609375 0.03125 L 2.375 0.015625 C 1.945312 0.00390625 1.582031 0 1.28125 0 C 0.925781 0 0.679688 0.00390625 0.546875 0.015625 C 0.410156 0.0234375 0.328125 0.03125 0.296875 0.03125 C 0.242188 0.03125 0.203125 0.015625 0.171875 -0.015625 C 0.148438 -0.046875 0.140625 -0.0859375 0.140625 -0.140625 C 0.140625 -0.160156 0.140625 -0.179688 0.140625 -0.203125 C 0.148438 -0.222656 0.164062 -0.242188 0.1875 -0.265625 C 0.207031 -0.296875 0.222656 -0.332031 0.234375 -0.375 C 0.242188 -0.414062 0.25 -0.46875 0.25 -0.53125 L 0.25 -3.109375 C 0.25 -3.179688 0.242188 -3.234375 0.234375 -3.265625 C 0.222656 -3.296875 0.207031 -3.328125 0.1875 -3.359375 C 0.164062 -3.390625 0.148438 -3.414062 0.140625 -3.4375 C 0.140625 -3.457031 0.140625 -3.484375 0.140625 -3.515625 C 0.140625 -3.554688 0.15625 -3.59375 0.1875 -3.625 C 0.21875 -3.65625 0.257812 -3.671875 0.3125 -3.671875 Z M 0.3125 -3.671875 "/></g></g></g><g fill="#ffffff" fill-opacity="1"><g transform="translate(42.468245, 21.260829)"><g><path d="M 0.125 -3.671875 C 0.445312 -3.648438 0.664062 -3.640625 0.78125 -3.640625 C 0.875 -3.640625 1.050781 -3.648438 1.3125 -3.671875 C 1.363281 -3.671875 1.398438 -3.65625 1.421875 -3.625 C 1.453125 -3.59375 1.46875 -3.554688 1.46875 -3.515625 C 1.46875 -3.484375 1.457031 -3.4375 1.4375 -3.375 C 1.425781 -3.351562 1.414062 -3.328125 1.40625 -3.296875 C 1.394531 -3.265625 1.390625 -3.226562 1.390625 -3.1875 C 1.390625 -3.101562 1.398438 -2.957031 1.421875 -2.75 C 1.453125 -2.539062 1.484375 -2.34375 1.515625 -2.15625 C 1.546875 -1.957031 1.570312 -1.8125 1.59375 -1.71875 C 1.625 -1.625 1.644531 -1.566406 1.65625 -1.546875 C 1.675781 -1.523438 1.691406 -1.515625 1.703125 -1.515625 C 1.753906 -1.515625 1.800781 -1.632812 1.84375 -1.875 C 1.882812 -2.125 1.921875 -2.390625 1.953125 -2.671875 C 1.984375 -2.960938 2 -3.144531 2 -3.21875 C 2 -3.25 1.988281 -3.273438 1.96875 -3.296875 C 1.957031 -3.328125 1.953125 -3.347656 1.953125 -3.359375 C 1.921875 -3.410156 1.90625 -3.457031 1.90625 -3.5 C 1.90625 -3.539062 1.914062 -3.578125 1.9375 -3.609375 C 1.96875 -3.648438 2.007812 -3.671875 2.0625 -3.671875 C 2.289062 -3.648438 2.46875 -3.640625 2.59375 -3.640625 C 2.644531 -3.640625 2.71875 -3.644531 2.8125 -3.65625 C 2.914062 -3.664062 2.992188 -3.671875 3.046875 -3.671875 C 3.097656 -3.671875 3.132812 -3.65625 3.15625 -3.625 C 3.1875 -3.59375 3.203125 -3.550781 3.203125 -3.5 C 3.203125 -3.476562 3.195312 -3.457031 3.1875 -3.4375 C 3.175781 -3.414062 3.160156 -3.390625 3.140625 -3.359375 C 3.128906 -3.359375 3.113281 -3.34375 3.09375 -3.3125 C 3.082031 -3.289062 3.066406 -3.226562 3.046875 -3.125 C 3.023438 -3.03125 3.003906 -2.898438 2.984375 -2.734375 C 2.953125 -2.484375 2.882812 -2.148438 2.78125 -1.734375 C 2.6875 -1.328125 2.59375 -0.972656 2.5 -0.671875 C 2.425781 -0.453125 2.363281 -0.289062 2.3125 -0.1875 C 2.257812 -0.0820312 2.21875 -0.0195312 2.1875 0 C 2.15625 0.0195312 2.113281 0.03125 2.0625 0.03125 C 1.84375 0.0078125 1.6875 0 1.59375 0 C 1.5 0 1.40625 0.00390625 1.3125 0.015625 C 1.21875 0.0234375 1.132812 0.03125 1.0625 0.03125 C 0.988281 0.03125 0.914062 -0.046875 0.84375 -0.203125 C 0.769531 -0.359375 0.6875 -0.582031 0.59375 -0.875 C 0.476562 -1.25 0.375 -1.644531 0.28125 -2.0625 C 0.195312 -2.476562 0.144531 -2.78125 0.125 -2.96875 C 0.101562 -3.132812 0.0625 -3.269531 0 -3.375 C -0.0078125 -3.394531 -0.0195312 -3.414062 -0.03125 -3.4375 C -0.0390625 -3.457031 -0.046875 -3.476562 -0.046875 -3.5 C -0.046875 -3.550781 -0.03125 -3.59375 0 -3.625 C 0.03125 -3.65625 0.0703125 -3.671875 0.125 -3.671875 Z M 0.125 -3.671875 "/></g></g></g><g fill="#ffffff" fill-opacity="1"><g transform="translate(46.518201, 21.260829)"><g><path d="M 0.296875 -3.671875 C 0.359375 -3.671875 0.441406 -3.664062 0.546875 -3.65625 C 0.648438 -3.644531 0.742188 -3.640625 0.828125 -3.640625 C 0.898438 -3.640625 0.992188 -3.644531 1.109375 -3.65625 C 1.222656 -3.664062 1.304688 -3.671875 1.359375 -3.671875 C 1.410156 -3.671875 1.453125 -3.65625 1.484375 -3.625 C 1.515625 -3.59375 1.53125 -3.550781 1.53125 -3.5 C 1.53125 -3.445312 1.515625 -3.40625 1.484375 -3.375 C 1.460938 -3.34375 1.445312 -3.304688 1.4375 -3.265625 C 1.425781 -3.222656 1.421875 -3.15625 1.421875 -3.0625 L 1.421875 -2.515625 C 1.421875 -2.441406 1.429688 -2.390625 1.453125 -2.359375 C 1.472656 -2.335938 1.519531 -2.328125 1.59375 -2.328125 L 1.84375 -2.328125 C 1.914062 -2.328125 1.960938 -2.34375 1.984375 -2.375 C 2.003906 -2.40625 2.015625 -2.457031 2.015625 -2.53125 L 2.015625 -3.109375 C 2.015625 -3.179688 2.003906 -3.234375 1.984375 -3.265625 C 1.972656 -3.304688 1.957031 -3.34375 1.9375 -3.375 C 1.90625 -3.425781 1.890625 -3.472656 1.890625 -3.515625 C 1.890625 -3.554688 1.90625 -3.59375 1.9375 -3.625 C 1.96875 -3.65625 2.007812 -3.671875 2.0625 -3.671875 C 2.3125 -3.648438 2.484375 -3.640625 2.578125 -3.640625 C 2.660156 -3.640625 2.757812 -3.644531 2.875 -3.65625 C 3 -3.664062 3.082031 -3.671875 3.125 -3.671875 C 3.175781 -3.671875 3.210938 -3.65625 3.234375 -3.625 C 3.265625 -3.59375 3.28125 -3.554688 3.28125 -3.515625 C 3.28125 -3.460938 3.269531 -3.414062 3.25 -3.375 C 3.21875 -3.34375 3.195312 -3.304688 3.1875 -3.265625 C 3.175781 -3.234375 3.171875 -3.191406 3.171875 -3.140625 L 3.171875 -0.53125 C 3.171875 -0.457031 3.175781 -0.398438 3.1875 -0.359375 C 3.207031 -0.328125 3.226562 -0.289062 3.25 -0.25 C 3.257812 -0.238281 3.265625 -0.222656 3.265625 -0.203125 C 3.273438 -0.179688 3.28125 -0.160156 3.28125 -0.140625 C 3.28125 -0.0859375 3.265625 -0.046875 3.234375 -0.015625 C 3.210938 0.015625 3.175781 0.03125 3.125 0.03125 C 2.894531 0.0078125 2.703125 0 2.546875 0 C 2.398438 0 2.285156 0.00390625 2.203125 0.015625 C 2.117188 0.0234375 2.066406 0.03125 2.046875 0.03125 C 2.003906 0.03125 1.96875 0.015625 1.9375 -0.015625 C 1.90625 -0.046875 1.890625 -0.0859375 1.890625 -0.140625 C 1.890625 -0.179688 1.910156 -0.226562 1.953125 -0.28125 C 1.984375 -0.332031 2 -0.382812 2 -0.4375 C 2.007812 -0.539062 2.015625 -0.769531 2.015625 -1.125 C 2.015625 -1.226562 2.003906 -1.296875 1.984375 -1.328125 C 1.960938 -1.359375 1.914062 -1.375 1.84375 -1.375 L 1.578125 -1.375 C 1.503906 -1.375 1.457031 -1.359375 1.4375 -1.328125 C 1.425781 -1.296875 1.421875 -1.242188 1.421875 -1.171875 L 1.421875 -0.53125 C 1.421875 -0.46875 1.425781 -0.414062 1.4375 -0.375 C 1.445312 -0.332031 1.460938 -0.296875 1.484375 -0.265625 C 1.515625 -0.222656 1.53125 -0.179688 1.53125 -0.140625 C 1.53125 -0.0859375 1.515625 -0.046875 1.484375 -0.015625 C 1.453125 0.015625 1.414062 0.03125 1.375 0.03125 C 1.351562 0.03125 1.285156 0.0234375 1.171875 0.015625 C 1.054688 0.00390625 0.953125 0 0.859375 0 C 0.734375 0 0.546875 0.0078125 0.296875 0.03125 C 0.242188 0.03125 0.203125 0.015625 0.171875 -0.015625 C 0.148438 -0.046875 0.140625 -0.0859375 0.140625 -0.140625 C 0.140625 -0.171875 0.15625 -0.210938 0.1875 -0.265625 C 0.207031 -0.304688 0.222656 -0.34375 0.234375 -0.375 C 0.242188 -0.414062 0.25 -0.460938 0.25 -0.515625 L 0.25 -3.125 C 0.25 -3.1875 0.242188 -3.234375 0.234375 -3.265625 C 0.222656 -3.296875 0.207031 -3.328125 0.1875 -3.359375 C 0.164062 -3.390625 0.148438 -3.410156 0.140625 -3.421875 C 0.140625 -3.441406 0.140625 -3.472656 0.140625 -3.515625 C 0.140625 -3.566406 0.15625 -3.601562 0.1875 -3.625 C 0.21875 -3.65625 0.253906 -3.671875 0.296875 -3.671875 Z M 0.296875 -3.671875 "/></g></g></g><g fill="#ffffff" fill-opacity="1"><g transform="translate(50.834095, 21.260829)"><g><path d="M 0.3125 -3.671875 C 0.332031 -3.671875 0.378906 -3.664062 0.453125 -3.65625 C 0.671875 -3.644531 0.992188 -3.640625 1.421875 -3.640625 C 1.785156 -3.640625 2.125 -3.648438 2.4375 -3.671875 C 2.476562 -3.671875 2.515625 -3.671875 2.546875 -3.671875 C 2.609375 -3.671875 2.648438 -3.648438 2.671875 -3.609375 C 2.703125 -3.578125 2.726562 -3.507812 2.75 -3.40625 C 2.757812 -3.207031 2.785156 -3.046875 2.828125 -2.921875 C 2.835938 -2.867188 2.84375 -2.832031 2.84375 -2.8125 C 2.84375 -2.78125 2.828125 -2.75 2.796875 -2.71875 C 2.765625 -2.695312 2.726562 -2.6875 2.6875 -2.6875 C 2.664062 -2.6875 2.640625 -2.6875 2.609375 -2.6875 C 2.585938 -2.695312 2.570312 -2.707031 2.5625 -2.71875 C 2.363281 -2.78125 2.132812 -2.8125 1.875 -2.8125 L 1.5625 -2.8125 C 1.5 -2.8125 1.457031 -2.796875 1.4375 -2.765625 C 1.425781 -2.742188 1.421875 -2.707031 1.421875 -2.65625 L 1.421875 -2.40625 C 1.421875 -2.351562 1.429688 -2.316406 1.453125 -2.296875 C 1.484375 -2.285156 1.535156 -2.28125 1.609375 -2.28125 L 1.984375 -2.28125 C 2.097656 -2.28125 2.203125 -2.296875 2.296875 -2.328125 C 2.398438 -2.359375 2.460938 -2.375 2.484375 -2.375 C 2.535156 -2.375 2.570312 -2.359375 2.59375 -2.328125 C 2.625 -2.296875 2.640625 -2.253906 2.640625 -2.203125 C 2.640625 -2.171875 2.632812 -2.113281 2.625 -2.03125 C 2.613281 -1.957031 2.609375 -1.90625 2.609375 -1.875 L 2.640625 -1.546875 C 2.640625 -1.503906 2.625 -1.46875 2.59375 -1.4375 C 2.5625 -1.40625 2.519531 -1.390625 2.46875 -1.390625 C 2.445312 -1.390625 2.40625 -1.398438 2.34375 -1.421875 C 2.28125 -1.441406 2.222656 -1.457031 2.171875 -1.46875 C 2.128906 -1.476562 2.0625 -1.484375 1.96875 -1.484375 L 1.578125 -1.484375 C 1.523438 -1.484375 1.484375 -1.472656 1.453125 -1.453125 C 1.429688 -1.429688 1.421875 -1.394531 1.421875 -1.34375 L 1.421875 -1.078125 C 1.421875 -1.023438 1.429688 -0.988281 1.453125 -0.96875 C 1.472656 -0.945312 1.507812 -0.9375 1.5625 -0.9375 C 1.675781 -0.9375 1.789062 -0.9375 1.90625 -0.9375 C 2.082031 -0.9375 2.226562 -0.945312 2.34375 -0.96875 C 2.457031 -0.988281 2.5625 -1.015625 2.65625 -1.046875 C 2.707031 -1.066406 2.742188 -1.078125 2.765625 -1.078125 C 2.804688 -1.078125 2.84375 -1.0625 2.875 -1.03125 C 2.90625 -1 2.921875 -0.96875 2.921875 -0.9375 C 2.921875 -0.894531 2.90625 -0.828125 2.875 -0.734375 C 2.863281 -0.671875 2.84375 -0.570312 2.8125 -0.4375 C 2.789062 -0.3125 2.78125 -0.234375 2.78125 -0.203125 C 2.78125 -0.117188 2.765625 -0.0546875 2.734375 -0.015625 C 2.710938 0.015625 2.671875 0.03125 2.609375 0.03125 L 2.375 0.015625 C 1.945312 0.00390625 1.582031 0 1.28125 0 C 0.925781 0 0.679688 0.00390625 0.546875 0.015625 C 0.410156 0.0234375 0.328125 0.03125 0.296875 0.03125 C 0.242188 0.03125 0.203125 0.015625 0.171875 -0.015625 C 0.148438 -0.046875 0.140625 -0.0859375 0.140625 -0.140625 C 0.140625 -0.160156 0.140625 -0.179688 0.140625 -0.203125 C 0.148438 -0.222656 0.164062 -0.242188 0.1875 -0.265625 C 0.207031 -0.296875 0.222656 -0.332031 0.234375 -0.375 C 0.242188 -0.414062 0.25 -0.46875 0.25 -0.53125 L 0.25 -3.109375 C 0.25 -3.179688 0.242188 -3.234375 0.234375 -3.265625 C 0.222656 -3.296875 0.207031 -3.328125 0.1875 -3.359375 C 0.164062 -3.390625 0.148438 -3.414062 0.140625 -3.4375 C 0.140625 -3.457031 0.140625 -3.484375 0.140625 -3.515625 C 0.140625 -3.554688 0.15625 -3.59375 0.1875 -3.625 C 0.21875 -3.65625 0.257812 -3.671875 0.3125 -3.671875 Z M 0.3125 -3.671875 "/></g></g></g><g fill="#ffffff" fill-opacity="1"><g transform="translate(54.702092, 21.260829)"><g><path d="M 0.296875 -3.671875 C 0.359375 -3.671875 0.410156 -3.664062 0.453125 -3.65625 C 0.503906 -3.65625 0.570312 -3.648438 0.65625 -3.640625 C 0.738281 -3.640625 0.816406 -3.640625 0.890625 -3.640625 C 0.984375 -3.640625 1.066406 -3.644531 1.140625 -3.65625 C 1.222656 -3.664062 1.28125 -3.671875 1.3125 -3.671875 C 1.363281 -3.671875 1.40625 -3.648438 1.4375 -3.609375 C 1.46875 -3.566406 1.503906 -3.507812 1.546875 -3.4375 L 2.25 -2.078125 C 2.28125 -2.003906 2.316406 -1.96875 2.359375 -1.96875 C 2.398438 -1.96875 2.421875 -1.992188 2.421875 -2.046875 C 2.421875 -2.078125 2.414062 -2.101562 2.40625 -2.125 C 2.40625 -2.15625 2.40625 -2.179688 2.40625 -2.203125 L 2.40625 -3.03125 C 2.40625 -3.132812 2.394531 -3.207031 2.375 -3.25 C 2.363281 -3.300781 2.347656 -3.347656 2.328125 -3.390625 C 2.316406 -3.410156 2.304688 -3.425781 2.296875 -3.4375 C 2.296875 -3.457031 2.296875 -3.484375 2.296875 -3.515625 C 2.296875 -3.554688 2.304688 -3.59375 2.328125 -3.625 C 2.359375 -3.65625 2.398438 -3.671875 2.453125 -3.671875 C 2.691406 -3.648438 2.835938 -3.640625 2.890625 -3.640625 C 2.953125 -3.640625 3.023438 -3.644531 3.109375 -3.65625 C 3.191406 -3.664062 3.257812 -3.671875 3.3125 -3.671875 C 3.363281 -3.671875 3.398438 -3.65625 3.421875 -3.625 C 3.453125 -3.59375 3.46875 -3.554688 3.46875 -3.515625 C 3.46875 -3.484375 3.460938 -3.457031 3.453125 -3.4375 C 3.453125 -3.425781 3.445312 -3.410156 3.4375 -3.390625 C 3.414062 -3.347656 3.394531 -3.304688 3.375 -3.265625 C 3.363281 -3.222656 3.359375 -3.164062 3.359375 -3.09375 L 3.359375 -0.5 C 3.359375 -0.4375 3.363281 -0.382812 3.375 -0.34375 C 3.394531 -0.3125 3.414062 -0.28125 3.4375 -0.25 C 3.457031 -0.207031 3.46875 -0.164062 3.46875 -0.125 C 3.46875 -0.0820312 3.453125 -0.046875 3.421875 -0.015625 C 3.398438 0.015625 3.363281 0.03125 3.3125 0.03125 C 3.257812 0.03125 3.210938 0.0234375 3.171875 0.015625 C 3.128906 0.015625 3.070312 0.0078125 3 0 C 2.9375 0 2.867188 0 2.796875 0 C 2.734375 0 2.566406 0.0078125 2.296875 0.03125 C 2.265625 0.03125 2.226562 0.015625 2.1875 -0.015625 C 2.144531 -0.046875 2.101562 -0.0976562 2.0625 -0.171875 L 1.359375 -1.578125 C 1.335938 -1.617188 1.316406 -1.644531 1.296875 -1.65625 C 1.285156 -1.675781 1.269531 -1.6875 1.25 -1.6875 C 1.21875 -1.6875 1.203125 -1.660156 1.203125 -1.609375 L 1.203125 -0.53125 C 1.203125 -0.46875 1.207031 -0.414062 1.21875 -0.375 C 1.226562 -0.34375 1.242188 -0.304688 1.265625 -0.265625 C 1.296875 -0.210938 1.3125 -0.164062 1.3125 -0.125 C 1.3125 -0.0820312 1.296875 -0.046875 1.265625 -0.015625 C 1.234375 0.015625 1.191406 0.03125 1.140625 0.03125 C 1.015625 0.0195312 0.914062 0.0078125 0.84375 0 C 0.78125 0 0.734375 0 0.703125 0 C 0.660156 0 0.582031 0.00390625 0.46875 0.015625 C 0.351562 0.0234375 0.296875 0.03125 0.296875 0.03125 C 0.242188 0.03125 0.203125 0.015625 0.171875 -0.015625 C 0.148438 -0.046875 0.140625 -0.0820312 0.140625 -0.125 C 0.140625 -0.164062 0.148438 -0.207031 0.171875 -0.25 C 0.203125 -0.289062 0.222656 -0.332031 0.234375 -0.375 C 0.242188 -0.414062 0.25 -0.472656 0.25 -0.546875 L 0.25 -3.109375 C 0.25 -3.171875 0.242188 -3.222656 0.234375 -3.265625 C 0.222656 -3.304688 0.207031 -3.34375 0.1875 -3.375 C 0.164062 -3.394531 0.148438 -3.414062 0.140625 -3.4375 C 0.140625 -3.457031 0.140625 -3.484375 0.140625 -3.515625 C 0.140625 -3.566406 0.148438 -3.601562 0.171875 -3.625 C 0.203125 -3.65625 0.242188 -3.671875 0.296875 -3.671875 Z M 0.296875 -3.671875 "/></g></g></g><g fill="#ffffff" fill-opacity="1"><g transform="translate(59.204609, 21.260829)"><g><path d="M 0.3125 -3.671875 C 0.375 -3.671875 0.445312 -3.664062 0.53125 -3.65625 C 0.613281 -3.644531 0.71875 -3.640625 0.84375 -3.640625 C 0.96875 -3.640625 1.164062 -3.648438 1.4375 -3.671875 C 1.488281 -3.671875 1.523438 -3.65625 1.546875 -3.625 C 1.578125 -3.59375 1.59375 -3.554688 1.59375 -3.515625 C 1.59375 -3.484375 1.585938 -3.457031 1.578125 -3.4375 C 1.566406 -3.414062 1.5625 -3.398438 1.5625 -3.390625 C 1.539062 -3.359375 1.519531 -3.316406 1.5 -3.265625 C 1.488281 -3.210938 1.484375 -3.140625 1.484375 -3.046875 L 1.484375 -0.5 C 1.484375 -0.445312 1.488281 -0.398438 1.5 -0.359375 C 1.507812 -0.328125 1.523438 -0.296875 1.546875 -0.265625 C 1.554688 -0.265625 1.566406 -0.25 1.578125 -0.21875 C 1.585938 -0.195312 1.59375 -0.171875 1.59375 -0.140625 C 1.59375 -0.0859375 1.578125 -0.046875 1.546875 -0.015625 C 1.523438 0.015625 1.488281 0.03125 1.4375 0.03125 C 1.207031 0.0078125 1.019531 0 0.875 0 C 0.757812 0 0.566406 0.0078125 0.296875 0.03125 C 0.242188 0.03125 0.203125 0.015625 0.171875 -0.015625 C 0.148438 -0.046875 0.140625 -0.0859375 0.140625 -0.140625 C 0.140625 -0.179688 0.148438 -0.222656 0.171875 -0.265625 C 0.203125 -0.296875 0.222656 -0.328125 0.234375 -0.359375 C 0.242188 -0.398438 0.25 -0.453125 0.25 -0.515625 L 0.25 -3.109375 C 0.25 -3.179688 0.242188 -3.234375 0.234375 -3.265625 C 0.222656 -3.304688 0.207031 -3.34375 0.1875 -3.375 C 0.175781 -3.375 0.164062 -3.382812 0.15625 -3.40625 C 0.144531 -3.4375 0.140625 -3.472656 0.140625 -3.515625 C 0.140625 -3.566406 0.15625 -3.601562 0.1875 -3.625 C 0.21875 -3.65625 0.257812 -3.671875 0.3125 -3.671875 Z M 0.3125 -3.671875 "/></g></g></g><g fill="#ffffff" fill-opacity="1"><g transform="translate(61.831562, 21.260829)"><g><path d="M 0.3125 -3.671875 C 0.375 -3.671875 0.445312 -3.664062 0.53125 -3.65625 C 0.613281 -3.644531 0.71875 -3.640625 0.84375 -3.640625 C 0.96875 -3.640625 1.164062 -3.648438 1.4375 -3.671875 C 1.488281 -3.671875 1.523438 -3.65625 1.546875 -3.625 C 1.578125 -3.59375 1.59375 -3.554688 1.59375 -3.515625 C 1.59375 -3.484375 1.585938 -3.457031 1.578125 -3.4375 C 1.566406 -3.414062 1.5625 -3.398438 1.5625 -3.390625 C 1.539062 -3.359375 1.519531 -3.316406 1.5 -3.265625 C 1.488281 -3.210938 1.484375 -3.140625 1.484375 -3.046875 L 1.484375 -0.5 C 1.484375 -0.445312 1.488281 -0.398438 1.5 -0.359375 C 1.507812 -0.328125 1.523438 -0.296875 1.546875 -0.265625 C 1.554688 -0.265625 1.566406 -0.25 1.578125 -0.21875 C 1.585938 -0.195312 1.59375 -0.171875 1.59375 -0.140625 C 1.59375 -0.0859375 1.578125 -0.046875 1.546875 -0.015625 C 1.523438 0.015625 1.488281 0.03125 1.4375 0.03125 C 1.207031 0.0078125 1.019531 0 0.875 0 C 0.757812 0 0.566406 0.0078125 0.296875 0.03125 C 0.242188 0.03125 0.203125 0.015625 0.171875 -0.015625 C 0.148438 -0.046875 0.140625 -0.0859375 0.140625 -0.140625 C 0.140625 -0.179688 0.148438 -0.222656 0.171875 -0.265625 C 0.203125 -0.296875 0.222656 -0.328125 0.234375 -0.359375 C 0.242188 -0.398438 0.25 -0.453125 0.25 -0.515625 L 0.25 -3.109375 C 0.25 -3.179688 0.242188 -3.234375 0.234375 -3.265625 C 0.222656 -3.304688 0.207031 -3.34375 0.1875 -3.375 C 0.175781 -3.375 0.164062 -3.382812 0.15625 -3.40625 C 0.144531 -3.4375 0.140625 -3.472656 0.140625 -3.515625 C 0.140625 -3.566406 0.15625 -3.601562 0.1875 -3.625 C 0.21875 -3.65625 0.257812 -3.671875 0.3125 -3.671875 Z M 0.3125 -3.671875 "/></g></g></g><g fill="#ffffff" fill-opacity="1"><g transform="translate(64.458516, 21.260829)"><g><path d="M 0.84375 -3.171875 C 0.90625 -3.335938 0.960938 -3.460938 1.015625 -3.546875 C 1.078125 -3.628906 1.132812 -3.671875 1.1875 -3.671875 C 1.195312 -3.671875 1.269531 -3.664062 1.40625 -3.65625 C 1.539062 -3.644531 1.675781 -3.640625 1.8125 -3.640625 C 1.914062 -3.640625 2.101562 -3.648438 2.375 -3.671875 C 2.425781 -3.671875 2.472656 -3.628906 2.515625 -3.546875 C 2.566406 -3.472656 2.628906 -3.351562 2.703125 -3.1875 C 2.867188 -2.769531 3.003906 -2.328125 3.109375 -1.859375 C 3.222656 -1.398438 3.316406 -0.96875 3.390625 -0.5625 C 3.398438 -0.488281 3.414062 -0.429688 3.4375 -0.390625 C 3.457031 -0.347656 3.476562 -0.3125 3.5 -0.28125 C 3.519531 -0.25 3.53125 -0.222656 3.53125 -0.203125 C 3.539062 -0.191406 3.546875 -0.171875 3.546875 -0.140625 C 3.546875 -0.0859375 3.53125 -0.046875 3.5 -0.015625 C 3.476562 0.015625 3.445312 0.03125 3.40625 0.03125 C 3.382812 0.03125 3.300781 0.0234375 3.15625 0.015625 C 3.019531 0.00390625 2.894531 0 2.78125 0 C 2.613281 0 2.484375 0.00390625 2.390625 0.015625 C 2.296875 0.0234375 2.234375 0.03125 2.203125 0.03125 C 2.160156 0.03125 2.125 0.015625 2.09375 -0.015625 C 2.0625 -0.046875 2.046875 -0.0859375 2.046875 -0.140625 C 2.046875 -0.179688 2.054688 -0.222656 2.078125 -0.265625 C 2.117188 -0.328125 2.140625 -0.382812 2.140625 -0.4375 C 2.140625 -0.539062 2.117188 -0.613281 2.078125 -0.65625 C 2.046875 -0.695312 1.988281 -0.71875 1.90625 -0.71875 L 1.390625 -0.71875 C 1.296875 -0.71875 1.234375 -0.691406 1.203125 -0.640625 C 1.171875 -0.597656 1.15625 -0.53125 1.15625 -0.4375 C 1.15625 -0.375 1.171875 -0.320312 1.203125 -0.28125 C 1.203125 -0.269531 1.207031 -0.25 1.21875 -0.21875 C 1.238281 -0.195312 1.25 -0.171875 1.25 -0.140625 C 1.25 -0.0859375 1.234375 -0.046875 1.203125 -0.015625 C 1.179688 0.015625 1.148438 0.03125 1.109375 0.03125 C 1.054688 0.03125 0.988281 0.0234375 0.90625 0.015625 C 0.820312 0.00390625 0.734375 0 0.640625 0 C 0.503906 0 0.363281 0.00390625 0.21875 0.015625 L 0.125 0.03125 C 0.0703125 0.03125 0.03125 0.015625 0 -0.015625 C -0.0195312 -0.046875 -0.03125 -0.0859375 -0.03125 -0.140625 C -0.03125 -0.160156 -0.0234375 -0.179688 -0.015625 -0.203125 C -0.00390625 -0.234375 0.015625 -0.269531 0.046875 -0.3125 C 0.0664062 -0.34375 0.0859375 -0.382812 0.109375 -0.4375 C 0.128906 -0.488281 0.15625 -0.601562 0.1875 -0.78125 C 0.226562 -1.03125 0.304688 -1.394531 0.421875 -1.875 C 0.546875 -2.351562 0.6875 -2.785156 0.84375 -3.171875 Z M 1.515625 -2.4375 C 1.398438 -2.09375 1.34375 -1.851562 1.34375 -1.71875 C 1.34375 -1.675781 1.351562 -1.644531 1.375 -1.625 C 1.394531 -1.601562 1.4375 -1.59375 1.5 -1.59375 L 1.8125 -1.59375 C 1.914062 -1.59375 1.96875 -1.632812 1.96875 -1.71875 C 1.96875 -1.800781 1.945312 -1.914062 1.90625 -2.0625 C 1.863281 -2.21875 1.835938 -2.304688 1.828125 -2.328125 C 1.753906 -2.546875 1.695312 -2.65625 1.65625 -2.65625 C 1.632812 -2.65625 1.613281 -2.640625 1.59375 -2.609375 C 1.570312 -2.578125 1.546875 -2.519531 1.515625 -2.4375 Z M 1.515625 -2.4375 "/></g></g></g><g fill="#ffffff" fill-opacity="1"><g transform="translate(37.204871, 25.847579)"><g><path d="M 0.125 -1.578125 C 0.144531 -1.578125 0.175781 -1.578125 0.21875 -1.578125 C 0.332031 -1.566406 0.457031 -1.5625 0.59375 -1.5625 C 0.65625 -1.5625 0.753906 -1.566406 0.890625 -1.578125 L 1 -1.578125 C 1.03125 -1.578125 1.050781 -1.570312 1.0625 -1.5625 C 1.070312 -1.5625 1.082031 -1.550781 1.09375 -1.53125 C 1.101562 -1.507812 1.109375 -1.476562 1.109375 -1.4375 C 1.109375 -1.382812 1.109375 -1.335938 1.109375 -1.296875 C 1.117188 -1.265625 1.128906 -1.226562 1.140625 -1.1875 C 1.140625 -1.15625 1.140625 -1.132812 1.140625 -1.125 C 1.140625 -1.113281 1.132812 -1.097656 1.125 -1.078125 C 1.113281 -1.066406 1.097656 -1.0625 1.078125 -1.0625 C 1.054688 -1.0625 1.035156 -1.070312 1.015625 -1.09375 C 0.992188 -1.101562 0.972656 -1.109375 0.953125 -1.109375 C 0.929688 -1.117188 0.910156 -1.125 0.890625 -1.125 C 0.867188 -1.125 0.851562 -1.117188 0.84375 -1.109375 C 0.832031 -1.097656 0.828125 -1.082031 0.828125 -1.0625 L 0.828125 -0.234375 C 0.828125 -0.191406 0.828125 -0.160156 0.828125 -0.140625 C 0.835938 -0.128906 0.847656 -0.117188 0.859375 -0.109375 C 0.867188 -0.0976562 0.875 -0.0859375 0.875 -0.078125 C 0.882812 -0.078125 0.890625 -0.0703125 0.890625 -0.0625 C 0.890625 -0.0390625 0.878906 -0.0195312 0.859375 0 C 0.847656 0.0078125 0.832031 0.015625 0.8125 0.015625 C 0.800781 0.015625 0.773438 0.0078125 0.734375 0 C 0.703125 0 0.648438 0 0.578125 0 C 0.515625 0 0.429688 0.00390625 0.328125 0.015625 C 0.304688 0.015625 0.285156 0.0078125 0.265625 0 C 0.253906 -0.0195312 0.25 -0.0390625 0.25 -0.0625 C 0.25 -0.0703125 0.253906 -0.0859375 0.265625 -0.109375 C 0.273438 -0.128906 0.28125 -0.144531 0.28125 -0.15625 C 0.289062 -0.175781 0.296875 -0.203125 0.296875 -0.234375 L 0.296875 -1.0625 C 0.296875 -1.082031 0.289062 -1.097656 0.28125 -1.109375 C 0.28125 -1.117188 0.265625 -1.125 0.234375 -1.125 C 0.210938 -1.125 0.191406 -1.117188 0.171875 -1.109375 C 0.160156 -1.109375 0.144531 -1.101562 0.125 -1.09375 C 0.125 -1.09375 0.113281 -1.085938 0.09375 -1.078125 C 0.0820312 -1.066406 0.0703125 -1.0625 0.0625 -1.0625 C 0.0390625 -1.0625 0.0195312 -1.066406 0 -1.078125 C -0.0078125 -1.097656 -0.015625 -1.113281 -0.015625 -1.125 C -0.015625 -1.144531 -0.0078125 -1.171875 0 -1.203125 C 0.0195312 -1.296875 0.0351562 -1.382812 0.046875 -1.46875 C 0.046875 -1.507812 0.0507812 -1.535156 0.0625 -1.546875 C 0.0703125 -1.566406 0.09375 -1.578125 0.125 -1.578125 Z M 0.125 -1.578125 "/></g></g></g><g fill="#ffffff" fill-opacity="1"><g transform="translate(39.95042, 25.847579)"><g><path d="M 0.734375 -1.609375 C 0.878906 -1.609375 1.003906 -1.570312 1.109375 -1.5 C 1.210938 -1.425781 1.289062 -1.328125 1.34375 -1.203125 C 1.394531 -1.078125 1.421875 -0.941406 1.421875 -0.796875 C 1.421875 -0.628906 1.394531 -0.484375 1.34375 -0.359375 C 1.300781 -0.234375 1.226562 -0.132812 1.125 -0.0625 C 1.019531 0 0.890625 0.03125 0.734375 0.03125 C 0.578125 0.03125 0.445312 0 0.34375 -0.0625 C 0.238281 -0.132812 0.160156 -0.234375 0.109375 -0.359375 C 0.0546875 -0.484375 0.03125 -0.625 0.03125 -0.78125 C 0.03125 -0.957031 0.0625 -1.109375 0.125 -1.234375 C 0.1875 -1.359375 0.269531 -1.453125 0.375 -1.515625 C 0.476562 -1.578125 0.597656 -1.609375 0.734375 -1.609375 Z M 0.59375 -0.796875 C 0.59375 -0.660156 0.597656 -0.5625 0.609375 -0.5 C 0.628906 -0.4375 0.671875 -0.40625 0.734375 -0.40625 C 0.785156 -0.40625 0.820312 -0.4375 0.84375 -0.5 C 0.863281 -0.5625 0.875 -0.660156 0.875 -0.796875 C 0.875 -0.929688 0.863281 -1.023438 0.84375 -1.078125 C 0.820312 -1.140625 0.785156 -1.171875 0.734375 -1.171875 C 0.671875 -1.171875 0.628906 -1.140625 0.609375 -1.078125 C 0.597656 -1.015625 0.59375 -0.921875 0.59375 -0.796875 Z M 0.59375 -0.796875 "/></g></g></g><g fill="#ffffff" fill-opacity="1"><g transform="translate(43.033145, 25.847579)"><g><path d="M 0.125 -1.578125 C 0.15625 -1.578125 0.179688 -1.578125 0.203125 -1.578125 C 0.253906 -1.566406 0.3125 -1.5625 0.375 -1.5625 C 0.414062 -1.5625 0.453125 -1.5625 0.484375 -1.5625 C 0.515625 -1.570312 0.5625 -1.578125 0.625 -1.578125 C 0.6875 -1.578125 0.742188 -1.578125 0.796875 -1.578125 C 0.972656 -1.578125 1.109375 -1.535156 1.203125 -1.453125 C 1.304688 -1.378906 1.359375 -1.273438 1.359375 -1.140625 C 1.359375 -1.046875 1.335938 -0.972656 1.296875 -0.921875 C 1.265625 -0.878906 1.234375 -0.847656 1.203125 -0.828125 C 1.179688 -0.828125 1.171875 -0.820312 1.171875 -0.8125 C 1.171875 -0.800781 1.175781 -0.789062 1.1875 -0.78125 C 1.320312 -0.71875 1.390625 -0.609375 1.390625 -0.453125 C 1.390625 -0.140625 1.175781 0.015625 0.75 0.015625 C 0.707031 0.015625 0.640625 0.015625 0.546875 0.015625 C 0.472656 0.00390625 0.40625 0 0.34375 0 C 0.3125 0 0.285156 0 0.265625 0 C 0.253906 0 0.234375 0 0.203125 0 C 0.179688 0.0078125 0.15625 0.015625 0.125 0.015625 C 0.101562 0.015625 0.0859375 0.0078125 0.078125 0 C 0.0664062 -0.0195312 0.0625 -0.0390625 0.0625 -0.0625 C 0.0625 -0.0820312 0.0664062 -0.0976562 0.078125 -0.109375 C 0.0859375 -0.128906 0.09375 -0.144531 0.09375 -0.15625 C 0.101562 -0.164062 0.109375 -0.1875 0.109375 -0.21875 L 0.109375 -1.359375 C 0.109375 -1.378906 0.101562 -1.394531 0.09375 -1.40625 C 0.09375 -1.414062 0.0859375 -1.429688 0.078125 -1.453125 C 0.0664062 -1.460938 0.0625 -1.472656 0.0625 -1.484375 C 0.0625 -1.492188 0.0625 -1.503906 0.0625 -1.515625 C 0.0625 -1.535156 0.0664062 -1.550781 0.078125 -1.5625 C 0.0859375 -1.570312 0.101562 -1.578125 0.125 -1.578125 Z M 0.609375 -1.171875 L 0.609375 -1 C 0.609375 -0.96875 0.613281 -0.945312 0.625 -0.9375 C 0.632812 -0.9375 0.664062 -0.9375 0.71875 -0.9375 C 0.769531 -0.9375 0.804688 -0.945312 0.828125 -0.96875 C 0.859375 -1 0.875 -1.035156 0.875 -1.078125 C 0.875 -1.179688 0.816406 -1.234375 0.703125 -1.234375 C 0.660156 -1.234375 0.632812 -1.226562 0.625 -1.21875 C 0.613281 -1.207031 0.609375 -1.191406 0.609375 -1.171875 Z M 0.609375 -0.609375 L 0.609375 -0.421875 C 0.609375 -0.398438 0.609375 -0.382812 0.609375 -0.375 C 0.617188 -0.375 0.628906 -0.367188 0.640625 -0.359375 C 0.660156 -0.359375 0.6875 -0.359375 0.71875 -0.359375 C 0.78125 -0.359375 0.820312 -0.367188 0.84375 -0.390625 C 0.875 -0.421875 0.890625 -0.460938 0.890625 -0.515625 C 0.890625 -0.554688 0.875 -0.59375 0.84375 -0.625 C 0.8125 -0.65625 0.757812 -0.671875 0.6875 -0.671875 L 0.671875 -0.671875 C 0.648438 -0.671875 0.632812 -0.664062 0.625 -0.65625 C 0.613281 -0.644531 0.609375 -0.628906 0.609375 -0.609375 Z M 0.609375 -0.609375 "/></g></g></g><g fill="#ffffff" fill-opacity="1"><g transform="translate(46.079528, 25.847579)"><g><path d="M 0.734375 -1.609375 C 0.878906 -1.609375 1.003906 -1.570312 1.109375 -1.5 C 1.210938 -1.425781 1.289062 -1.328125 1.34375 -1.203125 C 1.394531 -1.078125 1.421875 -0.941406 1.421875 -0.796875 C 1.421875 -0.628906 1.394531 -0.484375 1.34375 -0.359375 C 1.300781 -0.234375 1.226562 -0.132812 1.125 -0.0625 C 1.019531 0 0.890625 0.03125 0.734375 0.03125 C 0.578125 0.03125 0.445312 0 0.34375 -0.0625 C 0.238281 -0.132812 0.160156 -0.234375 0.109375 -0.359375 C 0.0546875 -0.484375 0.03125 -0.625 0.03125 -0.78125 C 0.03125 -0.957031 0.0625 -1.109375 0.125 -1.234375 C 0.1875 -1.359375 0.269531 -1.453125 0.375 -1.515625 C 0.476562 -1.578125 0.597656 -1.609375 0.734375 -1.609375 Z M 0.59375 -0.796875 C 0.59375 -0.660156 0.597656 -0.5625 0.609375 -0.5 C 0.628906 -0.4375 0.671875 -0.40625 0.734375 -0.40625 C 0.785156 -0.40625 0.820312 -0.4375 0.84375 -0.5 C 0.863281 -0.5625 0.875 -0.660156 0.875 -0.796875 C 0.875 -0.929688 0.863281 -1.023438 0.84375 -1.078125 C 0.820312 -1.140625 0.785156 -1.171875 0.734375 -1.171875 C 0.671875 -1.171875 0.628906 -1.140625 0.609375 -1.078125 C 0.597656 -1.015625 0.59375 -0.921875 0.59375 -0.796875 Z M 0.59375 -0.796875 "/></g></g></g><g fill="#ffffff" fill-opacity="1"><g transform="translate(49.162253, 25.847579)"><g><path d="M 0.140625 -1.578125 C 0.160156 -1.578125 0.191406 -1.570312 0.234375 -1.5625 C 0.285156 -1.5625 0.332031 -1.5625 0.375 -1.5625 C 0.414062 -1.5625 0.460938 -1.5625 0.515625 -1.5625 C 0.566406 -1.570312 0.601562 -1.578125 0.625 -1.578125 C 0.644531 -1.578125 0.660156 -1.570312 0.671875 -1.5625 C 0.679688 -1.550781 0.6875 -1.535156 0.6875 -1.515625 C 0.6875 -1.492188 0.679688 -1.472656 0.671875 -1.453125 C 0.660156 -1.441406 0.648438 -1.425781 0.640625 -1.40625 C 0.640625 -1.382812 0.640625 -1.359375 0.640625 -1.328125 L 0.640625 -0.5 C 0.640625 -0.46875 0.644531 -0.445312 0.65625 -0.4375 C 0.664062 -0.425781 0.691406 -0.421875 0.734375 -0.421875 C 0.765625 -0.421875 0.789062 -0.421875 0.8125 -0.421875 C 0.832031 -0.429688 0.847656 -0.441406 0.859375 -0.453125 C 0.867188 -0.460938 0.878906 -0.46875 0.890625 -0.46875 C 0.898438 -0.476562 0.914062 -0.484375 0.9375 -0.484375 C 0.957031 -0.484375 0.972656 -0.472656 0.984375 -0.453125 C 1.003906 -0.441406 1.015625 -0.425781 1.015625 -0.40625 C 1.015625 -0.40625 1.007812 -0.394531 1 -0.375 C 1 -0.351562 1 -0.335938 1 -0.328125 C 0.96875 -0.253906 0.953125 -0.179688 0.953125 -0.109375 C 0.941406 -0.0664062 0.929688 -0.0351562 0.921875 -0.015625 C 0.921875 0.00390625 0.90625 0.015625 0.875 0.015625 C 0.863281 0.015625 0.828125 0.0078125 0.765625 0 C 0.703125 0 0.609375 0 0.484375 0 C 0.398438 0 0.285156 0.00390625 0.140625 0.015625 C 0.109375 0.015625 0.0859375 0.0078125 0.078125 0 C 0.0664062 -0.0195312 0.0625 -0.0390625 0.0625 -0.0625 C 0.0625 -0.0820312 0.0664062 -0.0976562 0.078125 -0.109375 C 0.0859375 -0.128906 0.09375 -0.144531 0.09375 -0.15625 C 0.101562 -0.175781 0.109375 -0.203125 0.109375 -0.234375 L 0.109375 -1.359375 C 0.109375 -1.378906 0.101562 -1.394531 0.09375 -1.40625 C 0.09375 -1.414062 0.0859375 -1.429688 0.078125 -1.453125 C 0.0664062 -1.460938 0.0625 -1.472656 0.0625 -1.484375 C 0.0625 -1.492188 0.0625 -1.503906 0.0625 -1.515625 C 0.0625 -1.535156 0.0664062 -1.550781 0.078125 -1.5625 C 0.0859375 -1.570312 0.109375 -1.578125 0.140625 -1.578125 Z M 0.140625 -1.578125 "/></g></g></g><g fill="#ffffff" fill-opacity="1"><g transform="translate(51.788681, 25.847579)"><g><path d="M 0.734375 -1.609375 C 0.878906 -1.609375 1.003906 -1.570312 1.109375 -1.5 C 1.210938 -1.425781 1.289062 -1.328125 1.34375 -1.203125 C 1.394531 -1.078125 1.421875 -0.941406 1.421875 -0.796875 C 1.421875 -0.628906 1.394531 -0.484375 1.34375 -0.359375 C 1.300781 -0.234375 1.226562 -0.132812 1.125 -0.0625 C 1.019531 0 0.890625 0.03125 0.734375 0.03125 C 0.578125 0.03125 0.445312 0 0.34375 -0.0625 C 0.238281 -0.132812 0.160156 -0.234375 0.109375 -0.359375 C 0.0546875 -0.484375 0.03125 -0.625 0.03125 -0.78125 C 0.03125 -0.957031 0.0625 -1.109375 0.125 -1.234375 C 0.1875 -1.359375 0.269531 -1.453125 0.375 -1.515625 C 0.476562 -1.578125 0.597656 -1.609375 0.734375 -1.609375 Z M 0.59375 -0.796875 C 0.59375 -0.660156 0.597656 -0.5625 0.609375 -0.5 C 0.628906 -0.4375 0.671875 -0.40625 0.734375 -0.40625 C 0.785156 -0.40625 0.820312 -0.4375 0.84375 -0.5 C 0.863281 -0.5625 0.875 -0.660156 0.875 -0.796875 C 0.875 -0.929688 0.863281 -1.023438 0.84375 -1.078125 C 0.820312 -1.140625 0.785156 -1.171875 0.734375 -1.171875 C 0.671875 -1.171875 0.628906 -1.140625 0.609375 -1.078125 C 0.597656 -1.015625 0.59375 -0.921875 0.59375 -0.796875 Z M 0.59375 -0.796875 "/></g></g></g><g fill="#ffffff" fill-opacity="1"><g transform="translate(54.871406, 25.847579)"><g><path d="M 0.046875 -1.578125 C 0.191406 -1.566406 0.285156 -1.5625 0.328125 -1.5625 C 0.367188 -1.5625 0.445312 -1.566406 0.5625 -1.578125 C 0.582031 -1.578125 0.597656 -1.570312 0.609375 -1.5625 C 0.628906 -1.550781 0.640625 -1.535156 0.640625 -1.515625 C 0.640625 -1.503906 0.632812 -1.484375 0.625 -1.453125 C 0.613281 -1.441406 0.601562 -1.429688 0.59375 -1.421875 C 0.59375 -1.410156 0.59375 -1.394531 0.59375 -1.375 C 0.59375 -1.34375 0.597656 -1.28125 0.609375 -1.1875 C 0.628906 -1.09375 0.644531 -1.003906 0.65625 -0.921875 C 0.664062 -0.835938 0.675781 -0.773438 0.6875 -0.734375 C 0.695312 -0.703125 0.703125 -0.679688 0.703125 -0.671875 C 0.710938 -0.660156 0.722656 -0.65625 0.734375 -0.65625 C 0.753906 -0.65625 0.773438 -0.707031 0.796875 -0.8125 C 0.816406 -0.914062 0.832031 -1.03125 0.84375 -1.15625 C 0.851562 -1.28125 0.859375 -1.359375 0.859375 -1.390625 C 0.859375 -1.398438 0.851562 -1.410156 0.84375 -1.421875 C 0.84375 -1.429688 0.84375 -1.441406 0.84375 -1.453125 C 0.832031 -1.472656 0.828125 -1.492188 0.828125 -1.515625 C 0.828125 -1.535156 0.832031 -1.550781 0.84375 -1.5625 C 0.851562 -1.570312 0.867188 -1.578125 0.890625 -1.578125 C 0.984375 -1.566406 1.0625 -1.5625 1.125 -1.5625 C 1.144531 -1.5625 1.175781 -1.5625 1.21875 -1.5625 C 1.257812 -1.570312 1.289062 -1.578125 1.3125 -1.578125 C 1.332031 -1.578125 1.347656 -1.570312 1.359375 -1.5625 C 1.367188 -1.550781 1.375 -1.535156 1.375 -1.515625 C 1.375 -1.503906 1.375 -1.492188 1.375 -1.484375 C 1.375 -1.472656 1.367188 -1.460938 1.359375 -1.453125 C 1.347656 -1.453125 1.335938 -1.445312 1.328125 -1.4375 C 1.328125 -1.425781 1.320312 -1.398438 1.3125 -1.359375 C 1.300781 -1.316406 1.289062 -1.253906 1.28125 -1.171875 C 1.269531 -1.066406 1.242188 -0.925781 1.203125 -0.75 C 1.160156 -0.570312 1.117188 -0.421875 1.078125 -0.296875 C 1.046875 -0.203125 1.019531 -0.128906 1 -0.078125 C 0.976562 -0.0351562 0.957031 -0.0078125 0.9375 0 C 0.925781 0.0078125 0.910156 0.015625 0.890625 0.015625 C 0.796875 0.00390625 0.726562 0 0.6875 0 C 0.644531 0 0.601562 0 0.5625 0 C 0.519531 0.0078125 0.484375 0.015625 0.453125 0.015625 C 0.421875 0.015625 0.390625 -0.015625 0.359375 -0.078125 C 0.328125 -0.148438 0.296875 -0.25 0.265625 -0.375 C 0.210938 -0.539062 0.164062 -0.710938 0.125 -0.890625 C 0.09375 -1.066406 0.0664062 -1.195312 0.046875 -1.28125 C 0.0351562 -1.351562 0.0195312 -1.410156 0 -1.453125 C -0.0078125 -1.460938 -0.015625 -1.472656 -0.015625 -1.484375 C -0.015625 -1.492188 -0.015625 -1.503906 -0.015625 -1.515625 C -0.015625 -1.535156 -0.0078125 -1.550781 0 -1.5625 C 0.0078125 -1.570312 0.0234375 -1.578125 0.046875 -1.578125 Z M 0.046875 -1.578125 "/></g></g></g><g fill="#ffffff" fill-opacity="1"><g transform="translate(57.853181, 25.847579)"><g><path d="M 0.609375 -1.609375 C 0.691406 -1.609375 0.785156 -1.597656 0.890625 -1.578125 C 0.910156 -1.566406 0.925781 -1.5625 0.9375 -1.5625 C 0.945312 -1.5625 0.957031 -1.5625 0.96875 -1.5625 C 0.976562 -1.570312 0.992188 -1.578125 1.015625 -1.578125 C 1.035156 -1.578125 1.050781 -1.570312 1.0625 -1.5625 C 1.082031 -1.550781 1.09375 -1.53125 1.09375 -1.5 L 1.09375 -1.40625 C 1.09375 -1.375 1.097656 -1.335938 1.109375 -1.296875 C 1.117188 -1.253906 1.125 -1.222656 1.125 -1.203125 C 1.132812 -1.179688 1.140625 -1.171875 1.140625 -1.171875 C 1.140625 -1.148438 1.132812 -1.132812 1.125 -1.125 C 1.113281 -1.113281 1.097656 -1.109375 1.078125 -1.109375 C 1.054688 -1.109375 1.023438 -1.117188 0.984375 -1.140625 C 0.929688 -1.160156 0.882812 -1.175781 0.84375 -1.1875 C 0.8125 -1.195312 0.773438 -1.203125 0.734375 -1.203125 C 0.691406 -1.203125 0.660156 -1.191406 0.640625 -1.171875 C 0.617188 -1.160156 0.609375 -1.140625 0.609375 -1.109375 C 0.609375 -1.078125 0.617188 -1.050781 0.640625 -1.03125 C 0.660156 -1.007812 0.703125 -0.992188 0.765625 -0.984375 C 0.859375 -0.953125 0.9375 -0.914062 1 -0.875 C 1.0625 -0.84375 1.109375 -0.796875 1.140625 -0.734375 C 1.179688 -0.671875 1.203125 -0.585938 1.203125 -0.484375 C 1.203125 -0.367188 1.175781 -0.269531 1.125 -0.1875 C 1.070312 -0.113281 1 -0.0546875 0.90625 -0.015625 C 0.820312 0.015625 0.726562 0.03125 0.625 0.03125 C 0.53125 0.03125 0.414062 0.015625 0.28125 -0.015625 C 0.257812 -0.015625 0.242188 -0.015625 0.234375 -0.015625 C 0.222656 -0.015625 0.207031 -0.0078125 0.1875 0 C 0.175781 0.0078125 0.164062 0.015625 0.15625 0.015625 C 0.113281 0.015625 0.0859375 0.00390625 0.078125 -0.015625 C 0.0664062 -0.0351562 0.0625 -0.0664062 0.0625 -0.109375 C 0.0625 -0.160156 0.0546875 -0.203125 0.046875 -0.234375 C 0.046875 -0.273438 0.0390625 -0.316406 0.03125 -0.359375 C 0.0195312 -0.398438 0.015625 -0.429688 0.015625 -0.453125 C 0.015625 -0.460938 0.0195312 -0.472656 0.03125 -0.484375 C 0.0507812 -0.503906 0.0664062 -0.515625 0.078125 -0.515625 C 0.0976562 -0.515625 0.113281 -0.507812 0.125 -0.5 C 0.132812 -0.488281 0.148438 -0.484375 0.171875 -0.484375 C 0.179688 -0.472656 0.207031 -0.457031 0.25 -0.4375 C 0.289062 -0.414062 0.332031 -0.398438 0.375 -0.390625 C 0.414062 -0.378906 0.457031 -0.375 0.5 -0.375 C 0.53125 -0.375 0.554688 -0.378906 0.578125 -0.390625 C 0.597656 -0.410156 0.609375 -0.4375 0.609375 -0.46875 C 0.609375 -0.5 0.59375 -0.519531 0.5625 -0.53125 C 0.539062 -0.550781 0.492188 -0.578125 0.421875 -0.609375 C 0.296875 -0.648438 0.203125 -0.703125 0.140625 -0.765625 C 0.078125 -0.835938 0.046875 -0.9375 0.046875 -1.0625 C 0.046875 -1.1875 0.0703125 -1.285156 0.125 -1.359375 C 0.175781 -1.441406 0.242188 -1.503906 0.328125 -1.546875 C 0.410156 -1.585938 0.503906 -1.609375 0.609375 -1.609375 Z M 0.609375 -1.609375 "/></g></g></g><g fill="#ffffff" fill-opacity="1"><g transform="translate(60.691605, 25.847579)"><g><path d="M 0.125 -1.578125 C 0.144531 -1.578125 0.175781 -1.570312 0.21875 -1.5625 C 0.269531 -1.5625 0.316406 -1.5625 0.359375 -1.5625 C 0.398438 -1.5625 0.472656 -1.566406 0.578125 -1.578125 C 0.597656 -1.578125 0.613281 -1.570312 0.625 -1.5625 C 0.644531 -1.550781 0.65625 -1.535156 0.65625 -1.515625 C 0.65625 -1.503906 0.648438 -1.492188 0.640625 -1.484375 C 0.640625 -1.472656 0.640625 -1.460938 0.640625 -1.453125 C 0.628906 -1.429688 0.617188 -1.414062 0.609375 -1.40625 C 0.609375 -1.394531 0.609375 -1.378906 0.609375 -1.359375 L 0.609375 -1.078125 C 0.609375 -1.054688 0.609375 -1.039062 0.609375 -1.03125 C 0.617188 -1.019531 0.628906 -1.015625 0.640625 -1.015625 C 0.660156 -1.015625 0.6875 -1.035156 0.71875 -1.078125 C 0.757812 -1.128906 0.796875 -1.1875 0.828125 -1.25 C 0.859375 -1.320312 0.875 -1.378906 0.875 -1.421875 C 0.875 -1.429688 0.867188 -1.445312 0.859375 -1.46875 C 0.859375 -1.46875 0.851562 -1.472656 0.84375 -1.484375 C 0.84375 -1.492188 0.84375 -1.503906 0.84375 -1.515625 C 0.84375 -1.535156 0.847656 -1.550781 0.859375 -1.5625 C 0.878906 -1.570312 0.898438 -1.578125 0.921875 -1.578125 C 0.941406 -1.578125 0.976562 -1.570312 1.03125 -1.5625 C 1.082031 -1.5625 1.132812 -1.5625 1.1875 -1.5625 C 1.21875 -1.5625 1.25 -1.5625 1.28125 -1.5625 C 1.3125 -1.570312 1.332031 -1.578125 1.34375 -1.578125 C 1.351562 -1.578125 1.367188 -1.578125 1.390625 -1.578125 C 1.410156 -1.578125 1.425781 -1.570312 1.4375 -1.5625 C 1.457031 -1.550781 1.46875 -1.535156 1.46875 -1.515625 C 1.46875 -1.503906 1.460938 -1.492188 1.453125 -1.484375 C 1.453125 -1.472656 1.445312 -1.460938 1.4375 -1.453125 C 1.425781 -1.441406 1.414062 -1.425781 1.40625 -1.40625 C 1.40625 -1.394531 1.398438 -1.367188 1.390625 -1.328125 C 1.367188 -1.234375 1.335938 -1.148438 1.296875 -1.078125 C 1.253906 -1.003906 1.21875 -0.945312 1.1875 -0.90625 C 1.164062 -0.882812 1.148438 -0.863281 1.140625 -0.84375 C 1.128906 -0.832031 1.125 -0.828125 1.125 -0.828125 C 1.125 -0.816406 1.128906 -0.800781 1.140625 -0.78125 C 1.148438 -0.769531 1.164062 -0.753906 1.1875 -0.734375 C 1.238281 -0.679688 1.28125 -0.617188 1.3125 -0.546875 C 1.34375 -0.484375 1.367188 -0.421875 1.390625 -0.359375 C 1.410156 -0.296875 1.421875 -0.25 1.421875 -0.21875 C 1.421875 -0.195312 1.425781 -0.175781 1.4375 -0.15625 C 1.445312 -0.144531 1.457031 -0.132812 1.46875 -0.125 C 1.476562 -0.113281 1.484375 -0.101562 1.484375 -0.09375 C 1.492188 -0.0820312 1.5 -0.0703125 1.5 -0.0625 C 1.5 -0.0390625 1.492188 -0.0195312 1.484375 0 C 1.472656 0.0078125 1.457031 0.015625 1.4375 0.015625 C 1.320312 0.00390625 1.238281 0 1.1875 0 C 1.125 0 1.039062 0.00390625 0.9375 0.015625 C 0.914062 0.015625 0.894531 0.0078125 0.875 0 C 0.863281 -0.0195312 0.859375 -0.0390625 0.859375 -0.0625 C 0.859375 -0.0703125 0.863281 -0.0859375 0.875 -0.109375 C 0.875 -0.109375 0.875 -0.113281 0.875 -0.125 C 0.882812 -0.132812 0.890625 -0.144531 0.890625 -0.15625 C 0.890625 -0.207031 0.875 -0.265625 0.84375 -0.328125 C 0.8125 -0.398438 0.773438 -0.457031 0.734375 -0.5 C 0.691406 -0.550781 0.660156 -0.578125 0.640625 -0.578125 C 0.628906 -0.578125 0.617188 -0.570312 0.609375 -0.5625 C 0.609375 -0.5625 0.609375 -0.546875 0.609375 -0.515625 L 0.609375 -0.21875 C 0.609375 -0.195312 0.609375 -0.175781 0.609375 -0.15625 C 0.617188 -0.144531 0.628906 -0.132812 0.640625 -0.125 C 0.640625 -0.113281 0.640625 -0.101562 0.640625 -0.09375 C 0.648438 -0.0820312 0.65625 -0.0703125 0.65625 -0.0625 C 0.65625 -0.0390625 0.644531 -0.0195312 0.625 0 C 0.613281 0.0078125 0.597656 0.015625 0.578125 0.015625 C 0.472656 0.00390625 0.398438 0 0.359375 0 C 0.304688 0 0.226562 0.00390625 0.125 0.015625 C 0.101562 0.015625 0.0859375 0.0078125 0.078125 0 C 0.0664062 -0.0195312 0.0625 -0.0351562 0.0625 -0.046875 C 0.0625 -0.0664062 0.0625 -0.078125 0.0625 -0.078125 C 0.0625 -0.0859375 0.0664062 -0.0976562 0.078125 -0.109375 C 0.0859375 -0.128906 0.09375 -0.144531 0.09375 -0.15625 C 0.101562 -0.175781 0.109375 -0.203125 0.109375 -0.234375 L 0.109375 -1.34375 C 0.109375 -1.375 0.101562 -1.394531 0.09375 -1.40625 C 0.09375 -1.414062 0.0859375 -1.429688 0.078125 -1.453125 C 0.0664062 -1.472656 0.0625 -1.492188 0.0625 -1.515625 C 0.0625 -1.535156 0.0664062 -1.550781 0.078125 -1.5625 C 0.0859375 -1.570312 0.101562 -1.578125 0.125 -1.578125 Z M 0.125 -1.578125 "/></g></g></g><g fill="#ffffff" fill-opacity="1"><g transform="translate(63.808653, 25.847579)"><g><path d="M 0.359375 -1.359375 C 0.390625 -1.441406 0.414062 -1.5 0.4375 -1.53125 C 0.457031 -1.5625 0.484375 -1.578125 0.515625 -1.578125 C 0.515625 -1.578125 0.539062 -1.570312 0.59375 -1.5625 C 0.65625 -1.5625 0.71875 -1.5625 0.78125 -1.5625 C 0.820312 -1.5625 0.90625 -1.566406 1.03125 -1.578125 C 1.050781 -1.578125 1.070312 -1.5625 1.09375 -1.53125 C 1.113281 -1.5 1.140625 -1.445312 1.171875 -1.375 C 1.234375 -1.195312 1.289062 -1.003906 1.34375 -0.796875 C 1.394531 -0.597656 1.4375 -0.414062 1.46875 -0.25 C 1.46875 -0.21875 1.472656 -0.191406 1.484375 -0.171875 C 1.492188 -0.148438 1.503906 -0.132812 1.515625 -0.125 C 1.515625 -0.113281 1.515625 -0.101562 1.515625 -0.09375 C 1.523438 -0.0820312 1.53125 -0.0703125 1.53125 -0.0625 C 1.53125 -0.0390625 1.523438 -0.0195312 1.515625 0 C 1.503906 0.0078125 1.488281 0.015625 1.46875 0.015625 C 1.457031 0.015625 1.421875 0.0078125 1.359375 0 C 1.304688 0 1.253906 0 1.203125 0 C 1.128906 0 1.070312 0 1.03125 0 C 0.988281 0.0078125 0.960938 0.015625 0.953125 0.015625 C 0.929688 0.015625 0.910156 0.0078125 0.890625 0 C 0.878906 -0.0195312 0.875 -0.0390625 0.875 -0.0625 C 0.875 -0.0703125 0.882812 -0.0859375 0.90625 -0.109375 C 0.914062 -0.140625 0.921875 -0.164062 0.921875 -0.1875 C 0.921875 -0.226562 0.910156 -0.257812 0.890625 -0.28125 C 0.878906 -0.300781 0.859375 -0.3125 0.828125 -0.3125 L 0.609375 -0.3125 C 0.554688 -0.3125 0.523438 -0.300781 0.515625 -0.28125 C 0.503906 -0.257812 0.5 -0.226562 0.5 -0.1875 C 0.5 -0.164062 0.503906 -0.144531 0.515625 -0.125 C 0.515625 -0.113281 0.515625 -0.101562 0.515625 -0.09375 C 0.523438 -0.0820312 0.53125 -0.0703125 0.53125 -0.0625 C 0.53125 -0.0390625 0.523438 -0.0195312 0.515625 0 C 0.503906 0.0078125 0.488281 0.015625 0.46875 0.015625 C 0.457031 0.015625 0.429688 0.0078125 0.390625 0 C 0.359375 0 0.320312 0 0.28125 0 C 0.21875 0 0.15625 0.00390625 0.09375 0.015625 L 0.046875 0.015625 C 0.0234375 0.015625 0.0078125 0.0078125 0 0 C -0.0078125 -0.0195312 -0.015625 -0.0390625 -0.015625 -0.0625 C -0.015625 -0.0703125 -0.0078125 -0.0820312 0 -0.09375 C 0 -0.101562 0.00390625 -0.117188 0.015625 -0.140625 C 0.0234375 -0.148438 0.0351562 -0.164062 0.046875 -0.1875 C 0.0546875 -0.207031 0.0664062 -0.257812 0.078125 -0.34375 C 0.0976562 -0.445312 0.132812 -0.601562 0.1875 -0.8125 C 0.238281 -1.019531 0.296875 -1.203125 0.359375 -1.359375 Z M 0.65625 -1.046875 C 0.601562 -0.898438 0.578125 -0.796875 0.578125 -0.734375 C 0.578125 -0.722656 0.582031 -0.710938 0.59375 -0.703125 C 0.601562 -0.691406 0.625 -0.6875 0.65625 -0.6875 L 0.78125 -0.6875 C 0.820312 -0.6875 0.84375 -0.707031 0.84375 -0.75 C 0.84375 -0.78125 0.832031 -0.828125 0.8125 -0.890625 C 0.800781 -0.953125 0.796875 -0.988281 0.796875 -1 C 0.753906 -1.101562 0.726562 -1.15625 0.71875 -1.15625 C 0.707031 -1.15625 0.695312 -1.144531 0.6875 -1.125 C 0.675781 -1.113281 0.664062 -1.085938 0.65625 -1.046875 Z M 0.65625 -1.046875 "/></g></g></g><g clip-path="url(#6ba7af3db6)"><path fill="#ffffff" d="M 18.089844 21.617188 L 23.0625 21.617188 C 23.554688 21.617188 23.964844 21.207031 23.964844 20.714844 C 23.964844 20.21875 23.554688 19.808594 23.0625 19.808594 L 14.058594 19.808594 C 13.566406 19.808594 13.15625 19.398438 13.15625 18.90625 C 13.15625 18.410156 13.566406 18 14.058594 18 L 17.121094 18 C 17.617188 18 18.027344 17.589844 18.027344 17.097656 C 18.027344 16.605469 17.617188 16.191406 17.121094 16.191406 L 11.058594 16.191406 C 10.566406 16.191406 10.15625 15.78125 10.15625 15.289062 C 10.15625 14.796875 10.566406 14.382812 11.058594 14.382812 L 14.738281 14.382812 C 15.230469 14.382812 15.644531 13.972656 15.644531 13.480469 C 15.644531 12.988281 15.230469 12.574219 14.738281 12.574219 L 7.832031 12.574219 C 7.339844 12.574219 6.929688 12.164062 6.929688 11.671875 C 6.929688 11.179688 7.339844 10.769531 7.832031 10.769531 L 11.265625 10.769531 C 11.738281 10.726562 12.109375 10.355469 12.109375 9.882812 C 12.109375 9.453125 11.78125 9.082031 11.367188 9 L 9.519531 9 C 9.027344 9 8.613281 8.589844 8.613281 8.097656 C 8.613281 7.601562 9.027344 7.191406 9.519531 7.191406 L 12.230469 7.191406 C 12.3125 7.191406 12.375 7.191406 12.4375 7.210938 L 13.113281 7.210938 C 13.609375 7.210938 14.019531 6.800781 14.019531 6.308594 C 14.019531 5.816406 13.609375 5.40625 13.113281 5.40625 L 9.890625 5.40625 C 9.847656 5.40625 9.785156 5.425781 9.746094 5.425781 L 4.730469 5.425781 C 4.238281 5.425781 3.828125 5.015625 3.828125 4.519531 C 3.828125 4.027344 4.238281 3.617188 4.730469 3.617188 L 7.976562 3.617188 C 8.472656 3.617188 8.882812 3.207031 8.882812 2.710938 C 8.882812 2.28125 8.554688 1.910156 8.140625 1.828125 L 5.945312 1.828125 C 5.449219 1.828125 5.039062 1.417969 5.039062 0.925781 C 5.039062 0.429688 5.449219 0.0195312 5.945312 0.0195312 L 13.074219 0.0195312 C 13.648438 0.0195312 14.164062 0.308594 14.449219 0.800781 L 21.417969 12.515625 C 21.703125 13.007812 22.21875 13.296875 22.792969 13.296875 C 23.367188 13.296875 23.863281 13.027344 24.171875 12.515625 L 31.28125 0.78125 C 31.589844 0.289062 32.082031 0 32.65625 0 L 38.042969 0 C 38.636719 0 39.152344 0.308594 39.4375 0.820312 C 39.726562 1.355469 39.707031 1.953125 39.375 2.445312 L 27.046875 21.761719 C 26.882812 22.027344 26.800781 22.296875 26.800781 22.625 L 26.800781 35.242188 C 26.800781 36.125 26.082031 36.84375 25.199219 36.84375 L 17.964844 36.84375 C 17.945312 36.78125 17.945312 36.699219 17.945312 36.617188 C 17.945312 36.144531 18.292969 35.777344 18.746094 35.734375 L 19.546875 35.734375 C 20.039062 35.734375 20.449219 35.324219 20.449219 34.832031 C 20.449219 34.335938 20.039062 33.925781 19.546875 33.925781 L 13.402344 33.925781 C 12.910156 33.925781 12.5 33.515625 12.5 33.023438 C 12.5 32.53125 12.910156 32.117188 13.402344 32.117188 L 18.664062 32.117188 C 19.136719 32.097656 19.546875 31.707031 19.546875 31.214844 C 19.546875 30.722656 19.15625 30.332031 18.664062 30.308594 L 18.519531 30.308594 C 18.027344 30.308594 17.617188 29.898438 17.617188 29.40625 C 17.617188 28.914062 18.027344 28.5 18.519531 28.5 L 21.171875 28.5 C 21.664062 28.5 22.074219 28.089844 22.074219 27.597656 C 22.074219 27.105469 21.664062 26.695312 21.171875 26.695312 L 17.429688 26.695312 C 16.9375 26.695312 16.527344 26.28125 16.527344 25.789062 C 16.527344 25.296875 16.9375 24.886719 17.429688 24.886719 L 19.835938 24.886719 C 20.328125 24.886719 20.738281 24.472656 20.738281 23.980469 C 20.738281 23.488281 20.328125 23.078125 19.835938 23.078125 L 16.117188 23.078125 C 15.621094 23.078125 15.210938 22.664062 15.210938 22.171875 C 15.210938 21.679688 15.621094 21.269531 16.117188 21.269531 L 18.089844 21.269531 Z M 5.945312 14.464844 L 8.492188 14.464844 C 8.984375 14.464844 9.394531 14.878906 9.394531 15.371094 C 9.394531 15.863281 8.984375 16.273438 8.492188 16.273438 L 5.945312 16.273438 C 5.449219 16.273438 5.039062 15.863281 5.039062 15.371094 C 5.058594 14.855469 5.449219 14.464844 5.945312 14.464844 Z M 1.484375 3.78125 L 2.636719 3.78125 C 3.128906 3.78125 3.539062 4.191406 3.539062 4.683594 C 3.539062 5.179688 3.128906 5.589844 2.636719 5.589844 L 1.484375 5.589844 C 0.992188 5.589844 0.578125 5.179688 0.578125 4.683594 C 0.578125 4.171875 0.992188 3.78125 1.484375 3.78125 Z M 11.902344 21.617188 L 13.054688 21.617188 C 13.546875 21.617188 13.957031 22.027344 13.957031 22.523438 C 13.957031 23.015625 13.546875 23.425781 13.054688 23.425781 L 11.902344 23.425781 C 11.410156 23.425781 11 23.015625 11 22.523438 C 11.019531 22.027344 11.410156 21.617188 11.902344 21.617188 Z M 11.308594 25.191406 L 14.839844 25.191406 C 15.335938 25.191406 15.746094 25.605469 15.746094 26.097656 C 15.746094 26.589844 15.335938 27 14.839844 27 L 11.308594 27 C 10.8125 27 10.402344 26.589844 10.402344 26.097656 C 10.421875 25.605469 10.8125 25.191406 11.308594 25.191406 Z M 9.539062 18.042969 L 11 18.042969 C 11.492188 18.042969 11.902344 18.453125 11.902344 18.945312 C 11.902344 19.441406 11.492188 19.851562 11 19.851562 L 9.539062 19.851562 C 9.046875 19.851562 8.636719 19.441406 8.636719 18.945312 C 8.636719 18.453125 9.046875 18.042969 9.539062 18.042969 Z M 14.800781 28.789062 L 15.949219 28.789062 C 16.445312 28.789062 16.855469 29.199219 16.855469 29.695312 C 16.855469 30.1875 16.445312 30.597656 15.949219 30.597656 L 14.800781 30.597656 C 14.308594 30.597656 13.894531 30.1875 13.894531 29.695312 C 13.894531 29.179688 14.308594 28.789062 14.800781 28.789062 Z M 3.992188 21.617188 L 8.800781 21.617188 C 9.292969 21.617188 9.703125 22.027344 9.703125 22.523438 C 9.703125 23.015625 9.292969 23.425781 8.800781 23.425781 L 3.992188 23.425781 C 3.5 23.425781 3.085938 23.015625 3.085938 22.523438 C 3.109375 22.027344 3.5 21.617188 3.992188 21.617188 Z M 3.992188 21.617188 " fill-opacity="1" fill-rule="evenodd"/></g></svg>