<svg xmlns="http://www.w3.org/2000/svg" xmlns:xlink="http://www.w3.org/1999/xlink" width="108" zoomAndPan="magnify" viewBox="0 0 81 34.499999" height="46" preserveAspectRatio="xMidYMid meet" version="1.0"><defs><g/><clipPath id="e7cbc447e3"><path d="M 5.066406 1.742188 L 38 1.742188 L 38 32.789062 L 5.066406 32.789062 Z M 5.066406 1.742188 " clip-rule="nonzero"/></clipPath></defs><g fill="#ffffff" fill-opacity="1"><g transform="translate(34.287258, 18.029378)"><g><path d="M 0.078125 -2.78125 C 0.0976562 -2.78125 0.148438 -2.773438 0.234375 -2.765625 C 0.328125 -2.753906 0.425781 -2.75 0.53125 -2.75 C 0.644531 -2.75 0.742188 -2.753906 0.828125 -2.765625 C 0.910156 -2.773438 0.96875 -2.78125 1 -2.78125 C 1.039062 -2.78125 1.070312 -2.765625 1.09375 -2.734375 C 1.113281 -2.710938 1.125 -2.6875 1.125 -2.65625 C 1.125 -2.625 1.113281 -2.59375 1.09375 -2.5625 C 1.082031 -2.53125 1.070312 -2.503906 1.0625 -2.484375 C 1.0625 -2.472656 1.0625 -2.445312 1.0625 -2.40625 C 1.0625 -2.332031 1.070312 -2.226562 1.09375 -2.09375 C 1.113281 -1.96875 1.140625 -1.859375 1.171875 -1.765625 C 1.210938 -1.671875 1.25 -1.625 1.28125 -1.625 C 1.3125 -1.625 1.34375 -1.675781 1.375 -1.78125 C 1.414062 -1.882812 1.445312 -2 1.46875 -2.125 C 1.5 -2.257812 1.515625 -2.359375 1.515625 -2.421875 C 1.515625 -2.441406 1.507812 -2.460938 1.5 -2.484375 C 1.488281 -2.503906 1.476562 -2.519531 1.46875 -2.53125 C 1.445312 -2.570312 1.4375 -2.609375 1.4375 -2.640625 C 1.4375 -2.679688 1.445312 -2.710938 1.46875 -2.734375 C 1.5 -2.765625 1.53125 -2.78125 1.5625 -2.78125 C 1.738281 -2.757812 1.890625 -2.75 2.015625 -2.75 C 2.097656 -2.75 2.203125 -2.757812 2.328125 -2.78125 C 2.359375 -2.78125 2.382812 -2.765625 2.40625 -2.734375 C 2.425781 -2.710938 2.4375 -2.6875 2.4375 -2.65625 C 2.4375 -2.625 2.414062 -2.578125 2.375 -2.515625 C 2.363281 -2.503906 2.351562 -2.453125 2.34375 -2.359375 C 2.300781 -2.128906 2.242188 -1.90625 2.171875 -1.6875 C 2.109375 -1.476562 1.988281 -1.269531 1.8125 -1.0625 C 1.789062 -1.039062 1.757812 -1.007812 1.71875 -0.96875 C 1.6875 -0.925781 1.664062 -0.894531 1.65625 -0.875 C 1.644531 -0.851562 1.640625 -0.832031 1.640625 -0.8125 L 1.640625 -0.40625 C 1.640625 -0.351562 1.644531 -0.3125 1.65625 -0.28125 C 1.664062 -0.25 1.675781 -0.222656 1.6875 -0.203125 C 1.707031 -0.171875 1.71875 -0.140625 1.71875 -0.109375 C 1.71875 -0.0664062 1.707031 -0.03125 1.6875 0 C 1.664062 0.0195312 1.640625 0.03125 1.609375 0.03125 C 1.585938 0.03125 1.53125 0.0234375 1.4375 0.015625 C 1.351562 0.00390625 1.265625 0 1.171875 0 C 1.066406 0 0.972656 0.00390625 0.890625 0.015625 C 0.804688 0.0234375 0.757812 0.03125 0.75 0.03125 C 0.71875 0.03125 0.6875 0.0195312 0.65625 0 C 0.632812 -0.03125 0.625 -0.0664062 0.625 -0.109375 C 0.625 -0.140625 0.632812 -0.171875 0.65625 -0.203125 C 0.675781 -0.234375 0.691406 -0.257812 0.703125 -0.28125 C 0.710938 -0.3125 0.71875 -0.351562 0.71875 -0.40625 L 0.71875 -0.796875 C 0.71875 -0.828125 0.707031 -0.851562 0.6875 -0.875 C 0.664062 -0.90625 0.625 -0.957031 0.5625 -1.03125 C 0.394531 -1.207031 0.269531 -1.414062 0.1875 -1.65625 C 0.113281 -1.894531 0.0625 -2.148438 0.03125 -2.421875 C 0.03125 -2.453125 0.015625 -2.492188 -0.015625 -2.546875 C -0.0351562 -2.585938 -0.046875 -2.625 -0.046875 -2.65625 C -0.046875 -2.6875 -0.0351562 -2.710938 -0.015625 -2.734375 C 0.00390625 -2.765625 0.0351562 -2.78125 0.078125 -2.78125 Z M 0.078125 -2.78125 "/></g></g></g><g fill="#ffffff" fill-opacity="1"><g transform="translate(37.345522, 18.029378)"><g><path d="M 0.234375 -2.78125 C 0.253906 -2.78125 0.289062 -2.773438 0.34375 -2.765625 C 0.507812 -2.753906 0.753906 -2.75 1.078125 -2.75 C 1.347656 -2.75 1.601562 -2.753906 1.84375 -2.765625 C 1.875 -2.773438 1.898438 -2.78125 1.921875 -2.78125 C 1.972656 -2.78125 2.007812 -2.765625 2.03125 -2.734375 C 2.050781 -2.710938 2.066406 -2.660156 2.078125 -2.578125 C 2.085938 -2.421875 2.109375 -2.300781 2.140625 -2.21875 C 2.148438 -2.175781 2.15625 -2.144531 2.15625 -2.125 C 2.15625 -2.101562 2.140625 -2.082031 2.109375 -2.0625 C 2.085938 -2.039062 2.0625 -2.03125 2.03125 -2.03125 C 2.019531 -2.03125 2.003906 -2.03125 1.984375 -2.03125 C 1.960938 -2.039062 1.945312 -2.046875 1.9375 -2.046875 C 1.78125 -2.097656 1.609375 -2.125 1.421875 -2.125 L 1.1875 -2.125 C 1.132812 -2.125 1.097656 -2.113281 1.078125 -2.09375 C 1.066406 -2.070312 1.0625 -2.046875 1.0625 -2.015625 L 1.0625 -1.828125 C 1.0625 -1.785156 1.070312 -1.753906 1.09375 -1.734375 C 1.125 -1.722656 1.164062 -1.71875 1.21875 -1.71875 L 1.5 -1.71875 C 1.59375 -1.71875 1.671875 -1.726562 1.734375 -1.75 C 1.804688 -1.78125 1.851562 -1.796875 1.875 -1.796875 C 1.914062 -1.796875 1.941406 -1.78125 1.953125 -1.75 C 1.972656 -1.726562 1.984375 -1.703125 1.984375 -1.671875 C 1.984375 -1.648438 1.984375 -1.609375 1.984375 -1.546875 C 1.984375 -1.484375 1.984375 -1.4375 1.984375 -1.40625 L 1.984375 -1.171875 C 1.984375 -1.140625 1.972656 -1.109375 1.953125 -1.078125 C 1.929688 -1.054688 1.90625 -1.046875 1.875 -1.046875 C 1.851562 -1.046875 1.816406 -1.050781 1.765625 -1.0625 C 1.722656 -1.082031 1.679688 -1.097656 1.640625 -1.109375 C 1.609375 -1.117188 1.554688 -1.125 1.484375 -1.125 L 1.1875 -1.125 C 1.144531 -1.125 1.113281 -1.113281 1.09375 -1.09375 C 1.070312 -1.082031 1.0625 -1.054688 1.0625 -1.015625 L 1.0625 -0.8125 C 1.0625 -0.769531 1.070312 -0.742188 1.09375 -0.734375 C 1.113281 -0.722656 1.144531 -0.710938 1.1875 -0.703125 C 1.269531 -0.703125 1.351562 -0.703125 1.4375 -0.703125 C 1.570312 -0.703125 1.679688 -0.707031 1.765625 -0.71875 C 1.859375 -0.738281 1.941406 -0.765625 2.015625 -0.796875 C 2.046875 -0.804688 2.070312 -0.8125 2.09375 -0.8125 C 2.125 -0.8125 2.148438 -0.800781 2.171875 -0.78125 C 2.203125 -0.757812 2.21875 -0.734375 2.21875 -0.703125 C 2.21875 -0.671875 2.203125 -0.617188 2.171875 -0.546875 C 2.160156 -0.503906 2.144531 -0.429688 2.125 -0.328125 C 2.113281 -0.234375 2.109375 -0.175781 2.109375 -0.15625 C 2.097656 -0.09375 2.082031 -0.046875 2.0625 -0.015625 C 2.050781 0.015625 2.019531 0.03125 1.96875 0.03125 L 1.796875 0.015625 C 1.472656 0.00390625 1.195312 0 0.96875 0 C 0.695312 0 0.507812 0.00390625 0.40625 0.015625 C 0.300781 0.0234375 0.242188 0.03125 0.234375 0.03125 C 0.191406 0.03125 0.160156 0.0195312 0.140625 0 C 0.117188 -0.03125 0.109375 -0.0664062 0.109375 -0.109375 C 0.109375 -0.128906 0.109375 -0.144531 0.109375 -0.15625 C 0.117188 -0.164062 0.128906 -0.179688 0.140625 -0.203125 C 0.148438 -0.222656 0.160156 -0.25 0.171875 -0.28125 C 0.179688 -0.3125 0.1875 -0.351562 0.1875 -0.40625 L 0.1875 -2.359375 C 0.1875 -2.398438 0.179688 -2.429688 0.171875 -2.453125 C 0.160156 -2.484375 0.148438 -2.507812 0.140625 -2.53125 C 0.128906 -2.5625 0.117188 -2.582031 0.109375 -2.59375 C 0.109375 -2.613281 0.109375 -2.632812 0.109375 -2.65625 C 0.109375 -2.6875 0.117188 -2.710938 0.140625 -2.734375 C 0.160156 -2.765625 0.191406 -2.78125 0.234375 -2.78125 Z M 0.234375 -2.78125 "/></g></g></g><g fill="#ffffff" fill-opacity="1"><g transform="translate(40.273128, 18.029378)"><g><path d="M 0.09375 -2.78125 C 0.34375 -2.757812 0.507812 -2.75 0.59375 -2.75 C 0.664062 -2.75 0.800781 -2.757812 1 -2.78125 C 1.03125 -2.78125 1.054688 -2.765625 1.078125 -2.734375 C 1.097656 -2.710938 1.109375 -2.6875 1.109375 -2.65625 C 1.109375 -2.625 1.101562 -2.585938 1.09375 -2.546875 C 1.082031 -2.535156 1.070312 -2.515625 1.0625 -2.484375 C 1.050781 -2.460938 1.046875 -2.4375 1.046875 -2.40625 C 1.046875 -2.34375 1.054688 -2.234375 1.078125 -2.078125 C 1.097656 -1.921875 1.125 -1.769531 1.15625 -1.625 C 1.175781 -1.476562 1.191406 -1.367188 1.203125 -1.296875 C 1.222656 -1.234375 1.238281 -1.191406 1.25 -1.171875 C 1.257812 -1.160156 1.273438 -1.15625 1.296875 -1.15625 C 1.328125 -1.15625 1.359375 -1.242188 1.390625 -1.421875 C 1.421875 -1.597656 1.445312 -1.796875 1.46875 -2.015625 C 1.5 -2.242188 1.515625 -2.382812 1.515625 -2.4375 C 1.515625 -2.457031 1.507812 -2.476562 1.5 -2.5 C 1.488281 -2.519531 1.476562 -2.53125 1.46875 -2.53125 C 1.445312 -2.582031 1.4375 -2.617188 1.4375 -2.640625 C 1.4375 -2.679688 1.445312 -2.710938 1.46875 -2.734375 C 1.488281 -2.765625 1.515625 -2.78125 1.546875 -2.78125 C 1.722656 -2.757812 1.859375 -2.75 1.953125 -2.75 C 1.992188 -2.75 2.050781 -2.753906 2.125 -2.765625 C 2.207031 -2.773438 2.265625 -2.78125 2.296875 -2.78125 C 2.335938 -2.78125 2.367188 -2.765625 2.390625 -2.734375 C 2.410156 -2.710938 2.421875 -2.679688 2.421875 -2.640625 C 2.421875 -2.628906 2.414062 -2.613281 2.40625 -2.59375 C 2.394531 -2.582031 2.382812 -2.5625 2.375 -2.53125 C 2.363281 -2.53125 2.351562 -2.519531 2.34375 -2.5 C 2.332031 -2.488281 2.316406 -2.445312 2.296875 -2.375 C 2.285156 -2.300781 2.269531 -2.195312 2.25 -2.0625 C 2.226562 -1.875 2.179688 -1.625 2.109375 -1.3125 C 2.035156 -1 1.960938 -0.734375 1.890625 -0.515625 C 1.828125 -0.347656 1.773438 -0.222656 1.734375 -0.140625 C 1.703125 -0.0664062 1.671875 -0.0195312 1.640625 0 C 1.617188 0.0195312 1.59375 0.03125 1.5625 0.03125 C 1.394531 0.0078125 1.273438 0 1.203125 0 C 1.140625 0 1.066406 0.00390625 0.984375 0.015625 C 0.910156 0.0234375 0.851562 0.03125 0.8125 0.03125 C 0.75 0.03125 0.6875 -0.0234375 0.625 -0.140625 C 0.570312 -0.265625 0.515625 -0.4375 0.453125 -0.65625 C 0.359375 -0.945312 0.28125 -1.25 0.21875 -1.5625 C 0.15625 -1.875 0.113281 -2.097656 0.09375 -2.234375 C 0.0703125 -2.367188 0.0390625 -2.472656 0 -2.546875 C -0.0078125 -2.566406 -0.015625 -2.582031 -0.015625 -2.59375 C -0.0234375 -2.613281 -0.03125 -2.628906 -0.03125 -2.640625 C -0.03125 -2.679688 -0.0195312 -2.710938 0 -2.734375 C 0.0195312 -2.765625 0.0507812 -2.78125 0.09375 -2.78125 Z M 0.09375 -2.78125 "/></g></g></g><g fill="#ffffff" fill-opacity="1"><g transform="translate(43.338455, 18.029378)"><g><path d="M 0.234375 -2.78125 C 0.273438 -2.78125 0.332031 -2.773438 0.40625 -2.765625 C 0.488281 -2.753906 0.5625 -2.75 0.625 -2.75 C 0.675781 -2.75 0.742188 -2.753906 0.828125 -2.765625 C 0.921875 -2.773438 0.988281 -2.78125 1.03125 -2.78125 C 1.070312 -2.78125 1.101562 -2.765625 1.125 -2.734375 C 1.144531 -2.710938 1.15625 -2.679688 1.15625 -2.640625 C 1.15625 -2.609375 1.144531 -2.578125 1.125 -2.546875 C 1.101562 -2.523438 1.085938 -2.5 1.078125 -2.46875 C 1.066406 -2.4375 1.0625 -2.382812 1.0625 -2.3125 L 1.0625 -1.90625 C 1.0625 -1.84375 1.070312 -1.800781 1.09375 -1.78125 C 1.113281 -1.769531 1.148438 -1.765625 1.203125 -1.765625 L 1.390625 -1.765625 C 1.441406 -1.765625 1.472656 -1.773438 1.484375 -1.796875 C 1.503906 -1.816406 1.515625 -1.851562 1.515625 -1.90625 L 1.515625 -2.34375 C 1.515625 -2.394531 1.507812 -2.4375 1.5 -2.46875 C 1.488281 -2.5 1.476562 -2.53125 1.46875 -2.5625 C 1.445312 -2.59375 1.4375 -2.625 1.4375 -2.65625 C 1.4375 -2.6875 1.445312 -2.710938 1.46875 -2.734375 C 1.488281 -2.765625 1.519531 -2.78125 1.5625 -2.78125 C 1.75 -2.757812 1.878906 -2.75 1.953125 -2.75 C 2.015625 -2.75 2.085938 -2.753906 2.171875 -2.765625 C 2.265625 -2.773438 2.328125 -2.78125 2.359375 -2.78125 C 2.398438 -2.78125 2.429688 -2.765625 2.453125 -2.734375 C 2.472656 -2.710938 2.484375 -2.6875 2.484375 -2.65625 C 2.484375 -2.613281 2.472656 -2.578125 2.453125 -2.546875 C 2.429688 -2.523438 2.414062 -2.5 2.40625 -2.46875 C 2.40625 -2.445312 2.40625 -2.414062 2.40625 -2.375 L 2.40625 -0.40625 C 2.40625 -0.351562 2.40625 -0.3125 2.40625 -0.28125 C 2.414062 -0.25 2.429688 -0.21875 2.453125 -0.1875 C 2.460938 -0.175781 2.46875 -0.160156 2.46875 -0.140625 C 2.476562 -0.128906 2.484375 -0.117188 2.484375 -0.109375 C 2.484375 -0.0664062 2.472656 -0.03125 2.453125 0 C 2.429688 0.0195312 2.398438 0.03125 2.359375 0.03125 C 2.179688 0.0078125 2.035156 0 1.921875 0 C 1.804688 0 1.71875 0.00390625 1.65625 0.015625 C 1.601562 0.0234375 1.566406 0.03125 1.546875 0.03125 C 1.515625 0.03125 1.488281 0.0195312 1.46875 0 C 1.445312 -0.03125 1.4375 -0.0664062 1.4375 -0.109375 C 1.4375 -0.140625 1.445312 -0.171875 1.46875 -0.203125 C 1.5 -0.242188 1.515625 -0.285156 1.515625 -0.328125 C 1.515625 -0.398438 1.515625 -0.570312 1.515625 -0.84375 C 1.515625 -0.925781 1.503906 -0.976562 1.484375 -1 C 1.472656 -1.019531 1.441406 -1.03125 1.390625 -1.03125 L 1.1875 -1.03125 C 1.132812 -1.03125 1.097656 -1.019531 1.078125 -1 C 1.066406 -0.976562 1.0625 -0.941406 1.0625 -0.890625 L 1.0625 -0.40625 C 1.0625 -0.351562 1.066406 -0.3125 1.078125 -0.28125 C 1.085938 -0.25 1.101562 -0.222656 1.125 -0.203125 C 1.144531 -0.171875 1.15625 -0.140625 1.15625 -0.109375 C 1.15625 -0.0664062 1.144531 -0.03125 1.125 0 C 1.101562 0.0195312 1.070312 0.03125 1.03125 0.03125 C 1.019531 0.03125 0.96875 0.0234375 0.875 0.015625 C 0.789062 0.00390625 0.710938 0 0.640625 0 C 0.554688 0 0.414062 0.0078125 0.21875 0.03125 C 0.1875 0.03125 0.160156 0.0195312 0.140625 0 C 0.117188 -0.03125 0.109375 -0.0664062 0.109375 -0.109375 C 0.109375 -0.128906 0.117188 -0.160156 0.140625 -0.203125 C 0.148438 -0.234375 0.160156 -0.257812 0.171875 -0.28125 C 0.179688 -0.3125 0.1875 -0.347656 0.1875 -0.390625 L 0.1875 -2.359375 C 0.1875 -2.410156 0.179688 -2.445312 0.171875 -2.46875 C 0.171875 -2.488281 0.160156 -2.515625 0.140625 -2.546875 C 0.128906 -2.566406 0.117188 -2.582031 0.109375 -2.59375 C 0.109375 -2.601562 0.109375 -2.625 0.109375 -2.65625 C 0.109375 -2.695312 0.117188 -2.726562 0.140625 -2.75 C 0.160156 -2.769531 0.191406 -2.78125 0.234375 -2.78125 Z M 0.234375 -2.78125 "/></g></g></g><g fill="#ffffff" fill-opacity="1"><g transform="translate(46.605065, 18.029378)"><g><path d="M 0.234375 -2.78125 C 0.253906 -2.78125 0.289062 -2.773438 0.34375 -2.765625 C 0.507812 -2.753906 0.753906 -2.75 1.078125 -2.75 C 1.347656 -2.75 1.601562 -2.753906 1.84375 -2.765625 C 1.875 -2.773438 1.898438 -2.78125 1.921875 -2.78125 C 1.972656 -2.78125 2.007812 -2.765625 2.03125 -2.734375 C 2.050781 -2.710938 2.066406 -2.660156 2.078125 -2.578125 C 2.085938 -2.421875 2.109375 -2.300781 2.140625 -2.21875 C 2.148438 -2.175781 2.15625 -2.144531 2.15625 -2.125 C 2.15625 -2.101562 2.140625 -2.082031 2.109375 -2.0625 C 2.085938 -2.039062 2.0625 -2.03125 2.03125 -2.03125 C 2.019531 -2.03125 2.003906 -2.03125 1.984375 -2.03125 C 1.960938 -2.039062 1.945312 -2.046875 1.9375 -2.046875 C 1.78125 -2.097656 1.609375 -2.125 1.421875 -2.125 L 1.1875 -2.125 C 1.132812 -2.125 1.097656 -2.113281 1.078125 -2.09375 C 1.066406 -2.070312 1.0625 -2.046875 1.0625 -2.015625 L 1.0625 -1.828125 C 1.0625 -1.785156 1.070312 -1.753906 1.09375 -1.734375 C 1.125 -1.722656 1.164062 -1.71875 1.21875 -1.71875 L 1.5 -1.71875 C 1.59375 -1.71875 1.671875 -1.726562 1.734375 -1.75 C 1.804688 -1.78125 1.851562 -1.796875 1.875 -1.796875 C 1.914062 -1.796875 1.941406 -1.78125 1.953125 -1.75 C 1.972656 -1.726562 1.984375 -1.703125 1.984375 -1.671875 C 1.984375 -1.648438 1.984375 -1.609375 1.984375 -1.546875 C 1.984375 -1.484375 1.984375 -1.4375 1.984375 -1.40625 L 1.984375 -1.171875 C 1.984375 -1.140625 1.972656 -1.109375 1.953125 -1.078125 C 1.929688 -1.054688 1.90625 -1.046875 1.875 -1.046875 C 1.851562 -1.046875 1.816406 -1.050781 1.765625 -1.0625 C 1.722656 -1.082031 1.679688 -1.097656 1.640625 -1.109375 C 1.609375 -1.117188 1.554688 -1.125 1.484375 -1.125 L 1.1875 -1.125 C 1.144531 -1.125 1.113281 -1.113281 1.09375 -1.09375 C 1.070312 -1.082031 1.0625 -1.054688 1.0625 -1.015625 L 1.0625 -0.8125 C 1.0625 -0.769531 1.070312 -0.742188 1.09375 -0.734375 C 1.113281 -0.722656 1.144531 -0.710938 1.1875 -0.703125 C 1.269531 -0.703125 1.351562 -0.703125 1.4375 -0.703125 C 1.570312 -0.703125 1.679688 -0.707031 1.765625 -0.71875 C 1.859375 -0.738281 1.941406 -0.765625 2.015625 -0.796875 C 2.046875 -0.804688 2.070312 -0.8125 2.09375 -0.8125 C 2.125 -0.8125 2.148438 -0.800781 2.171875 -0.78125 C 2.203125 -0.757812 2.21875 -0.734375 2.21875 -0.703125 C 2.21875 -0.671875 2.203125 -0.617188 2.171875 -0.546875 C 2.160156 -0.503906 2.144531 -0.429688 2.125 -0.328125 C 2.113281 -0.234375 2.109375 -0.175781 2.109375 -0.15625 C 2.097656 -0.09375 2.082031 -0.046875 2.0625 -0.015625 C 2.050781 0.015625 2.019531 0.03125 1.96875 0.03125 L 1.796875 0.015625 C 1.472656 0.00390625 1.195312 0 0.96875 0 C 0.695312 0 0.507812 0.00390625 0.40625 0.015625 C 0.300781 0.0234375 0.242188 0.03125 0.234375 0.03125 C 0.191406 0.03125 0.160156 0.0195312 0.140625 0 C 0.117188 -0.03125 0.109375 -0.0664062 0.109375 -0.109375 C 0.109375 -0.128906 0.109375 -0.144531 0.109375 -0.15625 C 0.117188 -0.164062 0.128906 -0.179688 0.140625 -0.203125 C 0.148438 -0.222656 0.160156 -0.25 0.171875 -0.28125 C 0.179688 -0.3125 0.1875 -0.351562 0.1875 -0.40625 L 0.1875 -2.359375 C 0.1875 -2.398438 0.179688 -2.429688 0.171875 -2.453125 C 0.160156 -2.484375 0.148438 -2.507812 0.140625 -2.53125 C 0.128906 -2.5625 0.117188 -2.582031 0.109375 -2.59375 C 0.109375 -2.613281 0.109375 -2.632812 0.109375 -2.65625 C 0.109375 -2.6875 0.117188 -2.710938 0.140625 -2.734375 C 0.160156 -2.765625 0.191406 -2.78125 0.234375 -2.78125 Z M 0.234375 -2.78125 "/></g></g></g><g fill="#ffffff" fill-opacity="1"><g transform="translate(49.532671, 18.029378)"><g><path d="M 0.21875 -2.78125 C 0.269531 -2.78125 0.3125 -2.773438 0.34375 -2.765625 C 0.382812 -2.765625 0.4375 -2.757812 0.5 -2.75 C 0.5625 -2.75 0.617188 -2.75 0.671875 -2.75 C 0.742188 -2.75 0.804688 -2.753906 0.859375 -2.765625 C 0.921875 -2.773438 0.96875 -2.78125 1 -2.78125 C 1.03125 -2.78125 1.054688 -2.765625 1.078125 -2.734375 C 1.109375 -2.703125 1.140625 -2.65625 1.171875 -2.59375 L 1.703125 -1.5625 C 1.722656 -1.507812 1.75 -1.484375 1.78125 -1.484375 C 1.8125 -1.484375 1.828125 -1.503906 1.828125 -1.546875 C 1.828125 -1.566406 1.820312 -1.585938 1.8125 -1.609375 C 1.8125 -1.628906 1.8125 -1.648438 1.8125 -1.671875 L 1.8125 -2.296875 C 1.8125 -2.367188 1.804688 -2.421875 1.796875 -2.453125 C 1.785156 -2.492188 1.773438 -2.53125 1.765625 -2.5625 C 1.753906 -2.570312 1.742188 -2.582031 1.734375 -2.59375 C 1.734375 -2.613281 1.734375 -2.632812 1.734375 -2.65625 C 1.734375 -2.6875 1.742188 -2.710938 1.765625 -2.734375 C 1.785156 -2.765625 1.8125 -2.78125 1.84375 -2.78125 C 2.03125 -2.757812 2.144531 -2.75 2.1875 -2.75 C 2.238281 -2.75 2.296875 -2.753906 2.359375 -2.765625 C 2.421875 -2.773438 2.46875 -2.78125 2.5 -2.78125 C 2.539062 -2.78125 2.570312 -2.765625 2.59375 -2.734375 C 2.613281 -2.710938 2.625 -2.6875 2.625 -2.65625 C 2.625 -2.632812 2.617188 -2.613281 2.609375 -2.59375 C 2.609375 -2.582031 2.601562 -2.570312 2.59375 -2.5625 C 2.582031 -2.53125 2.570312 -2.5 2.5625 -2.46875 C 2.550781 -2.4375 2.546875 -2.390625 2.546875 -2.328125 L 2.546875 -0.375 C 2.546875 -0.332031 2.550781 -0.296875 2.5625 -0.265625 C 2.570312 -0.242188 2.582031 -0.21875 2.59375 -0.1875 C 2.613281 -0.15625 2.625 -0.125 2.625 -0.09375 C 2.625 -0.0625 2.613281 -0.03125 2.59375 0 C 2.570312 0.0195312 2.539062 0.03125 2.5 0.03125 C 2.457031 0.03125 2.421875 0.0234375 2.390625 0.015625 C 2.367188 0.015625 2.328125 0.0078125 2.265625 0 C 2.210938 0 2.160156 0 2.109375 0 C 2.066406 0 1.941406 0.0078125 1.734375 0.03125 C 1.703125 0.03125 1.671875 0.0195312 1.640625 0 C 1.617188 -0.03125 1.59375 -0.078125 1.5625 -0.140625 L 1.03125 -1.1875 C 1.007812 -1.226562 0.992188 -1.25 0.984375 -1.25 C 0.972656 -1.257812 0.957031 -1.265625 0.9375 -1.265625 C 0.914062 -1.265625 0.90625 -1.25 0.90625 -1.21875 L 0.90625 -0.40625 C 0.90625 -0.351562 0.910156 -0.3125 0.921875 -0.28125 C 0.929688 -0.257812 0.941406 -0.234375 0.953125 -0.203125 C 0.984375 -0.160156 1 -0.125 1 -0.09375 C 1 -0.0625 0.984375 -0.03125 0.953125 0 C 0.929688 0.0195312 0.898438 0.03125 0.859375 0.03125 C 0.765625 0.0195312 0.691406 0.0078125 0.640625 0 C 0.597656 0 0.5625 0 0.53125 0 C 0.5 0 0.4375 0.00390625 0.34375 0.015625 C 0.257812 0.0234375 0.21875 0.03125 0.21875 0.03125 C 0.1875 0.03125 0.160156 0.0195312 0.140625 0 C 0.117188 -0.03125 0.109375 -0.0625 0.109375 -0.09375 C 0.109375 -0.125 0.117188 -0.15625 0.140625 -0.1875 C 0.148438 -0.21875 0.160156 -0.25 0.171875 -0.28125 C 0.179688 -0.3125 0.1875 -0.359375 0.1875 -0.421875 L 0.1875 -2.34375 C 0.1875 -2.394531 0.179688 -2.4375 0.171875 -2.46875 C 0.160156 -2.5 0.148438 -2.523438 0.140625 -2.546875 C 0.128906 -2.566406 0.117188 -2.582031 0.109375 -2.59375 C 0.109375 -2.613281 0.109375 -2.632812 0.109375 -2.65625 C 0.109375 -2.695312 0.117188 -2.726562 0.140625 -2.75 C 0.160156 -2.769531 0.1875 -2.78125 0.21875 -2.78125 Z M 0.21875 -2.78125 "/></g></g></g><g fill="#ffffff" fill-opacity="1"><g transform="translate(52.940531, 18.029378)"><g><path d="M 0.234375 -2.78125 C 0.285156 -2.78125 0.34375 -2.773438 0.40625 -2.765625 C 0.46875 -2.753906 0.546875 -2.75 0.640625 -2.75 C 0.734375 -2.75 0.882812 -2.757812 1.09375 -2.78125 C 1.125 -2.78125 1.148438 -2.765625 1.171875 -2.734375 C 1.191406 -2.710938 1.203125 -2.6875 1.203125 -2.65625 C 1.203125 -2.625 1.195312 -2.601562 1.1875 -2.59375 C 1.1875 -2.582031 1.179688 -2.570312 1.171875 -2.5625 C 1.160156 -2.539062 1.148438 -2.507812 1.140625 -2.46875 C 1.128906 -2.425781 1.125 -2.367188 1.125 -2.296875 L 1.125 -0.375 C 1.125 -0.332031 1.125 -0.296875 1.125 -0.265625 C 1.132812 -0.242188 1.148438 -0.222656 1.171875 -0.203125 C 1.171875 -0.203125 1.175781 -0.191406 1.1875 -0.171875 C 1.195312 -0.148438 1.203125 -0.128906 1.203125 -0.109375 C 1.203125 -0.0664062 1.191406 -0.03125 1.171875 0 C 1.148438 0.0195312 1.125 0.03125 1.09375 0.03125 C 0.914062 0.0078125 0.769531 0 0.65625 0 C 0.570312 0 0.425781 0.0078125 0.21875 0.03125 C 0.1875 0.03125 0.160156 0.0195312 0.140625 0 C 0.117188 -0.03125 0.109375 -0.0664062 0.109375 -0.109375 C 0.109375 -0.128906 0.117188 -0.160156 0.140625 -0.203125 C 0.148438 -0.222656 0.160156 -0.25 0.171875 -0.28125 C 0.179688 -0.3125 0.1875 -0.347656 0.1875 -0.390625 L 0.1875 -2.359375 C 0.1875 -2.410156 0.179688 -2.445312 0.171875 -2.46875 C 0.160156 -2.5 0.148438 -2.523438 0.140625 -2.546875 C 0.140625 -2.546875 0.132812 -2.554688 0.125 -2.578125 C 0.113281 -2.597656 0.109375 -2.625 0.109375 -2.65625 C 0.109375 -2.695312 0.117188 -2.726562 0.140625 -2.75 C 0.171875 -2.769531 0.203125 -2.78125 0.234375 -2.78125 Z M 0.234375 -2.78125 "/></g></g></g><g fill="#ffffff" fill-opacity="1"><g transform="translate(54.928817, 18.029378)"><g><path d="M 0.234375 -2.78125 C 0.285156 -2.78125 0.34375 -2.773438 0.40625 -2.765625 C 0.46875 -2.753906 0.546875 -2.75 0.640625 -2.75 C 0.734375 -2.75 0.882812 -2.757812 1.09375 -2.78125 C 1.125 -2.78125 1.148438 -2.765625 1.171875 -2.734375 C 1.191406 -2.710938 1.203125 -2.6875 1.203125 -2.65625 C 1.203125 -2.625 1.195312 -2.601562 1.1875 -2.59375 C 1.1875 -2.582031 1.179688 -2.570312 1.171875 -2.5625 C 1.160156 -2.539062 1.148438 -2.507812 1.140625 -2.46875 C 1.128906 -2.425781 1.125 -2.367188 1.125 -2.296875 L 1.125 -0.375 C 1.125 -0.332031 1.125 -0.296875 1.125 -0.265625 C 1.132812 -0.242188 1.148438 -0.222656 1.171875 -0.203125 C 1.171875 -0.203125 1.175781 -0.191406 1.1875 -0.171875 C 1.195312 -0.148438 1.203125 -0.128906 1.203125 -0.109375 C 1.203125 -0.0664062 1.191406 -0.03125 1.171875 0 C 1.148438 0.0195312 1.125 0.03125 1.09375 0.03125 C 0.914062 0.0078125 0.769531 0 0.65625 0 C 0.570312 0 0.425781 0.0078125 0.21875 0.03125 C 0.1875 0.03125 0.160156 0.0195312 0.140625 0 C 0.117188 -0.03125 0.109375 -0.0664062 0.109375 -0.109375 C 0.109375 -0.128906 0.117188 -0.160156 0.140625 -0.203125 C 0.148438 -0.222656 0.160156 -0.25 0.171875 -0.28125 C 0.179688 -0.3125 0.1875 -0.347656 0.1875 -0.390625 L 0.1875 -2.359375 C 0.1875 -2.410156 0.179688 -2.445312 0.171875 -2.46875 C 0.160156 -2.5 0.148438 -2.523438 0.140625 -2.546875 C 0.140625 -2.546875 0.132812 -2.554688 0.125 -2.578125 C 0.113281 -2.597656 0.109375 -2.625 0.109375 -2.65625 C 0.109375 -2.695312 0.117188 -2.726562 0.140625 -2.75 C 0.171875 -2.769531 0.203125 -2.78125 0.234375 -2.78125 Z M 0.234375 -2.78125 "/></g></g></g><g fill="#ffffff" fill-opacity="1"><g transform="translate(56.917103, 18.029378)"><g><path d="M 0.640625 -2.390625 C 0.691406 -2.523438 0.734375 -2.625 0.765625 -2.6875 C 0.804688 -2.75 0.847656 -2.78125 0.890625 -2.78125 C 0.910156 -2.78125 0.96875 -2.773438 1.0625 -2.765625 C 1.164062 -2.753906 1.269531 -2.75 1.375 -2.75 C 1.445312 -2.75 1.585938 -2.757812 1.796875 -2.78125 C 1.835938 -2.78125 1.875 -2.75 1.90625 -2.6875 C 1.945312 -2.625 1.992188 -2.53125 2.046875 -2.40625 C 2.171875 -2.09375 2.273438 -1.757812 2.359375 -1.40625 C 2.441406 -1.0625 2.507812 -0.734375 2.5625 -0.421875 C 2.570312 -0.367188 2.582031 -0.328125 2.59375 -0.296875 C 2.601562 -0.265625 2.617188 -0.234375 2.640625 -0.203125 C 2.660156 -0.191406 2.671875 -0.175781 2.671875 -0.15625 C 2.679688 -0.144531 2.6875 -0.128906 2.6875 -0.109375 C 2.6875 -0.0664062 2.675781 -0.03125 2.65625 0 C 2.632812 0.0195312 2.609375 0.03125 2.578125 0.03125 C 2.554688 0.03125 2.492188 0.0234375 2.390625 0.015625 C 2.285156 0.00390625 2.1875 0 2.09375 0 C 1.976562 0 1.878906 0.00390625 1.796875 0.015625 C 1.722656 0.0234375 1.679688 0.03125 1.671875 0.03125 C 1.628906 0.03125 1.597656 0.0195312 1.578125 0 C 1.554688 -0.03125 1.546875 -0.0664062 1.546875 -0.109375 C 1.546875 -0.128906 1.554688 -0.160156 1.578125 -0.203125 C 1.609375 -0.242188 1.625 -0.285156 1.625 -0.328125 C 1.625 -0.410156 1.609375 -0.46875 1.578125 -0.5 C 1.554688 -0.53125 1.507812 -0.546875 1.4375 -0.546875 L 1.0625 -0.546875 C 0.976562 -0.546875 0.925781 -0.523438 0.90625 -0.484375 C 0.882812 -0.453125 0.875 -0.398438 0.875 -0.328125 C 0.875 -0.285156 0.882812 -0.242188 0.90625 -0.203125 C 0.90625 -0.203125 0.910156 -0.191406 0.921875 -0.171875 C 0.929688 -0.148438 0.9375 -0.128906 0.9375 -0.109375 C 0.9375 -0.0664062 0.925781 -0.03125 0.90625 0 C 0.882812 0.0195312 0.859375 0.03125 0.828125 0.03125 C 0.796875 0.03125 0.75 0.0234375 0.6875 0.015625 C 0.625 0.00390625 0.554688 0 0.484375 0 C 0.378906 0 0.273438 0.00390625 0.171875 0.015625 L 0.09375 0.03125 C 0.0507812 0.03125 0.0195312 0.0195312 0 0 C -0.0195312 -0.03125 -0.03125 -0.0664062 -0.03125 -0.109375 C -0.03125 -0.128906 -0.0234375 -0.144531 -0.015625 -0.15625 C -0.00390625 -0.175781 0.0078125 -0.203125 0.03125 -0.234375 C 0.0507812 -0.265625 0.0664062 -0.296875 0.078125 -0.328125 C 0.0976562 -0.367188 0.117188 -0.457031 0.140625 -0.59375 C 0.171875 -0.78125 0.226562 -1.050781 0.3125 -1.40625 C 0.40625 -1.769531 0.515625 -2.097656 0.640625 -2.390625 Z M 1.140625 -1.84375 C 1.054688 -1.582031 1.015625 -1.398438 1.015625 -1.296875 C 1.015625 -1.265625 1.019531 -1.238281 1.03125 -1.21875 C 1.050781 -1.207031 1.085938 -1.203125 1.140625 -1.203125 L 1.375 -1.203125 C 1.445312 -1.203125 1.484375 -1.234375 1.484375 -1.296875 C 1.484375 -1.359375 1.46875 -1.445312 1.4375 -1.5625 C 1.40625 -1.675781 1.390625 -1.738281 1.390625 -1.75 C 1.328125 -1.925781 1.28125 -2.015625 1.25 -2.015625 C 1.226562 -2.015625 1.210938 -2 1.203125 -1.96875 C 1.191406 -1.945312 1.171875 -1.90625 1.140625 -1.84375 Z M 1.140625 -1.84375 "/></g></g></g><g fill="#ffffff" fill-opacity="1"><g transform="translate(44.656106, 20.458116)"><g><path d="M 0.09375 -1.234375 C 0.113281 -1.234375 0.140625 -1.234375 0.171875 -1.234375 C 0.265625 -1.234375 0.359375 -1.234375 0.453125 -1.234375 C 0.515625 -1.234375 0.597656 -1.234375 0.703125 -1.234375 L 0.78125 -1.234375 C 0.800781 -1.234375 0.816406 -1.226562 0.828125 -1.21875 C 0.835938 -1.21875 0.84375 -1.207031 0.84375 -1.1875 C 0.851562 -1.175781 0.859375 -1.15625 0.859375 -1.125 C 0.859375 -1.082031 0.859375 -1.046875 0.859375 -1.015625 C 0.867188 -0.992188 0.878906 -0.96875 0.890625 -0.9375 C 0.890625 -0.90625 0.890625 -0.890625 0.890625 -0.890625 C 0.890625 -0.867188 0.882812 -0.851562 0.875 -0.84375 C 0.875 -0.832031 0.863281 -0.828125 0.84375 -0.828125 C 0.832031 -0.828125 0.816406 -0.832031 0.796875 -0.84375 C 0.773438 -0.851562 0.757812 -0.859375 0.75 -0.859375 C 0.738281 -0.867188 0.722656 -0.875 0.703125 -0.875 C 0.679688 -0.875 0.664062 -0.867188 0.65625 -0.859375 C 0.65625 -0.859375 0.65625 -0.847656 0.65625 -0.828125 L 0.65625 -0.1875 C 0.65625 -0.15625 0.65625 -0.132812 0.65625 -0.125 C 0.664062 -0.113281 0.671875 -0.101562 0.671875 -0.09375 C 0.679688 -0.0820312 0.6875 -0.0703125 0.6875 -0.0625 C 0.6875 -0.0625 0.6875 -0.0546875 0.6875 -0.046875 C 0.6875 -0.0234375 0.679688 -0.0078125 0.671875 0 C 0.660156 0.0078125 0.648438 0.015625 0.640625 0.015625 C 0.628906 0.015625 0.609375 0.0078125 0.578125 0 C 0.546875 0 0.503906 0 0.453125 0 C 0.398438 0 0.332031 0.00390625 0.25 0.015625 C 0.238281 0.015625 0.226562 0.0078125 0.21875 0 C 0.207031 -0.0078125 0.203125 -0.0234375 0.203125 -0.046875 C 0.203125 -0.0546875 0.207031 -0.0664062 0.21875 -0.078125 C 0.21875 -0.0976562 0.21875 -0.113281 0.21875 -0.125 C 0.226562 -0.132812 0.234375 -0.15625 0.234375 -0.1875 L 0.234375 -0.828125 C 0.234375 -0.847656 0.226562 -0.859375 0.21875 -0.859375 C 0.21875 -0.867188 0.207031 -0.875 0.1875 -0.875 C 0.164062 -0.875 0.148438 -0.875 0.140625 -0.875 C 0.128906 -0.875 0.113281 -0.867188 0.09375 -0.859375 C 0.09375 -0.859375 0.0859375 -0.851562 0.078125 -0.84375 C 0.0664062 -0.84375 0.0546875 -0.84375 0.046875 -0.84375 C 0.0234375 -0.84375 0.0078125 -0.847656 0 -0.859375 C -0.0078125 -0.867188 -0.015625 -0.878906 -0.015625 -0.890625 C -0.015625 -0.898438 -0.0078125 -0.921875 0 -0.953125 C 0.0195312 -1.015625 0.03125 -1.082031 0.03125 -1.15625 C 0.03125 -1.1875 0.0351562 -1.207031 0.046875 -1.21875 C 0.0546875 -1.226562 0.0703125 -1.234375 0.09375 -1.234375 Z M 0.09375 -1.234375 "/></g></g></g><g fill="#ffffff" fill-opacity="1"><g transform="translate(46.808518, 20.458116)"><g><path d="M 0.5625 -1.265625 C 0.675781 -1.265625 0.773438 -1.234375 0.859375 -1.171875 C 0.941406 -1.109375 1.003906 -1.03125 1.046875 -0.9375 C 1.085938 -0.84375 1.109375 -0.738281 1.109375 -0.625 C 1.109375 -0.5 1.085938 -0.382812 1.046875 -0.28125 C 1.015625 -0.1875 0.957031 -0.109375 0.875 -0.046875 C 0.789062 0.00390625 0.691406 0.03125 0.578125 0.03125 C 0.453125 0.03125 0.347656 0.00390625 0.265625 -0.046875 C 0.179688 -0.109375 0.117188 -0.1875 0.078125 -0.28125 C 0.046875 -0.375 0.03125 -0.484375 0.03125 -0.609375 C 0.03125 -0.742188 0.0507812 -0.859375 0.09375 -0.953125 C 0.144531 -1.054688 0.210938 -1.132812 0.296875 -1.1875 C 0.378906 -1.238281 0.46875 -1.265625 0.5625 -1.265625 Z M 0.453125 -0.625 C 0.453125 -0.519531 0.457031 -0.441406 0.46875 -0.390625 C 0.488281 -0.335938 0.523438 -0.3125 0.578125 -0.3125 C 0.617188 -0.3125 0.644531 -0.335938 0.65625 -0.390625 C 0.675781 -0.441406 0.6875 -0.519531 0.6875 -0.625 C 0.6875 -0.726562 0.675781 -0.800781 0.65625 -0.84375 C 0.644531 -0.894531 0.617188 -0.921875 0.578125 -0.921875 C 0.523438 -0.921875 0.488281 -0.894531 0.46875 -0.84375 C 0.457031 -0.789062 0.453125 -0.71875 0.453125 -0.625 Z M 0.453125 -0.625 "/></g></g></g><g fill="#ffffff" fill-opacity="1"><g transform="translate(49.225263, 20.458116)"><g><path d="M 0.109375 -1.234375 C 0.128906 -1.234375 0.148438 -1.234375 0.171875 -1.234375 C 0.203125 -1.234375 0.242188 -1.234375 0.296875 -1.234375 C 0.328125 -1.234375 0.351562 -1.234375 0.375 -1.234375 C 0.40625 -1.234375 0.441406 -1.234375 0.484375 -1.234375 C 0.535156 -1.234375 0.582031 -1.234375 0.625 -1.234375 C 0.769531 -1.234375 0.878906 -1.203125 0.953125 -1.140625 C 1.023438 -1.078125 1.0625 -0.992188 1.0625 -0.890625 C 1.0625 -0.816406 1.046875 -0.757812 1.015625 -0.71875 C 0.992188 -0.6875 0.96875 -0.664062 0.9375 -0.65625 C 0.925781 -0.644531 0.921875 -0.640625 0.921875 -0.640625 C 0.921875 -0.628906 0.925781 -0.617188 0.9375 -0.609375 C 1.03125 -0.554688 1.078125 -0.472656 1.078125 -0.359375 C 1.078125 -0.109375 0.910156 0.015625 0.578125 0.015625 C 0.546875 0.015625 0.492188 0.015625 0.421875 0.015625 C 0.367188 0.00390625 0.316406 0 0.265625 0 C 0.242188 0 0.226562 0 0.21875 0 C 0.207031 0 0.1875 0 0.15625 0 C 0.132812 0.0078125 0.113281 0.015625 0.09375 0.015625 C 0.0820312 0.015625 0.0703125 0.0078125 0.0625 0 C 0.0507812 -0.0078125 0.046875 -0.0234375 0.046875 -0.046875 C 0.046875 -0.0546875 0.0507812 -0.0703125 0.0625 -0.09375 C 0.0703125 -0.101562 0.078125 -0.113281 0.078125 -0.125 C 0.078125 -0.132812 0.078125 -0.148438 0.078125 -0.171875 L 0.078125 -1.0625 C 0.078125 -1.082031 0.078125 -1.097656 0.078125 -1.109375 C 0.078125 -1.117188 0.0703125 -1.128906 0.0625 -1.140625 C 0.0507812 -1.148438 0.046875 -1.15625 0.046875 -1.15625 C 0.046875 -1.164062 0.046875 -1.175781 0.046875 -1.1875 C 0.046875 -1.195312 0.0507812 -1.207031 0.0625 -1.21875 C 0.0703125 -1.226562 0.0859375 -1.234375 0.109375 -1.234375 Z M 0.46875 -0.90625 L 0.46875 -0.78125 C 0.46875 -0.757812 0.472656 -0.742188 0.484375 -0.734375 C 0.492188 -0.734375 0.519531 -0.734375 0.5625 -0.734375 C 0.601562 -0.734375 0.632812 -0.742188 0.65625 -0.765625 C 0.675781 -0.785156 0.6875 -0.8125 0.6875 -0.84375 C 0.6875 -0.925781 0.640625 -0.96875 0.546875 -0.96875 C 0.515625 -0.96875 0.492188 -0.960938 0.484375 -0.953125 C 0.472656 -0.941406 0.46875 -0.925781 0.46875 -0.90625 Z M 0.46875 -0.484375 L 0.46875 -0.328125 C 0.46875 -0.316406 0.46875 -0.304688 0.46875 -0.296875 C 0.476562 -0.285156 0.488281 -0.28125 0.5 -0.28125 C 0.507812 -0.28125 0.53125 -0.28125 0.5625 -0.28125 C 0.601562 -0.28125 0.632812 -0.289062 0.65625 -0.3125 C 0.675781 -0.332031 0.6875 -0.363281 0.6875 -0.40625 C 0.6875 -0.4375 0.675781 -0.460938 0.65625 -0.484375 C 0.632812 -0.503906 0.597656 -0.515625 0.546875 -0.515625 L 0.53125 -0.515625 C 0.507812 -0.515625 0.492188 -0.507812 0.484375 -0.5 C 0.472656 -0.5 0.46875 -0.492188 0.46875 -0.484375 Z M 0.46875 -0.484375 "/></g></g></g><g fill="#ffffff" fill-opacity="1"><g transform="translate(51.613518, 20.458116)"><g><path d="M 0.5625 -1.265625 C 0.675781 -1.265625 0.773438 -1.234375 0.859375 -1.171875 C 0.941406 -1.109375 1.003906 -1.03125 1.046875 -0.9375 C 1.085938 -0.84375 1.109375 -0.738281 1.109375 -0.625 C 1.109375 -0.5 1.085938 -0.382812 1.046875 -0.28125 C 1.015625 -0.1875 0.957031 -0.109375 0.875 -0.046875 C 0.789062 0.00390625 0.691406 0.03125 0.578125 0.03125 C 0.453125 0.03125 0.347656 0.00390625 0.265625 -0.046875 C 0.179688 -0.109375 0.117188 -0.1875 0.078125 -0.28125 C 0.046875 -0.375 0.03125 -0.484375 0.03125 -0.609375 C 0.03125 -0.742188 0.0507812 -0.859375 0.09375 -0.953125 C 0.144531 -1.054688 0.210938 -1.132812 0.296875 -1.1875 C 0.378906 -1.238281 0.46875 -1.265625 0.5625 -1.265625 Z M 0.453125 -0.625 C 0.453125 -0.519531 0.457031 -0.441406 0.46875 -0.390625 C 0.488281 -0.335938 0.523438 -0.3125 0.578125 -0.3125 C 0.617188 -0.3125 0.644531 -0.335938 0.65625 -0.390625 C 0.675781 -0.441406 0.6875 -0.519531 0.6875 -0.625 C 0.6875 -0.726562 0.675781 -0.800781 0.65625 -0.84375 C 0.644531 -0.894531 0.617188 -0.921875 0.578125 -0.921875 C 0.523438 -0.921875 0.488281 -0.894531 0.46875 -0.84375 C 0.457031 -0.789062 0.453125 -0.71875 0.453125 -0.625 Z M 0.453125 -0.625 "/></g></g></g><g fill="#ffffff" fill-opacity="1"><g transform="translate(54.030264, 20.458116)"><g><path d="M 0.109375 -1.234375 C 0.117188 -1.234375 0.144531 -1.234375 0.1875 -1.234375 C 0.226562 -1.234375 0.265625 -1.234375 0.296875 -1.234375 C 0.328125 -1.234375 0.359375 -1.234375 0.390625 -1.234375 C 0.429688 -1.234375 0.460938 -1.234375 0.484375 -1.234375 C 0.503906 -1.234375 0.519531 -1.226562 0.53125 -1.21875 C 0.539062 -1.207031 0.546875 -1.195312 0.546875 -1.1875 C 0.546875 -1.164062 0.539062 -1.148438 0.53125 -1.140625 C 0.519531 -1.128906 0.507812 -1.113281 0.5 -1.09375 C 0.5 -1.082031 0.5 -1.0625 0.5 -1.03125 L 0.5 -0.390625 C 0.5 -0.367188 0.503906 -0.351562 0.515625 -0.34375 C 0.523438 -0.332031 0.546875 -0.328125 0.578125 -0.328125 C 0.597656 -0.328125 0.613281 -0.328125 0.625 -0.328125 C 0.644531 -0.335938 0.660156 -0.347656 0.671875 -0.359375 C 0.679688 -0.367188 0.691406 -0.375 0.703125 -0.375 C 0.710938 -0.375 0.722656 -0.375 0.734375 -0.375 C 0.742188 -0.375 0.753906 -0.367188 0.765625 -0.359375 C 0.785156 -0.347656 0.796875 -0.335938 0.796875 -0.328125 C 0.796875 -0.316406 0.789062 -0.304688 0.78125 -0.296875 C 0.78125 -0.285156 0.78125 -0.273438 0.78125 -0.265625 C 0.757812 -0.203125 0.75 -0.140625 0.75 -0.078125 C 0.738281 -0.046875 0.726562 -0.0195312 0.71875 0 C 0.71875 0.0078125 0.707031 0.015625 0.6875 0.015625 C 0.675781 0.015625 0.644531 0.0078125 0.59375 0 C 0.550781 0 0.476562 0 0.375 0 C 0.3125 0 0.222656 0.00390625 0.109375 0.015625 C 0.0859375 0.015625 0.0703125 0.0078125 0.0625 0 C 0.0507812 -0.0078125 0.046875 -0.0234375 0.046875 -0.046875 C 0.046875 -0.0546875 0.0507812 -0.0703125 0.0625 -0.09375 C 0.0703125 -0.101562 0.078125 -0.113281 0.078125 -0.125 C 0.078125 -0.132812 0.078125 -0.15625 0.078125 -0.1875 L 0.078125 -1.0625 C 0.078125 -1.082031 0.078125 -1.097656 0.078125 -1.109375 C 0.078125 -1.117188 0.0703125 -1.128906 0.0625 -1.140625 C 0.0507812 -1.148438 0.046875 -1.15625 0.046875 -1.15625 C 0.046875 -1.164062 0.046875 -1.175781 0.046875 -1.1875 C 0.046875 -1.195312 0.0507812 -1.207031 0.0625 -1.21875 C 0.0703125 -1.226562 0.0859375 -1.234375 0.109375 -1.234375 Z M 0.109375 -1.234375 "/></g></g></g><g fill="#ffffff" fill-opacity="1"><g transform="translate(56.089289, 20.458116)"><g><path d="M 0.5625 -1.265625 C 0.675781 -1.265625 0.773438 -1.234375 0.859375 -1.171875 C 0.941406 -1.109375 1.003906 -1.03125 1.046875 -0.9375 C 1.085938 -0.84375 1.109375 -0.738281 1.109375 -0.625 C 1.109375 -0.5 1.085938 -0.382812 1.046875 -0.28125 C 1.015625 -0.1875 0.957031 -0.109375 0.875 -0.046875 C 0.789062 0.00390625 0.691406 0.03125 0.578125 0.03125 C 0.453125 0.03125 0.347656 0.00390625 0.265625 -0.046875 C 0.179688 -0.109375 0.117188 -0.1875 0.078125 -0.28125 C 0.046875 -0.375 0.03125 -0.484375 0.03125 -0.609375 C 0.03125 -0.742188 0.0507812 -0.859375 0.09375 -0.953125 C 0.144531 -1.054688 0.210938 -1.132812 0.296875 -1.1875 C 0.378906 -1.238281 0.46875 -1.265625 0.5625 -1.265625 Z M 0.453125 -0.625 C 0.453125 -0.519531 0.457031 -0.441406 0.46875 -0.390625 C 0.488281 -0.335938 0.523438 -0.3125 0.578125 -0.3125 C 0.617188 -0.3125 0.644531 -0.335938 0.65625 -0.390625 C 0.675781 -0.441406 0.6875 -0.519531 0.6875 -0.625 C 0.6875 -0.726562 0.675781 -0.800781 0.65625 -0.84375 C 0.644531 -0.894531 0.617188 -0.921875 0.578125 -0.921875 C 0.523438 -0.921875 0.488281 -0.894531 0.46875 -0.84375 C 0.457031 -0.789062 0.453125 -0.71875 0.453125 -0.625 Z M 0.453125 -0.625 "/></g></g></g><g fill="#ffffff" fill-opacity="1"><g transform="translate(58.506035, 20.458116)"><g><path d="M 0.046875 -1.234375 C 0.148438 -1.234375 0.222656 -1.234375 0.265625 -1.234375 C 0.296875 -1.234375 0.351562 -1.234375 0.4375 -1.234375 C 0.457031 -1.234375 0.472656 -1.226562 0.484375 -1.21875 C 0.492188 -1.207031 0.5 -1.195312 0.5 -1.1875 C 0.5 -1.175781 0.492188 -1.160156 0.484375 -1.140625 C 0.484375 -1.128906 0.476562 -1.117188 0.46875 -1.109375 C 0.46875 -1.097656 0.46875 -1.085938 0.46875 -1.078125 C 0.46875 -1.046875 0.472656 -0.992188 0.484375 -0.921875 C 0.492188 -0.859375 0.503906 -0.789062 0.515625 -0.71875 C 0.523438 -0.65625 0.53125 -0.609375 0.53125 -0.578125 C 0.539062 -0.546875 0.546875 -0.523438 0.546875 -0.515625 C 0.554688 -0.515625 0.566406 -0.515625 0.578125 -0.515625 C 0.597656 -0.515625 0.613281 -0.550781 0.625 -0.625 C 0.632812 -0.707031 0.644531 -0.796875 0.65625 -0.890625 C 0.664062 -0.992188 0.671875 -1.0625 0.671875 -1.09375 C 0.671875 -1.101562 0.664062 -1.109375 0.65625 -1.109375 C 0.65625 -1.117188 0.65625 -1.128906 0.65625 -1.140625 C 0.644531 -1.148438 0.640625 -1.164062 0.640625 -1.1875 C 0.640625 -1.195312 0.644531 -1.207031 0.65625 -1.21875 C 0.664062 -1.226562 0.675781 -1.234375 0.6875 -1.234375 C 0.769531 -1.234375 0.832031 -1.234375 0.875 -1.234375 C 0.894531 -1.234375 0.921875 -1.234375 0.953125 -1.234375 C 0.984375 -1.234375 1.007812 -1.234375 1.03125 -1.234375 C 1.050781 -1.234375 1.0625 -1.226562 1.0625 -1.21875 C 1.070312 -1.207031 1.078125 -1.195312 1.078125 -1.1875 C 1.078125 -1.175781 1.078125 -1.164062 1.078125 -1.15625 C 1.078125 -1.15625 1.070312 -1.148438 1.0625 -1.140625 C 1.0625 -1.140625 1.054688 -1.132812 1.046875 -1.125 C 1.046875 -1.113281 1.039062 -1.09375 1.03125 -1.0625 C 1.019531 -1.03125 1.015625 -0.984375 1.015625 -0.921875 C 0.992188 -0.835938 0.96875 -0.722656 0.9375 -0.578125 C 0.90625 -0.441406 0.875 -0.328125 0.84375 -0.234375 C 0.820312 -0.148438 0.800781 -0.09375 0.78125 -0.0625 C 0.757812 -0.03125 0.742188 -0.0078125 0.734375 0 C 0.722656 0.0078125 0.710938 0.015625 0.703125 0.015625 C 0.617188 0.00390625 0.5625 0 0.53125 0 C 0.507812 0 0.476562 0 0.4375 0 C 0.40625 0.0078125 0.378906 0.015625 0.359375 0.015625 C 0.335938 0.015625 0.3125 -0.0078125 0.28125 -0.0625 C 0.257812 -0.113281 0.234375 -0.191406 0.203125 -0.296875 C 0.160156 -0.421875 0.125 -0.550781 0.09375 -0.6875 C 0.0703125 -0.832031 0.0546875 -0.9375 0.046875 -1 C 0.0351562 -1.0625 0.0195312 -1.109375 0 -1.140625 C 0 -1.148438 0 -1.15625 0 -1.15625 C -0.0078125 -1.164062 -0.015625 -1.175781 -0.015625 -1.1875 C -0.015625 -1.195312 -0.0078125 -1.207031 0 -1.21875 C 0.0078125 -1.226562 0.0234375 -1.234375 0.046875 -1.234375 Z M 0.046875 -1.234375 "/></g></g></g><g fill="#ffffff" fill-opacity="1"><g transform="translate(60.843639, 20.458116)"><g><path d="M 0.484375 -1.265625 C 0.535156 -1.265625 0.601562 -1.253906 0.6875 -1.234375 C 0.707031 -1.222656 0.722656 -1.21875 0.734375 -1.21875 C 0.742188 -1.21875 0.753906 -1.21875 0.765625 -1.21875 C 0.773438 -1.226562 0.785156 -1.234375 0.796875 -1.234375 C 0.816406 -1.234375 0.832031 -1.226562 0.84375 -1.21875 C 0.851562 -1.207031 0.859375 -1.191406 0.859375 -1.171875 L 0.859375 -1.09375 C 0.859375 -1.070312 0.859375 -1.046875 0.859375 -1.015625 C 0.867188 -0.984375 0.875 -0.957031 0.875 -0.9375 C 0.882812 -0.925781 0.890625 -0.914062 0.890625 -0.90625 C 0.890625 -0.894531 0.882812 -0.882812 0.875 -0.875 C 0.863281 -0.863281 0.851562 -0.859375 0.84375 -0.859375 C 0.832031 -0.859375 0.804688 -0.867188 0.765625 -0.890625 C 0.722656 -0.910156 0.6875 -0.921875 0.65625 -0.921875 C 0.632812 -0.929688 0.609375 -0.9375 0.578125 -0.9375 C 0.546875 -0.9375 0.519531 -0.929688 0.5 -0.921875 C 0.488281 -0.910156 0.484375 -0.890625 0.484375 -0.859375 C 0.484375 -0.835938 0.488281 -0.816406 0.5 -0.796875 C 0.519531 -0.785156 0.550781 -0.773438 0.59375 -0.765625 C 0.664062 -0.742188 0.726562 -0.71875 0.78125 -0.6875 C 0.832031 -0.664062 0.867188 -0.628906 0.890625 -0.578125 C 0.921875 -0.523438 0.9375 -0.457031 0.9375 -0.375 C 0.9375 -0.289062 0.914062 -0.21875 0.875 -0.15625 C 0.84375 -0.09375 0.789062 -0.046875 0.71875 -0.015625 C 0.644531 0.015625 0.566406 0.03125 0.484375 0.03125 C 0.410156 0.03125 0.320312 0.015625 0.21875 -0.015625 C 0.195312 -0.015625 0.1875 -0.015625 0.1875 -0.015625 C 0.175781 -0.015625 0.164062 -0.0078125 0.15625 0 C 0.144531 0 0.128906 0 0.109375 0 C 0.0859375 0 0.0703125 -0.00390625 0.0625 -0.015625 C 0.0507812 -0.0351562 0.046875 -0.0546875 0.046875 -0.078125 C 0.046875 -0.128906 0.0390625 -0.164062 0.03125 -0.1875 C 0.03125 -0.21875 0.03125 -0.25 0.03125 -0.28125 C 0.0195312 -0.3125 0.015625 -0.332031 0.015625 -0.34375 C 0.015625 -0.363281 0.0195312 -0.378906 0.03125 -0.390625 C 0.0390625 -0.398438 0.0507812 -0.40625 0.0625 -0.40625 C 0.0703125 -0.40625 0.0820312 -0.398438 0.09375 -0.390625 C 0.101562 -0.390625 0.117188 -0.382812 0.140625 -0.375 C 0.140625 -0.375 0.15625 -0.363281 0.1875 -0.34375 C 0.226562 -0.320312 0.265625 -0.304688 0.296875 -0.296875 C 0.328125 -0.285156 0.359375 -0.28125 0.390625 -0.28125 C 0.410156 -0.28125 0.425781 -0.285156 0.4375 -0.296875 C 0.457031 -0.316406 0.46875 -0.335938 0.46875 -0.359375 C 0.46875 -0.390625 0.457031 -0.410156 0.4375 -0.421875 C 0.425781 -0.429688 0.390625 -0.445312 0.328125 -0.46875 C 0.234375 -0.5 0.160156 -0.539062 0.109375 -0.59375 C 0.0546875 -0.65625 0.03125 -0.738281 0.03125 -0.84375 C 0.03125 -0.925781 0.0507812 -1 0.09375 -1.0625 C 0.132812 -1.132812 0.1875 -1.1875 0.25 -1.21875 C 0.320312 -1.25 0.398438 -1.265625 0.484375 -1.265625 Z M 0.484375 -1.265625 "/></g></g></g><g fill="#ffffff" fill-opacity="1"><g transform="translate(63.068861, 20.458116)"><g><path d="M 0.109375 -1.234375 C 0.117188 -1.234375 0.140625 -1.234375 0.171875 -1.234375 C 0.210938 -1.234375 0.25 -1.234375 0.28125 -1.234375 C 0.3125 -1.234375 0.367188 -1.234375 0.453125 -1.234375 C 0.472656 -1.234375 0.488281 -1.226562 0.5 -1.21875 C 0.507812 -1.207031 0.515625 -1.195312 0.515625 -1.1875 C 0.515625 -1.175781 0.507812 -1.164062 0.5 -1.15625 C 0.5 -1.144531 0.5 -1.140625 0.5 -1.140625 C 0.488281 -1.128906 0.476562 -1.117188 0.46875 -1.109375 C 0.46875 -1.097656 0.46875 -1.082031 0.46875 -1.0625 L 0.46875 -0.84375 C 0.46875 -0.820312 0.46875 -0.804688 0.46875 -0.796875 C 0.476562 -0.796875 0.488281 -0.796875 0.5 -0.796875 C 0.519531 -0.796875 0.539062 -0.8125 0.5625 -0.84375 C 0.59375 -0.882812 0.617188 -0.929688 0.640625 -0.984375 C 0.671875 -1.035156 0.6875 -1.078125 0.6875 -1.109375 C 0.6875 -1.117188 0.679688 -1.128906 0.671875 -1.140625 C 0.671875 -1.148438 0.671875 -1.15625 0.671875 -1.15625 C 0.671875 -1.164062 0.671875 -1.175781 0.671875 -1.1875 C 0.671875 -1.195312 0.671875 -1.207031 0.671875 -1.21875 C 0.679688 -1.226562 0.695312 -1.234375 0.71875 -1.234375 C 0.738281 -1.234375 0.769531 -1.234375 0.8125 -1.234375 C 0.851562 -1.234375 0.894531 -1.234375 0.9375 -1.234375 C 0.957031 -1.234375 0.976562 -1.234375 1 -1.234375 C 1.019531 -1.234375 1.035156 -1.234375 1.046875 -1.234375 C 1.054688 -1.234375 1.070312 -1.234375 1.09375 -1.234375 C 1.101562 -1.234375 1.113281 -1.226562 1.125 -1.21875 C 1.132812 -1.207031 1.140625 -1.195312 1.140625 -1.1875 C 1.140625 -1.175781 1.140625 -1.164062 1.140625 -1.15625 C 1.140625 -1.15625 1.132812 -1.148438 1.125 -1.140625 C 1.113281 -1.128906 1.101562 -1.117188 1.09375 -1.109375 C 1.09375 -1.097656 1.09375 -1.078125 1.09375 -1.046875 C 1.070312 -0.960938 1.046875 -0.894531 1.015625 -0.84375 C 0.984375 -0.789062 0.953125 -0.742188 0.921875 -0.703125 C 0.910156 -0.691406 0.898438 -0.679688 0.890625 -0.671875 C 0.878906 -0.660156 0.875 -0.648438 0.875 -0.640625 C 0.875 -0.640625 0.878906 -0.628906 0.890625 -0.609375 C 0.898438 -0.597656 0.914062 -0.585938 0.9375 -0.578125 C 0.96875 -0.535156 0.992188 -0.488281 1.015625 -0.4375 C 1.046875 -0.382812 1.066406 -0.332031 1.078125 -0.28125 C 1.097656 -0.226562 1.109375 -0.191406 1.109375 -0.171875 C 1.117188 -0.148438 1.125 -0.132812 1.125 -0.125 C 1.132812 -0.113281 1.144531 -0.101562 1.15625 -0.09375 C 1.15625 -0.0820312 1.15625 -0.0703125 1.15625 -0.0625 C 1.164062 -0.0625 1.171875 -0.0546875 1.171875 -0.046875 C 1.171875 -0.0234375 1.164062 -0.0078125 1.15625 0 C 1.144531 0.0078125 1.132812 0.015625 1.125 0.015625 C 1.039062 0.00390625 0.972656 0 0.921875 0 C 0.878906 0 0.816406 0.00390625 0.734375 0.015625 C 0.710938 0.015625 0.695312 0.0078125 0.6875 0 C 0.675781 -0.0078125 0.671875 -0.0234375 0.671875 -0.046875 C 0.671875 -0.0546875 0.675781 -0.0664062 0.6875 -0.078125 C 0.6875 -0.078125 0.6875 -0.0820312 0.6875 -0.09375 C 0.6875 -0.101562 0.6875 -0.113281 0.6875 -0.125 C 0.6875 -0.164062 0.675781 -0.210938 0.65625 -0.265625 C 0.632812 -0.316406 0.609375 -0.359375 0.578125 -0.390625 C 0.546875 -0.429688 0.519531 -0.453125 0.5 -0.453125 C 0.488281 -0.453125 0.476562 -0.445312 0.46875 -0.4375 C 0.46875 -0.4375 0.46875 -0.425781 0.46875 -0.40625 L 0.46875 -0.171875 C 0.46875 -0.148438 0.46875 -0.132812 0.46875 -0.125 C 0.476562 -0.113281 0.488281 -0.101562 0.5 -0.09375 C 0.5 -0.09375 0.5 -0.0859375 0.5 -0.078125 C 0.507812 -0.0664062 0.515625 -0.0546875 0.515625 -0.046875 C 0.515625 -0.0234375 0.507812 -0.0078125 0.5 0 C 0.488281 0.0078125 0.472656 0.015625 0.453125 0.015625 C 0.367188 0.00390625 0.3125 0 0.28125 0 C 0.238281 0 0.179688 0.00390625 0.109375 0.015625 C 0.0859375 0.015625 0.0703125 0.0078125 0.0625 0 C 0.0507812 -0.0078125 0.046875 -0.0234375 0.046875 -0.046875 C 0.046875 -0.0546875 0.046875 -0.0625 0.046875 -0.0625 C 0.046875 -0.0703125 0.0507812 -0.0820312 0.0625 -0.09375 C 0.0703125 -0.101562 0.078125 -0.113281 0.078125 -0.125 C 0.078125 -0.132812 0.078125 -0.15625 0.078125 -0.1875 L 0.078125 -1.0625 C 0.078125 -1.082031 0.078125 -1.097656 0.078125 -1.109375 C 0.078125 -1.117188 0.0703125 -1.128906 0.0625 -1.140625 C 0.0507812 -1.148438 0.046875 -1.164062 0.046875 -1.1875 C 0.046875 -1.195312 0.0507812 -1.207031 0.0625 -1.21875 C 0.0703125 -1.226562 0.0859375 -1.234375 0.109375 -1.234375 Z M 0.109375 -1.234375 "/></g></g></g><g fill="#ffffff" fill-opacity="1"><g transform="translate(65.512515, 20.458116)"><g><path d="M 0.28125 -1.0625 C 0.300781 -1.125 0.320312 -1.164062 0.34375 -1.1875 C 0.363281 -1.21875 0.382812 -1.234375 0.40625 -1.234375 C 0.40625 -1.234375 0.425781 -1.234375 0.46875 -1.234375 C 0.519531 -1.234375 0.566406 -1.234375 0.609375 -1.234375 C 0.648438 -1.234375 0.710938 -1.234375 0.796875 -1.234375 C 0.816406 -1.234375 0.832031 -1.21875 0.84375 -1.1875 C 0.863281 -1.164062 0.882812 -1.128906 0.90625 -1.078125 C 0.96875 -0.941406 1.015625 -0.789062 1.046875 -0.625 C 1.085938 -0.46875 1.117188 -0.320312 1.140625 -0.1875 C 1.148438 -0.164062 1.15625 -0.144531 1.15625 -0.125 C 1.164062 -0.113281 1.175781 -0.101562 1.1875 -0.09375 C 1.1875 -0.0820312 1.1875 -0.0703125 1.1875 -0.0625 C 1.195312 -0.0625 1.203125 -0.0546875 1.203125 -0.046875 C 1.203125 -0.0234375 1.195312 -0.0078125 1.1875 0 C 1.175781 0.0078125 1.164062 0.015625 1.15625 0.015625 C 1.144531 0.015625 1.113281 0.0078125 1.0625 0 C 1.019531 0 0.976562 0 0.9375 0 C 0.882812 0 0.835938 0 0.796875 0 C 0.765625 0.0078125 0.75 0.015625 0.75 0.015625 C 0.726562 0.015625 0.710938 0.0078125 0.703125 0 C 0.691406 -0.0078125 0.6875 -0.0234375 0.6875 -0.046875 C 0.6875 -0.0546875 0.691406 -0.0703125 0.703125 -0.09375 C 0.710938 -0.113281 0.71875 -0.132812 0.71875 -0.15625 C 0.71875 -0.1875 0.710938 -0.207031 0.703125 -0.21875 C 0.691406 -0.238281 0.671875 -0.25 0.640625 -0.25 L 0.46875 -0.25 C 0.4375 -0.25 0.414062 -0.238281 0.40625 -0.21875 C 0.394531 -0.207031 0.390625 -0.179688 0.390625 -0.140625 C 0.390625 -0.117188 0.394531 -0.101562 0.40625 -0.09375 C 0.40625 -0.09375 0.40625 -0.0859375 0.40625 -0.078125 C 0.414062 -0.0664062 0.421875 -0.0546875 0.421875 -0.046875 C 0.421875 -0.0351562 0.414062 -0.0195312 0.40625 0 C 0.394531 0.0078125 0.382812 0.015625 0.375 0.015625 C 0.351562 0.015625 0.328125 0.0078125 0.296875 0 C 0.273438 0 0.25 0 0.21875 0 C 0.164062 0 0.117188 0.00390625 0.078125 0.015625 L 0.046875 0.015625 C 0.0234375 0.015625 0.0078125 0.0078125 0 0 C -0.0078125 -0.0078125 -0.015625 -0.0234375 -0.015625 -0.046875 C -0.015625 -0.0546875 -0.0078125 -0.0625 0 -0.0625 C 0 -0.0703125 0.00390625 -0.0859375 0.015625 -0.109375 C 0.0234375 -0.117188 0.03125 -0.128906 0.03125 -0.140625 C 0.0390625 -0.160156 0.0507812 -0.203125 0.0625 -0.265625 C 0.0703125 -0.347656 0.0976562 -0.46875 0.140625 -0.625 C 0.179688 -0.789062 0.226562 -0.9375 0.28125 -1.0625 Z M 0.515625 -0.828125 C 0.472656 -0.710938 0.453125 -0.628906 0.453125 -0.578125 C 0.453125 -0.566406 0.457031 -0.554688 0.46875 -0.546875 C 0.476562 -0.546875 0.492188 -0.546875 0.515625 -0.546875 L 0.609375 -0.546875 C 0.640625 -0.546875 0.65625 -0.554688 0.65625 -0.578125 C 0.65625 -0.609375 0.648438 -0.644531 0.640625 -0.6875 C 0.628906 -0.738281 0.625 -0.769531 0.625 -0.78125 C 0.59375 -0.863281 0.570312 -0.90625 0.5625 -0.90625 C 0.550781 -0.90625 0.539062 -0.898438 0.53125 -0.890625 C 0.53125 -0.878906 0.523438 -0.859375 0.515625 -0.828125 Z M 0.515625 -0.828125 "/></g></g></g><g clip-path="url(#e7cbc447e3)"><path fill="#ffffff" d="M 19.800781 19.835938 L 23.960938 19.835938 C 24.375 19.835938 24.71875 19.492188 24.71875 19.078125 C 24.71875 18.667969 24.375 18.324219 23.960938 18.324219 L 16.425781 18.324219 C 16.015625 18.324219 15.671875 17.980469 15.671875 17.566406 C 15.671875 17.152344 16.015625 16.808594 16.425781 16.808594 L 18.992188 16.808594 C 19.402344 16.808594 19.746094 16.464844 19.746094 16.050781 C 19.746094 15.640625 19.402344 15.296875 18.992188 15.296875 L 13.914062 15.296875 C 13.503906 15.296875 13.160156 14.953125 13.160156 14.539062 C 13.160156 14.125 13.503906 13.78125 13.914062 13.78125 L 16.996094 13.78125 C 17.40625 13.78125 17.75 13.4375 17.75 13.023438 C 17.75 12.613281 17.40625 12.269531 16.996094 12.269531 L 11.214844 12.269531 C 10.800781 12.269531 10.457031 11.925781 10.457031 11.511719 C 10.457031 11.097656 10.800781 10.753906 11.214844 10.753906 L 14.089844 10.753906 C 14.484375 10.71875 14.792969 10.410156 14.792969 10.015625 C 14.792969 9.652344 14.519531 9.34375 14.175781 9.273438 L 12.625 9.273438 C 12.214844 9.273438 11.867188 8.929688 11.867188 8.519531 C 11.867188 8.105469 12.214844 7.761719 12.625 7.761719 L 14.894531 7.761719 C 14.964844 7.761719 15.015625 7.761719 15.070312 7.777344 L 15.636719 7.777344 C 16.050781 7.777344 16.394531 7.433594 16.394531 7.023438 C 16.394531 6.609375 16.050781 6.265625 15.636719 6.265625 L 12.933594 6.265625 C 12.902344 6.265625 12.847656 6.28125 12.816406 6.28125 L 8.617188 6.28125 C 8.207031 6.28125 7.859375 5.9375 7.859375 5.523438 C 7.859375 5.113281 8.207031 4.769531 8.617188 4.769531 L 11.335938 4.769531 C 11.75 4.769531 12.09375 4.425781 12.09375 4.011719 C 12.09375 3.648438 11.816406 3.339844 11.472656 3.273438 L 9.632812 3.273438 C 9.21875 3.273438 8.875 2.925781 8.875 2.515625 C 8.875 2.101562 9.21875 1.757812 9.632812 1.757812 L 15.601562 1.757812 C 16.082031 1.757812 16.511719 2 16.753906 2.410156 L 22.585938 12.214844 C 22.828125 12.628906 23.257812 12.871094 23.738281 12.871094 C 24.21875 12.871094 24.632812 12.644531 24.890625 12.214844 L 30.84375 2.394531 C 31.101562 1.980469 31.511719 1.742188 31.996094 1.742188 L 36.5 1.742188 C 37 1.742188 37.429688 2 37.671875 2.429688 C 37.910156 2.875 37.894531 3.375 37.621094 3.789062 L 27.296875 19.957031 C 27.160156 20.179688 27.09375 20.402344 27.09375 20.679688 L 27.09375 31.242188 C 27.09375 31.980469 26.488281 32.582031 25.75 32.582031 L 19.695312 32.582031 C 19.679688 32.53125 19.679688 32.460938 19.679688 32.394531 C 19.679688 31.996094 19.972656 31.6875 20.347656 31.652344 L 21.019531 31.652344 C 21.433594 31.652344 21.777344 31.308594 21.777344 30.898438 C 21.777344 30.484375 21.433594 30.140625 21.019531 30.140625 L 15.875 30.140625 C 15.464844 30.140625 15.121094 29.796875 15.121094 29.382812 C 15.121094 28.96875 15.464844 28.625 15.875 28.625 L 20.28125 28.625 C 20.675781 28.609375 21.019531 28.28125 21.019531 27.871094 C 21.019531 27.457031 20.691406 27.128906 20.28125 27.113281 L 20.160156 27.113281 C 19.746094 27.113281 19.402344 26.769531 19.402344 26.355469 C 19.402344 25.941406 19.746094 25.597656 20.160156 25.597656 L 22.378906 25.597656 C 22.792969 25.597656 23.136719 25.253906 23.136719 24.84375 C 23.136719 24.429688 22.792969 24.085938 22.378906 24.085938 L 19.25 24.085938 C 18.835938 24.085938 18.492188 23.742188 18.492188 23.328125 C 18.492188 22.914062 18.835938 22.570312 19.25 22.570312 L 21.261719 22.570312 C 21.671875 22.570312 22.019531 22.226562 22.019531 21.816406 C 22.019531 21.402344 21.671875 21.058594 21.261719 21.058594 L 18.148438 21.058594 C 17.734375 21.058594 17.390625 20.714844 17.390625 20.300781 C 17.390625 19.886719 17.734375 19.542969 18.148438 19.542969 L 19.800781 19.542969 Z M 9.632812 13.851562 L 11.765625 13.851562 C 12.179688 13.851562 12.523438 14.195312 12.523438 14.605469 C 12.523438 15.019531 12.179688 15.363281 11.765625 15.363281 L 9.632812 15.363281 C 9.21875 15.363281 8.875 15.019531 8.875 14.605469 C 8.894531 14.175781 9.21875 13.851562 9.632812 13.851562 Z M 5.898438 4.90625 L 6.863281 4.90625 C 7.277344 4.90625 7.621094 5.25 7.621094 5.664062 C 7.621094 6.074219 7.277344 6.417969 6.863281 6.417969 L 5.898438 6.417969 C 5.488281 6.417969 5.144531 6.074219 5.144531 5.664062 C 5.144531 5.234375 5.488281 4.90625 5.898438 4.90625 Z M 14.621094 19.835938 L 15.585938 19.835938 C 15.996094 19.835938 16.339844 20.179688 16.339844 20.59375 C 16.339844 21.007812 15.996094 21.351562 15.585938 21.351562 L 14.621094 21.351562 C 14.207031 21.351562 13.863281 21.007812 13.863281 20.59375 C 13.882812 20.179688 14.207031 19.835938 14.621094 19.835938 Z M 14.121094 22.828125 L 17.082031 22.828125 C 17.492188 22.828125 17.835938 23.171875 17.835938 23.585938 C 17.835938 24 17.492188 24.34375 17.082031 24.34375 L 14.121094 24.34375 C 13.710938 24.34375 13.367188 24 13.367188 23.585938 C 13.382812 23.171875 13.710938 22.828125 14.121094 22.828125 Z M 12.644531 16.84375 L 13.863281 16.84375 C 14.277344 16.84375 14.621094 17.1875 14.621094 17.601562 C 14.621094 18.011719 14.277344 18.355469 13.863281 18.355469 L 12.644531 18.355469 C 12.230469 18.355469 11.886719 18.011719 11.886719 17.601562 C 11.886719 17.1875 12.230469 16.84375 12.644531 16.84375 Z M 17.046875 25.839844 L 18.011719 25.839844 C 18.421875 25.839844 18.765625 26.183594 18.765625 26.597656 C 18.765625 27.007812 18.421875 27.355469 18.011719 27.355469 L 17.046875 27.355469 C 16.632812 27.355469 16.289062 27.007812 16.289062 26.597656 C 16.289062 26.167969 16.632812 25.839844 17.046875 25.839844 Z M 8 19.835938 L 12.023438 19.835938 C 12.4375 19.835938 12.78125 20.179688 12.78125 20.59375 C 12.78125 21.007812 12.4375 21.351562 12.023438 21.351562 L 8 21.351562 C 7.585938 21.351562 7.242188 21.007812 7.242188 20.59375 C 7.257812 20.179688 7.585938 19.835938 8 19.835938 Z M 8 19.835938 " fill-opacity="1" fill-rule="evenodd"/></g></svg>