<svg xmlns="http://www.w3.org/2000/svg" xmlns:xlink="http://www.w3.org/1999/xlink" width="108" zoomAndPan="magnify" viewBox="0 0 81 34.499999" height="46" preserveAspectRatio="xMidYMid meet" version="1.0"><defs><g/><clipPath id="2ba97c5394"><path d="M 31.535156 6.949219 L 49.277344 6.949219 L 49.277344 23.953125 L 31.535156 23.953125 Z M 31.535156 6.949219 " clip-rule="nonzero"/></clipPath></defs><g fill="#ffffff" fill-opacity="1"><g transform="translate(32.534772, 26.676932)"><g><path d="M 0.046875 -1.75 C 0.0546875 -1.75 0.0859375 -1.742188 0.140625 -1.734375 C 0.203125 -1.734375 0.265625 -1.734375 0.328125 -1.734375 C 0.398438 -1.734375 0.460938 -1.734375 0.515625 -1.734375 C 0.566406 -1.742188 0.601562 -1.75 0.625 -1.75 C 0.65625 -1.75 0.675781 -1.738281 0.6875 -1.71875 C 0.695312 -1.707031 0.703125 -1.691406 0.703125 -1.671875 C 0.703125 -1.648438 0.695312 -1.628906 0.6875 -1.609375 C 0.675781 -1.585938 0.664062 -1.570312 0.65625 -1.5625 C 0.65625 -1.550781 0.65625 -1.535156 0.65625 -1.515625 C 0.65625 -1.460938 0.660156 -1.394531 0.671875 -1.3125 C 0.691406 -1.238281 0.710938 -1.171875 0.734375 -1.109375 C 0.765625 -1.046875 0.789062 -1.015625 0.8125 -1.015625 C 0.832031 -1.015625 0.851562 -1.046875 0.875 -1.109375 C 0.894531 -1.179688 0.910156 -1.257812 0.921875 -1.34375 C 0.941406 -1.425781 0.953125 -1.484375 0.953125 -1.515625 C 0.953125 -1.535156 0.945312 -1.550781 0.9375 -1.5625 C 0.9375 -1.570312 0.929688 -1.582031 0.921875 -1.59375 C 0.910156 -1.613281 0.90625 -1.632812 0.90625 -1.65625 C 0.90625 -1.6875 0.910156 -1.707031 0.921875 -1.71875 C 0.941406 -1.738281 0.960938 -1.75 0.984375 -1.75 C 1.085938 -1.738281 1.179688 -1.734375 1.265625 -1.734375 C 1.316406 -1.734375 1.382812 -1.738281 1.46875 -1.75 C 1.476562 -1.75 1.488281 -1.738281 1.5 -1.71875 C 1.519531 -1.707031 1.53125 -1.691406 1.53125 -1.671875 C 1.53125 -1.648438 1.515625 -1.617188 1.484375 -1.578125 C 1.484375 -1.566406 1.476562 -1.535156 1.46875 -1.484375 C 1.445312 -1.335938 1.410156 -1.195312 1.359375 -1.0625 C 1.316406 -0.925781 1.242188 -0.796875 1.140625 -0.671875 C 1.128906 -0.648438 1.109375 -0.625 1.078125 -0.59375 C 1.054688 -0.570312 1.039062 -0.554688 1.03125 -0.546875 C 1.03125 -0.535156 1.03125 -0.519531 1.03125 -0.5 L 1.03125 -0.265625 C 1.03125 -0.222656 1.03125 -0.191406 1.03125 -0.171875 C 1.039062 -0.160156 1.050781 -0.144531 1.0625 -0.125 C 1.070312 -0.101562 1.078125 -0.0820312 1.078125 -0.0625 C 1.078125 -0.0390625 1.070312 -0.0195312 1.0625 0 C 1.050781 0.0078125 1.03125 0.015625 1 0.015625 C 0.988281 0.015625 0.957031 0.0078125 0.90625 0 C 0.851562 0 0.796875 0 0.734375 0 C 0.671875 0 0.613281 0 0.5625 0 C 0.507812 0.0078125 0.476562 0.015625 0.46875 0.015625 C 0.445312 0.015625 0.425781 0.0078125 0.40625 0 C 0.394531 -0.0195312 0.390625 -0.0390625 0.390625 -0.0625 C 0.390625 -0.0820312 0.398438 -0.101562 0.421875 -0.125 C 0.429688 -0.144531 0.4375 -0.160156 0.4375 -0.171875 C 0.445312 -0.191406 0.453125 -0.21875 0.453125 -0.25 L 0.453125 -0.5 C 0.453125 -0.519531 0.445312 -0.535156 0.4375 -0.546875 C 0.425781 -0.566406 0.398438 -0.597656 0.359375 -0.640625 C 0.253906 -0.753906 0.175781 -0.882812 0.125 -1.03125 C 0.0703125 -1.1875 0.0351562 -1.347656 0.015625 -1.515625 C 0.015625 -1.535156 0.00390625 -1.566406 -0.015625 -1.609375 C -0.0234375 -1.628906 -0.03125 -1.648438 -0.03125 -1.671875 C -0.03125 -1.691406 -0.0195312 -1.707031 0 -1.71875 C 0.0078125 -1.738281 0.0234375 -1.75 0.046875 -1.75 Z M 0.046875 -1.75 "/></g></g></g><g fill="#ffffff" fill-opacity="1"><g transform="translate(34.46111, 26.676932)"><g><path d="M 0.15625 -1.75 C 0.164062 -1.75 0.1875 -1.742188 0.21875 -1.734375 C 0.320312 -1.734375 0.472656 -1.734375 0.671875 -1.734375 C 0.847656 -1.734375 1.007812 -1.734375 1.15625 -1.734375 C 1.175781 -1.742188 1.195312 -1.75 1.21875 -1.75 C 1.238281 -1.75 1.253906 -1.738281 1.265625 -1.71875 C 1.285156 -1.695312 1.296875 -1.664062 1.296875 -1.625 C 1.304688 -1.519531 1.320312 -1.441406 1.34375 -1.390625 C 1.34375 -1.359375 1.34375 -1.34375 1.34375 -1.34375 C 1.34375 -1.320312 1.332031 -1.304688 1.3125 -1.296875 C 1.300781 -1.285156 1.289062 -1.28125 1.28125 -1.28125 C 1.269531 -1.28125 1.253906 -1.28125 1.234375 -1.28125 C 1.222656 -1.28125 1.21875 -1.285156 1.21875 -1.296875 C 1.125 -1.316406 1.015625 -1.328125 0.890625 -1.328125 L 0.75 -1.328125 C 0.71875 -1.328125 0.695312 -1.320312 0.6875 -1.3125 C 0.675781 -1.300781 0.671875 -1.285156 0.671875 -1.265625 L 0.671875 -1.140625 C 0.671875 -1.117188 0.675781 -1.101562 0.6875 -1.09375 C 0.707031 -1.082031 0.734375 -1.078125 0.765625 -1.078125 L 0.9375 -1.078125 C 1 -1.078125 1.050781 -1.082031 1.09375 -1.09375 C 1.132812 -1.113281 1.160156 -1.125 1.171875 -1.125 C 1.203125 -1.125 1.222656 -1.113281 1.234375 -1.09375 C 1.242188 -1.082031 1.25 -1.066406 1.25 -1.046875 C 1.25 -1.035156 1.25 -1.007812 1.25 -0.96875 C 1.25 -0.9375 1.25 -0.910156 1.25 -0.890625 L 1.25 -0.734375 C 1.25 -0.710938 1.238281 -0.691406 1.21875 -0.671875 C 1.207031 -0.660156 1.191406 -0.65625 1.171875 -0.65625 C 1.160156 -0.65625 1.140625 -0.660156 1.109375 -0.671875 C 1.085938 -0.679688 1.0625 -0.6875 1.03125 -0.6875 C 1.007812 -0.695312 0.976562 -0.703125 0.9375 -0.703125 L 0.75 -0.703125 C 0.71875 -0.703125 0.695312 -0.695312 0.6875 -0.6875 C 0.675781 -0.675781 0.671875 -0.660156 0.671875 -0.640625 L 0.671875 -0.515625 C 0.671875 -0.484375 0.675781 -0.460938 0.6875 -0.453125 C 0.695312 -0.453125 0.71875 -0.453125 0.75 -0.453125 C 0.800781 -0.441406 0.851562 -0.4375 0.90625 -0.4375 C 0.988281 -0.4375 1.054688 -0.441406 1.109375 -0.453125 C 1.160156 -0.460938 1.210938 -0.476562 1.265625 -0.5 C 1.285156 -0.507812 1.300781 -0.515625 1.3125 -0.515625 C 1.332031 -0.515625 1.347656 -0.503906 1.359375 -0.484375 C 1.378906 -0.472656 1.390625 -0.457031 1.390625 -0.4375 C 1.390625 -0.425781 1.382812 -0.394531 1.375 -0.34375 C 1.363281 -0.3125 1.351562 -0.265625 1.34375 -0.203125 C 1.332031 -0.148438 1.328125 -0.113281 1.328125 -0.09375 C 1.316406 -0.0625 1.304688 -0.0351562 1.296875 -0.015625 C 1.285156 0.00390625 1.265625 0.015625 1.234375 0.015625 L 1.125 0.015625 C 0.925781 0.00390625 0.753906 0 0.609375 0 C 0.441406 0 0.320312 0 0.25 0 C 0.1875 0.0078125 0.148438 0.015625 0.140625 0.015625 C 0.117188 0.015625 0.0976562 0.0078125 0.078125 0 C 0.0664062 -0.0195312 0.0625 -0.0390625 0.0625 -0.0625 C 0.0625 -0.0703125 0.0625 -0.0820312 0.0625 -0.09375 C 0.0703125 -0.101562 0.0820312 -0.113281 0.09375 -0.125 C 0.101562 -0.144531 0.109375 -0.160156 0.109375 -0.171875 C 0.117188 -0.191406 0.125 -0.21875 0.125 -0.25 L 0.125 -1.484375 C 0.125 -1.515625 0.117188 -1.535156 0.109375 -1.546875 C 0.109375 -1.566406 0.101562 -1.582031 0.09375 -1.59375 C 0.0820312 -1.601562 0.0703125 -1.613281 0.0625 -1.625 C 0.0625 -1.632812 0.0625 -1.648438 0.0625 -1.671875 C 0.0625 -1.691406 0.0664062 -1.707031 0.078125 -1.71875 C 0.0976562 -1.738281 0.125 -1.75 0.15625 -1.75 Z M 0.15625 -1.75 "/></g></g></g><g fill="#ffffff" fill-opacity="1"><g transform="translate(36.30515, 26.676932)"><g><path d="M 0.0625 -1.75 C 0.21875 -1.738281 0.320312 -1.734375 0.375 -1.734375 C 0.414062 -1.734375 0.5 -1.738281 0.625 -1.75 C 0.644531 -1.75 0.660156 -1.738281 0.671875 -1.71875 C 0.691406 -1.707031 0.703125 -1.691406 0.703125 -1.671875 C 0.703125 -1.648438 0.695312 -1.628906 0.6875 -1.609375 C 0.675781 -1.597656 0.664062 -1.582031 0.65625 -1.5625 C 0.65625 -1.550781 0.65625 -1.535156 0.65625 -1.515625 C 0.65625 -1.472656 0.660156 -1.398438 0.671875 -1.296875 C 0.691406 -1.203125 0.707031 -1.109375 0.71875 -1.015625 C 0.738281 -0.929688 0.753906 -0.863281 0.765625 -0.8125 C 0.773438 -0.769531 0.78125 -0.742188 0.78125 -0.734375 C 0.789062 -0.722656 0.800781 -0.71875 0.8125 -0.71875 C 0.832031 -0.71875 0.851562 -0.773438 0.875 -0.890625 C 0.894531 -1.003906 0.910156 -1.128906 0.921875 -1.265625 C 0.941406 -1.410156 0.953125 -1.5 0.953125 -1.53125 C 0.953125 -1.539062 0.945312 -1.550781 0.9375 -1.5625 C 0.925781 -1.582031 0.921875 -1.59375 0.921875 -1.59375 C 0.910156 -1.625 0.90625 -1.644531 0.90625 -1.65625 C 0.90625 -1.675781 0.910156 -1.695312 0.921875 -1.71875 C 0.929688 -1.738281 0.945312 -1.75 0.96875 -1.75 C 1.082031 -1.738281 1.171875 -1.734375 1.234375 -1.734375 C 1.253906 -1.734375 1.285156 -1.734375 1.328125 -1.734375 C 1.378906 -1.742188 1.421875 -1.75 1.453125 -1.75 C 1.472656 -1.75 1.488281 -1.738281 1.5 -1.71875 C 1.507812 -1.707031 1.515625 -1.6875 1.515625 -1.65625 C 1.515625 -1.65625 1.507812 -1.648438 1.5 -1.640625 C 1.5 -1.628906 1.492188 -1.613281 1.484375 -1.59375 C 1.484375 -1.59375 1.476562 -1.585938 1.46875 -1.578125 C 1.46875 -1.566406 1.460938 -1.535156 1.453125 -1.484375 C 1.441406 -1.441406 1.429688 -1.378906 1.421875 -1.296875 C 1.398438 -1.179688 1.363281 -1.023438 1.3125 -0.828125 C 1.269531 -0.628906 1.226562 -0.457031 1.1875 -0.3125 C 1.15625 -0.21875 1.125 -0.144531 1.09375 -0.09375 C 1.070312 -0.0390625 1.050781 -0.0078125 1.03125 0 C 1.019531 0.0078125 1.003906 0.015625 0.984375 0.015625 C 0.878906 0.00390625 0.800781 0 0.75 0 C 0.707031 0 0.660156 0 0.609375 0 C 0.566406 0.0078125 0.53125 0.015625 0.5 0.015625 C 0.46875 0.015625 0.429688 -0.0195312 0.390625 -0.09375 C 0.359375 -0.164062 0.320312 -0.273438 0.28125 -0.421875 C 0.226562 -0.597656 0.179688 -0.785156 0.140625 -0.984375 C 0.0976562 -1.179688 0.0703125 -1.320312 0.0625 -1.40625 C 0.0507812 -1.488281 0.03125 -1.554688 0 -1.609375 C -0.0078125 -1.617188 -0.015625 -1.628906 -0.015625 -1.640625 C -0.015625 -1.648438 -0.015625 -1.65625 -0.015625 -1.65625 C -0.015625 -1.6875 -0.0078125 -1.707031 0 -1.71875 C 0.0195312 -1.738281 0.0390625 -1.75 0.0625 -1.75 Z M 0.0625 -1.75 "/></g></g></g><g fill="#ffffff" fill-opacity="1"><g transform="translate(38.235937, 26.676932)"><g><path d="M 0.140625 -1.75 C 0.171875 -1.75 0.207031 -1.742188 0.25 -1.734375 C 0.300781 -1.734375 0.347656 -1.734375 0.390625 -1.734375 C 0.421875 -1.734375 0.460938 -1.734375 0.515625 -1.734375 C 0.578125 -1.742188 0.617188 -1.75 0.640625 -1.75 C 0.671875 -1.75 0.691406 -1.738281 0.703125 -1.71875 C 0.710938 -1.707031 0.71875 -1.6875 0.71875 -1.65625 C 0.71875 -1.632812 0.710938 -1.613281 0.703125 -1.59375 C 0.691406 -1.582031 0.679688 -1.566406 0.671875 -1.546875 C 0.671875 -1.523438 0.671875 -1.492188 0.671875 -1.453125 L 0.671875 -1.1875 C 0.671875 -1.15625 0.675781 -1.132812 0.6875 -1.125 C 0.695312 -1.113281 0.71875 -1.109375 0.75 -1.109375 L 0.875 -1.109375 C 0.90625 -1.109375 0.925781 -1.113281 0.9375 -1.125 C 0.945312 -1.132812 0.953125 -1.160156 0.953125 -1.203125 L 0.953125 -1.46875 C 0.953125 -1.507812 0.945312 -1.535156 0.9375 -1.546875 C 0.9375 -1.566406 0.929688 -1.585938 0.921875 -1.609375 C 0.910156 -1.628906 0.90625 -1.648438 0.90625 -1.671875 C 0.90625 -1.691406 0.910156 -1.707031 0.921875 -1.71875 C 0.929688 -1.738281 0.953125 -1.75 0.984375 -1.75 C 1.097656 -1.738281 1.175781 -1.734375 1.21875 -1.734375 C 1.257812 -1.734375 1.304688 -1.734375 1.359375 -1.734375 C 1.421875 -1.742188 1.460938 -1.75 1.484375 -1.75 C 1.503906 -1.75 1.519531 -1.738281 1.53125 -1.71875 C 1.550781 -1.707031 1.5625 -1.691406 1.5625 -1.671875 C 1.5625 -1.648438 1.554688 -1.628906 1.546875 -1.609375 C 1.535156 -1.585938 1.523438 -1.566406 1.515625 -1.546875 C 1.515625 -1.535156 1.515625 -1.515625 1.515625 -1.484375 L 1.515625 -0.25 C 1.515625 -0.21875 1.515625 -0.191406 1.515625 -0.171875 C 1.523438 -0.148438 1.535156 -0.132812 1.546875 -0.125 C 1.546875 -0.113281 1.546875 -0.101562 1.546875 -0.09375 C 1.554688 -0.0820312 1.5625 -0.0703125 1.5625 -0.0625 C 1.5625 -0.0390625 1.550781 -0.0195312 1.53125 0 C 1.519531 0.0078125 1.503906 0.015625 1.484375 0.015625 C 1.367188 0.00390625 1.28125 0 1.21875 0 C 1.144531 0 1.085938 0 1.046875 0 C 1.003906 0.0078125 0.976562 0.015625 0.96875 0.015625 C 0.945312 0.015625 0.929688 0.0078125 0.921875 0 C 0.910156 -0.0195312 0.90625 -0.0390625 0.90625 -0.0625 C 0.90625 -0.0820312 0.910156 -0.101562 0.921875 -0.125 C 0.941406 -0.15625 0.953125 -0.179688 0.953125 -0.203125 C 0.953125 -0.253906 0.953125 -0.363281 0.953125 -0.53125 C 0.953125 -0.582031 0.945312 -0.613281 0.9375 -0.625 C 0.925781 -0.644531 0.90625 -0.65625 0.875 -0.65625 L 0.75 -0.65625 C 0.71875 -0.65625 0.695312 -0.644531 0.6875 -0.625 C 0.675781 -0.613281 0.671875 -0.59375 0.671875 -0.5625 L 0.671875 -0.25 C 0.671875 -0.21875 0.671875 -0.191406 0.671875 -0.171875 C 0.679688 -0.160156 0.691406 -0.144531 0.703125 -0.125 C 0.710938 -0.101562 0.71875 -0.0820312 0.71875 -0.0625 C 0.71875 -0.0390625 0.710938 -0.0195312 0.703125 0 C 0.691406 0.0078125 0.675781 0.015625 0.65625 0.015625 C 0.644531 0.015625 0.609375 0.0078125 0.546875 0 C 0.492188 0 0.445312 0 0.40625 0 C 0.351562 0 0.265625 0.00390625 0.140625 0.015625 C 0.117188 0.015625 0.0976562 0.0078125 0.078125 0 C 0.0664062 -0.0195312 0.0625 -0.0390625 0.0625 -0.0625 C 0.0625 -0.0820312 0.0703125 -0.101562 0.09375 -0.125 C 0.101562 -0.144531 0.109375 -0.160156 0.109375 -0.171875 C 0.117188 -0.191406 0.125 -0.21875 0.125 -0.25 L 0.125 -1.484375 C 0.125 -1.515625 0.117188 -1.535156 0.109375 -1.546875 C 0.109375 -1.566406 0.101562 -1.582031 0.09375 -1.59375 C 0.0820312 -1.601562 0.0703125 -1.613281 0.0625 -1.625 C 0.0625 -1.632812 0.0625 -1.648438 0.0625 -1.671875 C 0.0625 -1.691406 0.0664062 -1.707031 0.078125 -1.71875 C 0.0976562 -1.738281 0.117188 -1.75 0.140625 -1.75 Z M 0.140625 -1.75 "/></g></g></g><g fill="#ffffff" fill-opacity="1"><g transform="translate(40.293508, 26.676932)"><g><path d="M 0.15625 -1.75 C 0.164062 -1.75 0.1875 -1.742188 0.21875 -1.734375 C 0.320312 -1.734375 0.472656 -1.734375 0.671875 -1.734375 C 0.847656 -1.734375 1.007812 -1.734375 1.15625 -1.734375 C 1.175781 -1.742188 1.195312 -1.75 1.21875 -1.75 C 1.238281 -1.75 1.253906 -1.738281 1.265625 -1.71875 C 1.285156 -1.695312 1.296875 -1.664062 1.296875 -1.625 C 1.304688 -1.519531 1.320312 -1.441406 1.34375 -1.390625 C 1.34375 -1.359375 1.34375 -1.34375 1.34375 -1.34375 C 1.34375 -1.320312 1.332031 -1.304688 1.3125 -1.296875 C 1.300781 -1.285156 1.289062 -1.28125 1.28125 -1.28125 C 1.269531 -1.28125 1.253906 -1.28125 1.234375 -1.28125 C 1.222656 -1.28125 1.21875 -1.285156 1.21875 -1.296875 C 1.125 -1.316406 1.015625 -1.328125 0.890625 -1.328125 L 0.75 -1.328125 C 0.71875 -1.328125 0.695312 -1.320312 0.6875 -1.3125 C 0.675781 -1.300781 0.671875 -1.285156 0.671875 -1.265625 L 0.671875 -1.140625 C 0.671875 -1.117188 0.675781 -1.101562 0.6875 -1.09375 C 0.707031 -1.082031 0.734375 -1.078125 0.765625 -1.078125 L 0.9375 -1.078125 C 1 -1.078125 1.050781 -1.082031 1.09375 -1.09375 C 1.132812 -1.113281 1.160156 -1.125 1.171875 -1.125 C 1.203125 -1.125 1.222656 -1.113281 1.234375 -1.09375 C 1.242188 -1.082031 1.25 -1.066406 1.25 -1.046875 C 1.25 -1.035156 1.25 -1.007812 1.25 -0.96875 C 1.25 -0.9375 1.25 -0.910156 1.25 -0.890625 L 1.25 -0.734375 C 1.25 -0.710938 1.238281 -0.691406 1.21875 -0.671875 C 1.207031 -0.660156 1.191406 -0.65625 1.171875 -0.65625 C 1.160156 -0.65625 1.140625 -0.660156 1.109375 -0.671875 C 1.085938 -0.679688 1.0625 -0.6875 1.03125 -0.6875 C 1.007812 -0.695312 0.976562 -0.703125 0.9375 -0.703125 L 0.75 -0.703125 C 0.71875 -0.703125 0.695312 -0.695312 0.6875 -0.6875 C 0.675781 -0.675781 0.671875 -0.660156 0.671875 -0.640625 L 0.671875 -0.515625 C 0.671875 -0.484375 0.675781 -0.460938 0.6875 -0.453125 C 0.695312 -0.453125 0.71875 -0.453125 0.75 -0.453125 C 0.800781 -0.441406 0.851562 -0.4375 0.90625 -0.4375 C 0.988281 -0.4375 1.054688 -0.441406 1.109375 -0.453125 C 1.160156 -0.460938 1.210938 -0.476562 1.265625 -0.5 C 1.285156 -0.507812 1.300781 -0.515625 1.3125 -0.515625 C 1.332031 -0.515625 1.347656 -0.503906 1.359375 -0.484375 C 1.378906 -0.472656 1.390625 -0.457031 1.390625 -0.4375 C 1.390625 -0.425781 1.382812 -0.394531 1.375 -0.34375 C 1.363281 -0.3125 1.351562 -0.265625 1.34375 -0.203125 C 1.332031 -0.148438 1.328125 -0.113281 1.328125 -0.09375 C 1.316406 -0.0625 1.304688 -0.0351562 1.296875 -0.015625 C 1.285156 0.00390625 1.265625 0.015625 1.234375 0.015625 L 1.125 0.015625 C 0.925781 0.00390625 0.753906 0 0.609375 0 C 0.441406 0 0.320312 0 0.25 0 C 0.1875 0.0078125 0.148438 0.015625 0.140625 0.015625 C 0.117188 0.015625 0.0976562 0.0078125 0.078125 0 C 0.0664062 -0.0195312 0.0625 -0.0390625 0.0625 -0.0625 C 0.0625 -0.0703125 0.0625 -0.0820312 0.0625 -0.09375 C 0.0703125 -0.101562 0.0820312 -0.113281 0.09375 -0.125 C 0.101562 -0.144531 0.109375 -0.160156 0.109375 -0.171875 C 0.117188 -0.191406 0.125 -0.21875 0.125 -0.25 L 0.125 -1.484375 C 0.125 -1.515625 0.117188 -1.535156 0.109375 -1.546875 C 0.109375 -1.566406 0.101562 -1.582031 0.09375 -1.59375 C 0.0820312 -1.601562 0.0703125 -1.613281 0.0625 -1.625 C 0.0625 -1.632812 0.0625 -1.648438 0.0625 -1.671875 C 0.0625 -1.691406 0.0664062 -1.707031 0.078125 -1.71875 C 0.0976562 -1.738281 0.125 -1.75 0.15625 -1.75 Z M 0.15625 -1.75 "/></g></g></g><g fill="#ffffff" fill-opacity="1"><g transform="translate(42.137547, 26.676932)"><g><path d="M 0.140625 -1.75 C 0.171875 -1.75 0.195312 -1.742188 0.21875 -1.734375 C 0.238281 -1.734375 0.269531 -1.734375 0.3125 -1.734375 C 0.351562 -1.734375 0.390625 -1.734375 0.421875 -1.734375 C 0.460938 -1.734375 0.5 -1.734375 0.53125 -1.734375 C 0.570312 -1.742188 0.601562 -1.75 0.625 -1.75 C 0.644531 -1.75 0.660156 -1.738281 0.671875 -1.71875 C 0.691406 -1.695312 0.710938 -1.671875 0.734375 -1.640625 L 1.0625 -0.984375 C 1.082031 -0.953125 1.101562 -0.9375 1.125 -0.9375 C 1.132812 -0.9375 1.140625 -0.945312 1.140625 -0.96875 C 1.140625 -0.976562 1.140625 -0.988281 1.140625 -1 C 1.140625 -1.019531 1.140625 -1.035156 1.140625 -1.046875 L 1.140625 -1.4375 C 1.140625 -1.488281 1.132812 -1.523438 1.125 -1.546875 C 1.125 -1.566406 1.117188 -1.585938 1.109375 -1.609375 C 1.097656 -1.617188 1.09375 -1.628906 1.09375 -1.640625 C 1.09375 -1.648438 1.09375 -1.660156 1.09375 -1.671875 C 1.09375 -1.691406 1.097656 -1.707031 1.109375 -1.71875 C 1.117188 -1.738281 1.132812 -1.75 1.15625 -1.75 C 1.28125 -1.738281 1.351562 -1.734375 1.375 -1.734375 C 1.40625 -1.734375 1.4375 -1.734375 1.46875 -1.734375 C 1.507812 -1.742188 1.546875 -1.75 1.578125 -1.75 C 1.597656 -1.75 1.613281 -1.738281 1.625 -1.71875 C 1.644531 -1.707031 1.65625 -1.691406 1.65625 -1.671875 C 1.65625 -1.660156 1.648438 -1.648438 1.640625 -1.640625 C 1.640625 -1.628906 1.632812 -1.617188 1.625 -1.609375 C 1.613281 -1.585938 1.601562 -1.566406 1.59375 -1.546875 C 1.59375 -1.535156 1.59375 -1.507812 1.59375 -1.46875 L 1.59375 -0.234375 C 1.59375 -0.203125 1.59375 -0.175781 1.59375 -0.15625 C 1.601562 -0.144531 1.613281 -0.132812 1.625 -0.125 C 1.644531 -0.101562 1.65625 -0.0820312 1.65625 -0.0625 C 1.65625 -0.0390625 1.644531 -0.0195312 1.625 0 C 1.613281 0.0078125 1.597656 0.015625 1.578125 0.015625 C 1.546875 0.015625 1.519531 0.015625 1.5 0.015625 C 1.488281 0.015625 1.460938 0.0078125 1.421875 0 C 1.390625 0 1.359375 0 1.328125 0 C 1.296875 0 1.21875 0.00390625 1.09375 0.015625 C 1.070312 0.015625 1.050781 0.0078125 1.03125 0 C 1.019531 -0.0195312 1.003906 -0.046875 0.984375 -0.078125 L 0.640625 -0.75 C 0.628906 -0.769531 0.617188 -0.78125 0.609375 -0.78125 C 0.609375 -0.789062 0.601562 -0.796875 0.59375 -0.796875 C 0.570312 -0.796875 0.5625 -0.785156 0.5625 -0.765625 L 0.5625 -0.25 C 0.5625 -0.21875 0.5625 -0.191406 0.5625 -0.171875 C 0.570312 -0.160156 0.582031 -0.144531 0.59375 -0.125 C 0.613281 -0.101562 0.625 -0.0820312 0.625 -0.0625 C 0.625 -0.0390625 0.613281 -0.0195312 0.59375 0 C 0.582031 0.0078125 0.566406 0.015625 0.546875 0.015625 C 0.484375 0.00390625 0.4375 0 0.40625 0 C 0.375 0 0.347656 0 0.328125 0 C 0.304688 0 0.269531 0 0.21875 0 C 0.164062 0.0078125 0.140625 0.015625 0.140625 0.015625 C 0.117188 0.015625 0.0976562 0.0078125 0.078125 0 C 0.0664062 -0.0195312 0.0625 -0.0390625 0.0625 -0.0625 C 0.0625 -0.0820312 0.0664062 -0.101562 0.078125 -0.125 C 0.0976562 -0.132812 0.109375 -0.148438 0.109375 -0.171875 C 0.117188 -0.191406 0.125 -0.222656 0.125 -0.265625 L 0.125 -1.46875 C 0.125 -1.507812 0.117188 -1.535156 0.109375 -1.546875 C 0.109375 -1.566406 0.101562 -1.585938 0.09375 -1.609375 C 0.0820312 -1.617188 0.0703125 -1.625 0.0625 -1.625 C 0.0625 -1.632812 0.0625 -1.648438 0.0625 -1.671875 C 0.0625 -1.691406 0.0664062 -1.707031 0.078125 -1.71875 C 0.0976562 -1.738281 0.117188 -1.75 0.140625 -1.75 Z M 0.140625 -1.75 "/></g></g></g><g fill="#ffffff" fill-opacity="1"><g transform="translate(44.284089, 26.676932)"><g><path d="M 0.15625 -1.75 C 0.175781 -1.75 0.207031 -1.742188 0.25 -1.734375 C 0.289062 -1.734375 0.34375 -1.734375 0.40625 -1.734375 C 0.457031 -1.734375 0.550781 -1.738281 0.6875 -1.75 C 0.707031 -1.75 0.722656 -1.738281 0.734375 -1.71875 C 0.753906 -1.707031 0.765625 -1.691406 0.765625 -1.671875 C 0.765625 -1.648438 0.757812 -1.632812 0.75 -1.625 C 0.75 -1.613281 0.742188 -1.609375 0.734375 -1.609375 C 0.722656 -1.597656 0.710938 -1.578125 0.703125 -1.546875 C 0.703125 -1.523438 0.703125 -1.488281 0.703125 -1.4375 L 0.703125 -0.234375 C 0.703125 -0.210938 0.703125 -0.191406 0.703125 -0.171875 C 0.710938 -0.160156 0.722656 -0.144531 0.734375 -0.125 C 0.734375 -0.125 0.738281 -0.117188 0.75 -0.109375 C 0.757812 -0.0976562 0.765625 -0.0820312 0.765625 -0.0625 C 0.765625 -0.0390625 0.753906 -0.0195312 0.734375 0 C 0.722656 0.0078125 0.707031 0.015625 0.6875 0.015625 C 0.570312 0.00390625 0.484375 0 0.421875 0 C 0.367188 0 0.273438 0.00390625 0.140625 0.015625 C 0.117188 0.015625 0.0976562 0.0078125 0.078125 0 C 0.0664062 -0.0195312 0.0625 -0.0390625 0.0625 -0.0625 C 0.0625 -0.0820312 0.0664062 -0.101562 0.078125 -0.125 C 0.0976562 -0.144531 0.109375 -0.160156 0.109375 -0.171875 C 0.117188 -0.191406 0.125 -0.21875 0.125 -0.25 L 0.125 -1.484375 C 0.125 -1.515625 0.117188 -1.535156 0.109375 -1.546875 C 0.109375 -1.566406 0.101562 -1.585938 0.09375 -1.609375 C 0.0820312 -1.609375 0.0703125 -1.613281 0.0625 -1.625 C 0.0625 -1.632812 0.0625 -1.648438 0.0625 -1.671875 C 0.0625 -1.691406 0.0664062 -1.707031 0.078125 -1.71875 C 0.0976562 -1.738281 0.125 -1.75 0.15625 -1.75 Z M 0.15625 -1.75 "/></g></g></g><g fill="#ffffff" fill-opacity="1"><g transform="translate(45.53647, 26.676932)"><g><path d="M 0.15625 -1.75 C 0.175781 -1.75 0.207031 -1.742188 0.25 -1.734375 C 0.289062 -1.734375 0.34375 -1.734375 0.40625 -1.734375 C 0.457031 -1.734375 0.550781 -1.738281 0.6875 -1.75 C 0.707031 -1.75 0.722656 -1.738281 0.734375 -1.71875 C 0.753906 -1.707031 0.765625 -1.691406 0.765625 -1.671875 C 0.765625 -1.648438 0.757812 -1.632812 0.75 -1.625 C 0.75 -1.613281 0.742188 -1.609375 0.734375 -1.609375 C 0.722656 -1.597656 0.710938 -1.578125 0.703125 -1.546875 C 0.703125 -1.523438 0.703125 -1.488281 0.703125 -1.4375 L 0.703125 -0.234375 C 0.703125 -0.210938 0.703125 -0.191406 0.703125 -0.171875 C 0.710938 -0.160156 0.722656 -0.144531 0.734375 -0.125 C 0.734375 -0.125 0.738281 -0.117188 0.75 -0.109375 C 0.757812 -0.0976562 0.765625 -0.0820312 0.765625 -0.0625 C 0.765625 -0.0390625 0.753906 -0.0195312 0.734375 0 C 0.722656 0.0078125 0.707031 0.015625 0.6875 0.015625 C 0.570312 0.00390625 0.484375 0 0.421875 0 C 0.367188 0 0.273438 0.00390625 0.140625 0.015625 C 0.117188 0.015625 0.0976562 0.0078125 0.078125 0 C 0.0664062 -0.0195312 0.0625 -0.0390625 0.0625 -0.0625 C 0.0625 -0.0820312 0.0664062 -0.101562 0.078125 -0.125 C 0.0976562 -0.144531 0.109375 -0.160156 0.109375 -0.171875 C 0.117188 -0.191406 0.125 -0.21875 0.125 -0.25 L 0.125 -1.484375 C 0.125 -1.515625 0.117188 -1.535156 0.109375 -1.546875 C 0.109375 -1.566406 0.101562 -1.585938 0.09375 -1.609375 C 0.0820312 -1.609375 0.0703125 -1.613281 0.0625 -1.625 C 0.0625 -1.632812 0.0625 -1.648438 0.0625 -1.671875 C 0.0625 -1.691406 0.0664062 -1.707031 0.078125 -1.71875 C 0.0976562 -1.738281 0.125 -1.75 0.15625 -1.75 Z M 0.15625 -1.75 "/></g></g></g><g fill="#ffffff" fill-opacity="1"><g transform="translate(46.788851, 26.676932)"><g><path d="M 0.40625 -1.5 C 0.4375 -1.582031 0.460938 -1.644531 0.484375 -1.6875 C 0.515625 -1.726562 0.539062 -1.75 0.5625 -1.75 C 0.570312 -1.75 0.609375 -1.742188 0.671875 -1.734375 C 0.734375 -1.734375 0.796875 -1.734375 0.859375 -1.734375 C 0.910156 -1.734375 1 -1.738281 1.125 -1.75 C 1.15625 -1.75 1.179688 -1.726562 1.203125 -1.6875 C 1.222656 -1.644531 1.25 -1.585938 1.28125 -1.515625 C 1.363281 -1.316406 1.429688 -1.109375 1.484375 -0.890625 C 1.535156 -0.671875 1.578125 -0.460938 1.609375 -0.265625 C 1.617188 -0.234375 1.625 -0.207031 1.625 -0.1875 C 1.632812 -0.164062 1.644531 -0.144531 1.65625 -0.125 C 1.664062 -0.113281 1.671875 -0.101562 1.671875 -0.09375 C 1.679688 -0.09375 1.6875 -0.0820312 1.6875 -0.0625 C 1.6875 -0.0390625 1.679688 -0.0195312 1.671875 0 C 1.660156 0.0078125 1.640625 0.015625 1.609375 0.015625 C 1.609375 0.015625 1.570312 0.0078125 1.5 0 C 1.4375 0 1.375 0 1.3125 0 C 1.238281 0 1.175781 0 1.125 0 C 1.082031 0.0078125 1.054688 0.015625 1.046875 0.015625 C 1.023438 0.015625 1.003906 0.0078125 0.984375 0 C 0.972656 -0.0195312 0.96875 -0.0390625 0.96875 -0.0625 C 0.96875 -0.0820312 0.972656 -0.101562 0.984375 -0.125 C 1.003906 -0.15625 1.015625 -0.179688 1.015625 -0.203125 C 1.015625 -0.253906 1.003906 -0.289062 0.984375 -0.3125 C 0.972656 -0.332031 0.945312 -0.34375 0.90625 -0.34375 L 0.65625 -0.34375 C 0.613281 -0.34375 0.582031 -0.332031 0.5625 -0.3125 C 0.550781 -0.289062 0.546875 -0.253906 0.546875 -0.203125 C 0.546875 -0.179688 0.550781 -0.15625 0.5625 -0.125 C 0.570312 -0.125 0.578125 -0.117188 0.578125 -0.109375 C 0.585938 -0.0976562 0.59375 -0.0820312 0.59375 -0.0625 C 0.59375 -0.0390625 0.582031 -0.0195312 0.5625 0 C 0.550781 0.0078125 0.539062 0.015625 0.53125 0.015625 C 0.507812 0.015625 0.476562 0.0078125 0.4375 0 C 0.394531 0 0.351562 0 0.3125 0 C 0.238281 0 0.171875 0.00390625 0.109375 0.015625 L 0.0625 0.015625 C 0.0390625 0.015625 0.0195312 0.0078125 0 0 C -0.0078125 -0.0195312 -0.015625 -0.0390625 -0.015625 -0.0625 C -0.015625 -0.0703125 -0.0078125 -0.0820312 0 -0.09375 C 0 -0.113281 0.0078125 -0.132812 0.03125 -0.15625 C 0.0390625 -0.164062 0.046875 -0.179688 0.046875 -0.203125 C 0.0546875 -0.234375 0.0703125 -0.289062 0.09375 -0.375 C 0.101562 -0.488281 0.132812 -0.660156 0.1875 -0.890625 C 0.25 -1.117188 0.320312 -1.320312 0.40625 -1.5 Z M 0.71875 -1.15625 C 0.664062 -1 0.640625 -0.882812 0.640625 -0.8125 C 0.640625 -0.789062 0.644531 -0.773438 0.65625 -0.765625 C 0.664062 -0.765625 0.6875 -0.765625 0.71875 -0.765625 L 0.859375 -0.765625 C 0.910156 -0.765625 0.9375 -0.78125 0.9375 -0.8125 C 0.9375 -0.851562 0.925781 -0.910156 0.90625 -0.984375 C 0.882812 -1.054688 0.875 -1.097656 0.875 -1.109375 C 0.832031 -1.210938 0.800781 -1.265625 0.78125 -1.265625 C 0.769531 -1.265625 0.757812 -1.253906 0.75 -1.234375 C 0.75 -1.222656 0.738281 -1.195312 0.71875 -1.15625 Z M 0.71875 -1.15625 "/></g></g></g><g fill="#ffffff" fill-opacity="1"><g transform="translate(34.156678, 28.131647)"><g><path d="M 0.0625 -0.71875 C 0.0703125 -0.71875 0.0820312 -0.71875 0.09375 -0.71875 C 0.144531 -0.71875 0.203125 -0.71875 0.265625 -0.71875 C 0.296875 -0.71875 0.34375 -0.71875 0.40625 -0.71875 L 0.453125 -0.71875 C 0.460938 -0.71875 0.46875 -0.71875 0.46875 -0.71875 C 0.476562 -0.71875 0.484375 -0.710938 0.484375 -0.703125 C 0.492188 -0.691406 0.5 -0.675781 0.5 -0.65625 C 0.5 -0.625 0.5 -0.597656 0.5 -0.578125 C 0.507812 -0.566406 0.515625 -0.554688 0.515625 -0.546875 C 0.515625 -0.523438 0.515625 -0.515625 0.515625 -0.515625 C 0.515625 -0.503906 0.507812 -0.492188 0.5 -0.484375 C 0.5 -0.484375 0.492188 -0.484375 0.484375 -0.484375 C 0.472656 -0.484375 0.460938 -0.484375 0.453125 -0.484375 C 0.441406 -0.492188 0.429688 -0.5 0.421875 -0.5 C 0.421875 -0.507812 0.414062 -0.515625 0.40625 -0.515625 C 0.394531 -0.515625 0.382812 -0.507812 0.375 -0.5 C 0.375 -0.5 0.375 -0.492188 0.375 -0.484375 L 0.375 -0.09375 C 0.375 -0.0820312 0.375 -0.0703125 0.375 -0.0625 C 0.382812 -0.0625 0.390625 -0.0625 0.390625 -0.0625 C 0.398438 -0.0507812 0.40625 -0.0390625 0.40625 -0.03125 C 0.40625 -0.0195312 0.398438 -0.0078125 0.390625 0 C 0.390625 0 0.382812 0 0.375 0 C 0.363281 0 0.347656 0 0.328125 0 C 0.316406 0 0.289062 0 0.25 0 C 0.226562 0 0.191406 0 0.140625 0 C 0.128906 0 0.117188 0 0.109375 0 C 0.109375 -0.0078125 0.109375 -0.0195312 0.109375 -0.03125 C 0.109375 -0.0390625 0.113281 -0.046875 0.125 -0.046875 C 0.125 -0.0546875 0.125 -0.0625 0.125 -0.0625 C 0.132812 -0.0703125 0.140625 -0.0820312 0.140625 -0.09375 L 0.140625 -0.484375 C 0.140625 -0.492188 0.132812 -0.5 0.125 -0.5 C 0.125 -0.507812 0.113281 -0.515625 0.09375 -0.515625 C 0.0820312 -0.515625 0.078125 -0.507812 0.078125 -0.5 C 0.078125 -0.5 0.0703125 -0.5 0.0625 -0.5 C 0.0625 -0.5 0.0546875 -0.492188 0.046875 -0.484375 C 0.046875 -0.484375 0.0390625 -0.484375 0.03125 -0.484375 C 0.0195312 -0.484375 0.0078125 -0.484375 0 -0.484375 C 0 -0.492188 0 -0.503906 0 -0.515625 C 0 -0.515625 0 -0.523438 0 -0.546875 C 0.0078125 -0.578125 0.015625 -0.617188 0.015625 -0.671875 C 0.015625 -0.691406 0.015625 -0.703125 0.015625 -0.703125 C 0.0234375 -0.710938 0.0390625 -0.71875 0.0625 -0.71875 Z M 0.0625 -0.71875 "/></g></g></g><g fill="#ffffff" fill-opacity="1"><g transform="translate(35.395154, 28.131647)"><g><path d="M 0.328125 -0.71875 C 0.390625 -0.71875 0.441406 -0.703125 0.484375 -0.671875 C 0.535156 -0.640625 0.570312 -0.59375 0.59375 -0.53125 C 0.625 -0.476562 0.640625 -0.421875 0.640625 -0.359375 C 0.640625 -0.285156 0.625 -0.21875 0.59375 -0.15625 C 0.570312 -0.101562 0.539062 -0.0625 0.5 -0.03125 C 0.457031 0 0.398438 0.015625 0.328125 0.015625 C 0.265625 0.015625 0.207031 0 0.15625 -0.03125 C 0.101562 -0.0625 0.0664062 -0.101562 0.046875 -0.15625 C 0.0234375 -0.207031 0.015625 -0.273438 0.015625 -0.359375 C 0.015625 -0.429688 0.0234375 -0.492188 0.046875 -0.546875 C 0.078125 -0.609375 0.113281 -0.648438 0.15625 -0.671875 C 0.207031 -0.703125 0.265625 -0.71875 0.328125 -0.71875 Z M 0.265625 -0.359375 C 0.265625 -0.296875 0.265625 -0.25 0.265625 -0.21875 C 0.273438 -0.195312 0.296875 -0.1875 0.328125 -0.1875 C 0.359375 -0.1875 0.378906 -0.195312 0.390625 -0.21875 C 0.398438 -0.25 0.40625 -0.296875 0.40625 -0.359375 C 0.40625 -0.421875 0.398438 -0.460938 0.390625 -0.484375 C 0.378906 -0.515625 0.359375 -0.53125 0.328125 -0.53125 C 0.296875 -0.53125 0.273438 -0.515625 0.265625 -0.484375 C 0.265625 -0.453125 0.265625 -0.410156 0.265625 -0.359375 Z M 0.265625 -0.359375 "/></g></g></g><g fill="#ffffff" fill-opacity="1"><g transform="translate(36.785726, 28.131647)"><g><path d="M 0.0625 -0.71875 C 0.0703125 -0.71875 0.0820312 -0.71875 0.09375 -0.71875 C 0.113281 -0.71875 0.140625 -0.71875 0.171875 -0.71875 C 0.191406 -0.71875 0.207031 -0.71875 0.21875 -0.71875 C 0.226562 -0.71875 0.25 -0.71875 0.28125 -0.71875 C 0.3125 -0.71875 0.335938 -0.71875 0.359375 -0.71875 C 0.441406 -0.71875 0.503906 -0.695312 0.546875 -0.65625 C 0.585938 -0.625 0.609375 -0.578125 0.609375 -0.515625 C 0.609375 -0.472656 0.597656 -0.441406 0.578125 -0.421875 C 0.566406 -0.398438 0.554688 -0.382812 0.546875 -0.375 C 0.535156 -0.375 0.53125 -0.375 0.53125 -0.375 C 0.53125 -0.363281 0.535156 -0.359375 0.546875 -0.359375 C 0.597656 -0.328125 0.625 -0.273438 0.625 -0.203125 C 0.625 -0.0546875 0.53125 0.015625 0.34375 0.015625 C 0.320312 0.015625 0.285156 0.0078125 0.234375 0 C 0.210938 0 0.1875 0 0.15625 0 C 0.144531 0 0.132812 0 0.125 0 C 0.113281 0 0.101562 0 0.09375 0 C 0.0820312 0 0.0703125 0 0.0625 0 C 0.0507812 0 0.0390625 0 0.03125 0 C 0.03125 -0.0078125 0.03125 -0.0195312 0.03125 -0.03125 C 0.03125 -0.0390625 0.03125 -0.0507812 0.03125 -0.0625 C 0.0390625 -0.0625 0.046875 -0.0625 0.046875 -0.0625 C 0.046875 -0.0703125 0.046875 -0.0820312 0.046875 -0.09375 L 0.046875 -0.609375 C 0.046875 -0.617188 0.046875 -0.625 0.046875 -0.625 C 0.046875 -0.632812 0.046875 -0.644531 0.046875 -0.65625 C 0.0351562 -0.664062 0.03125 -0.671875 0.03125 -0.671875 C 0.03125 -0.671875 0.03125 -0.675781 0.03125 -0.6875 C 0.03125 -0.695312 0.03125 -0.703125 0.03125 -0.703125 C 0.0390625 -0.710938 0.0507812 -0.71875 0.0625 -0.71875 Z M 0.265625 -0.53125 L 0.265625 -0.453125 C 0.265625 -0.429688 0.265625 -0.421875 0.265625 -0.421875 C 0.273438 -0.421875 0.296875 -0.421875 0.328125 -0.421875 C 0.347656 -0.421875 0.363281 -0.425781 0.375 -0.4375 C 0.394531 -0.445312 0.40625 -0.460938 0.40625 -0.484375 C 0.40625 -0.535156 0.375 -0.5625 0.3125 -0.5625 C 0.289062 -0.5625 0.273438 -0.554688 0.265625 -0.546875 C 0.265625 -0.546875 0.265625 -0.539062 0.265625 -0.53125 Z M 0.265625 -0.265625 L 0.265625 -0.1875 C 0.265625 -0.175781 0.265625 -0.171875 0.265625 -0.171875 C 0.273438 -0.171875 0.28125 -0.164062 0.28125 -0.15625 C 0.289062 -0.15625 0.304688 -0.15625 0.328125 -0.15625 C 0.359375 -0.15625 0.378906 -0.160156 0.390625 -0.171875 C 0.398438 -0.191406 0.40625 -0.210938 0.40625 -0.234375 C 0.40625 -0.242188 0.394531 -0.253906 0.375 -0.265625 C 0.363281 -0.285156 0.34375 -0.296875 0.3125 -0.296875 C 0.289062 -0.296875 0.273438 -0.289062 0.265625 -0.28125 C 0.265625 -0.28125 0.265625 -0.273438 0.265625 -0.265625 Z M 0.265625 -0.265625 "/></g></g></g><g fill="#ffffff" fill-opacity="1"><g transform="translate(38.159904, 28.131647)"><g><path d="M 0.328125 -0.71875 C 0.390625 -0.71875 0.441406 -0.703125 0.484375 -0.671875 C 0.535156 -0.640625 0.570312 -0.59375 0.59375 -0.53125 C 0.625 -0.476562 0.640625 -0.421875 0.640625 -0.359375 C 0.640625 -0.285156 0.625 -0.21875 0.59375 -0.15625 C 0.570312 -0.101562 0.539062 -0.0625 0.5 -0.03125 C 0.457031 0 0.398438 0.015625 0.328125 0.015625 C 0.265625 0.015625 0.207031 0 0.15625 -0.03125 C 0.101562 -0.0625 0.0664062 -0.101562 0.046875 -0.15625 C 0.0234375 -0.207031 0.015625 -0.273438 0.015625 -0.359375 C 0.015625 -0.429688 0.0234375 -0.492188 0.046875 -0.546875 C 0.078125 -0.609375 0.113281 -0.648438 0.15625 -0.671875 C 0.207031 -0.703125 0.265625 -0.71875 0.328125 -0.71875 Z M 0.265625 -0.359375 C 0.265625 -0.296875 0.265625 -0.25 0.265625 -0.21875 C 0.273438 -0.195312 0.296875 -0.1875 0.328125 -0.1875 C 0.359375 -0.1875 0.378906 -0.195312 0.390625 -0.21875 C 0.398438 -0.25 0.40625 -0.296875 0.40625 -0.359375 C 0.40625 -0.421875 0.398438 -0.460938 0.390625 -0.484375 C 0.378906 -0.515625 0.359375 -0.53125 0.328125 -0.53125 C 0.296875 -0.53125 0.273438 -0.515625 0.265625 -0.484375 C 0.265625 -0.453125 0.265625 -0.410156 0.265625 -0.359375 Z M 0.265625 -0.359375 "/></g></g></g><g fill="#ffffff" fill-opacity="1"><g transform="translate(39.550475, 28.131647)"><g><path d="M 0.0625 -0.71875 C 0.0703125 -0.71875 0.0859375 -0.71875 0.109375 -0.71875 C 0.128906 -0.71875 0.148438 -0.71875 0.171875 -0.71875 C 0.191406 -0.71875 0.210938 -0.71875 0.234375 -0.71875 C 0.253906 -0.71875 0.269531 -0.71875 0.28125 -0.71875 C 0.289062 -0.71875 0.296875 -0.710938 0.296875 -0.703125 C 0.304688 -0.703125 0.3125 -0.695312 0.3125 -0.6875 C 0.3125 -0.675781 0.304688 -0.664062 0.296875 -0.65625 C 0.296875 -0.65625 0.289062 -0.648438 0.28125 -0.640625 C 0.28125 -0.628906 0.28125 -0.613281 0.28125 -0.59375 L 0.28125 -0.234375 C 0.28125 -0.210938 0.28125 -0.195312 0.28125 -0.1875 C 0.289062 -0.1875 0.304688 -0.1875 0.328125 -0.1875 C 0.347656 -0.1875 0.363281 -0.1875 0.375 -0.1875 C 0.382812 -0.195312 0.390625 -0.207031 0.390625 -0.21875 C 0.398438 -0.21875 0.40625 -0.21875 0.40625 -0.21875 C 0.40625 -0.21875 0.410156 -0.21875 0.421875 -0.21875 C 0.429688 -0.21875 0.4375 -0.210938 0.4375 -0.203125 C 0.445312 -0.203125 0.453125 -0.195312 0.453125 -0.1875 C 0.453125 -0.1875 0.453125 -0.179688 0.453125 -0.171875 C 0.453125 -0.160156 0.453125 -0.15625 0.453125 -0.15625 C 0.429688 -0.113281 0.421875 -0.078125 0.421875 -0.046875 C 0.421875 -0.0234375 0.414062 -0.0078125 0.40625 0 C 0.394531 0 0.375 0 0.34375 0 C 0.320312 0 0.28125 0 0.21875 0 C 0.175781 0 0.125 0 0.0625 0 C 0.0507812 0 0.0390625 0 0.03125 0 C 0.03125 -0.0078125 0.03125 -0.0195312 0.03125 -0.03125 C 0.03125 -0.0390625 0.03125 -0.0507812 0.03125 -0.0625 C 0.0390625 -0.0625 0.046875 -0.0625 0.046875 -0.0625 C 0.046875 -0.0703125 0.046875 -0.0820312 0.046875 -0.09375 L 0.046875 -0.609375 C 0.046875 -0.617188 0.046875 -0.625 0.046875 -0.625 C 0.046875 -0.632812 0.046875 -0.644531 0.046875 -0.65625 C 0.0351562 -0.664062 0.03125 -0.671875 0.03125 -0.671875 C 0.03125 -0.671875 0.03125 -0.675781 0.03125 -0.6875 C 0.03125 -0.695312 0.03125 -0.703125 0.03125 -0.703125 C 0.0390625 -0.710938 0.0507812 -0.71875 0.0625 -0.71875 Z M 0.0625 -0.71875 "/></g></g></g><g fill="#ffffff" fill-opacity="1"><g transform="translate(40.735218, 28.131647)"><g><path d="M 0.328125 -0.71875 C 0.390625 -0.71875 0.441406 -0.703125 0.484375 -0.671875 C 0.535156 -0.640625 0.570312 -0.59375 0.59375 -0.53125 C 0.625 -0.476562 0.640625 -0.421875 0.640625 -0.359375 C 0.640625 -0.285156 0.625 -0.21875 0.59375 -0.15625 C 0.570312 -0.101562 0.539062 -0.0625 0.5 -0.03125 C 0.457031 0 0.398438 0.015625 0.328125 0.015625 C 0.265625 0.015625 0.207031 0 0.15625 -0.03125 C 0.101562 -0.0625 0.0664062 -0.101562 0.046875 -0.15625 C 0.0234375 -0.207031 0.015625 -0.273438 0.015625 -0.359375 C 0.015625 -0.429688 0.0234375 -0.492188 0.046875 -0.546875 C 0.078125 -0.609375 0.113281 -0.648438 0.15625 -0.671875 C 0.207031 -0.703125 0.265625 -0.71875 0.328125 -0.71875 Z M 0.265625 -0.359375 C 0.265625 -0.296875 0.265625 -0.25 0.265625 -0.21875 C 0.273438 -0.195312 0.296875 -0.1875 0.328125 -0.1875 C 0.359375 -0.1875 0.378906 -0.195312 0.390625 -0.21875 C 0.398438 -0.25 0.40625 -0.296875 0.40625 -0.359375 C 0.40625 -0.421875 0.398438 -0.460938 0.390625 -0.484375 C 0.378906 -0.515625 0.359375 -0.53125 0.328125 -0.53125 C 0.296875 -0.53125 0.273438 -0.515625 0.265625 -0.484375 C 0.265625 -0.453125 0.265625 -0.410156 0.265625 -0.359375 Z M 0.265625 -0.359375 "/></g></g></g><g fill="#ffffff" fill-opacity="1"><g transform="translate(42.12579, 28.131647)"><g><path d="M 0.03125 -0.71875 C 0.0820312 -0.71875 0.125 -0.71875 0.15625 -0.71875 C 0.175781 -0.71875 0.207031 -0.71875 0.25 -0.71875 C 0.257812 -0.71875 0.265625 -0.710938 0.265625 -0.703125 C 0.273438 -0.703125 0.28125 -0.695312 0.28125 -0.6875 C 0.28125 -0.675781 0.28125 -0.664062 0.28125 -0.65625 C 0.269531 -0.65625 0.265625 -0.648438 0.265625 -0.640625 C 0.265625 -0.628906 0.265625 -0.625 0.265625 -0.625 C 0.265625 -0.601562 0.265625 -0.570312 0.265625 -0.53125 C 0.273438 -0.488281 0.285156 -0.445312 0.296875 -0.40625 C 0.304688 -0.375 0.3125 -0.347656 0.3125 -0.328125 C 0.3125 -0.316406 0.3125 -0.304688 0.3125 -0.296875 C 0.320312 -0.296875 0.328125 -0.296875 0.328125 -0.296875 C 0.335938 -0.296875 0.347656 -0.316406 0.359375 -0.359375 C 0.367188 -0.410156 0.375 -0.460938 0.375 -0.515625 C 0.382812 -0.578125 0.390625 -0.613281 0.390625 -0.625 C 0.390625 -0.632812 0.390625 -0.640625 0.390625 -0.640625 C 0.390625 -0.648438 0.390625 -0.65625 0.390625 -0.65625 C 0.378906 -0.664062 0.375 -0.675781 0.375 -0.6875 C 0.375 -0.695312 0.375 -0.703125 0.375 -0.703125 C 0.382812 -0.710938 0.394531 -0.71875 0.40625 -0.71875 C 0.445312 -0.71875 0.484375 -0.71875 0.515625 -0.71875 C 0.523438 -0.71875 0.535156 -0.71875 0.546875 -0.71875 C 0.566406 -0.71875 0.582031 -0.71875 0.59375 -0.71875 C 0.601562 -0.71875 0.609375 -0.710938 0.609375 -0.703125 C 0.617188 -0.703125 0.625 -0.695312 0.625 -0.6875 C 0.625 -0.6875 0.617188 -0.679688 0.609375 -0.671875 C 0.609375 -0.671875 0.609375 -0.664062 0.609375 -0.65625 C 0.609375 -0.65625 0.601562 -0.648438 0.59375 -0.640625 C 0.59375 -0.640625 0.585938 -0.628906 0.578125 -0.609375 C 0.578125 -0.585938 0.578125 -0.5625 0.578125 -0.53125 C 0.566406 -0.476562 0.550781 -0.410156 0.53125 -0.328125 C 0.519531 -0.253906 0.503906 -0.1875 0.484375 -0.125 C 0.472656 -0.09375 0.460938 -0.0664062 0.453125 -0.046875 C 0.441406 -0.0234375 0.429688 -0.0078125 0.421875 0 C 0.410156 0 0.40625 0 0.40625 0 C 0.363281 0 0.332031 0 0.3125 0 C 0.289062 0 0.269531 0 0.25 0 C 0.238281 0 0.226562 0 0.21875 0 C 0.195312 0 0.175781 -0.0078125 0.15625 -0.03125 C 0.144531 -0.0625 0.128906 -0.109375 0.109375 -0.171875 C 0.0859375 -0.242188 0.0664062 -0.320312 0.046875 -0.40625 C 0.0351562 -0.488281 0.03125 -0.546875 0.03125 -0.578125 C 0.0195312 -0.609375 0.0078125 -0.632812 0 -0.65625 C 0 -0.664062 0 -0.671875 0 -0.671875 C -0.0078125 -0.679688 -0.015625 -0.6875 -0.015625 -0.6875 C -0.015625 -0.695312 -0.0078125 -0.703125 0 -0.703125 C 0.0078125 -0.710938 0.0195312 -0.71875 0.03125 -0.71875 Z M 0.03125 -0.71875 "/></g></g></g><g fill="#ffffff" fill-opacity="1"><g transform="translate(43.470824, 28.131647)"><g><path d="M 0.28125 -0.71875 C 0.3125 -0.71875 0.351562 -0.71875 0.40625 -0.71875 C 0.40625 -0.71875 0.410156 -0.71875 0.421875 -0.71875 C 0.429688 -0.71875 0.441406 -0.71875 0.453125 -0.71875 C 0.460938 -0.71875 0.472656 -0.710938 0.484375 -0.703125 C 0.492188 -0.703125 0.5 -0.695312 0.5 -0.6875 L 0.5 -0.625 C 0.5 -0.613281 0.5 -0.597656 0.5 -0.578125 C 0.507812 -0.566406 0.515625 -0.554688 0.515625 -0.546875 C 0.515625 -0.535156 0.515625 -0.53125 0.515625 -0.53125 C 0.515625 -0.519531 0.507812 -0.507812 0.5 -0.5 C 0.5 -0.5 0.492188 -0.5 0.484375 -0.5 C 0.472656 -0.5 0.457031 -0.503906 0.4375 -0.515625 C 0.414062 -0.523438 0.394531 -0.53125 0.375 -0.53125 C 0.363281 -0.539062 0.347656 -0.546875 0.328125 -0.546875 C 0.316406 -0.546875 0.300781 -0.539062 0.28125 -0.53125 C 0.269531 -0.53125 0.265625 -0.519531 0.265625 -0.5 C 0.265625 -0.488281 0.269531 -0.476562 0.28125 -0.46875 C 0.300781 -0.457031 0.320312 -0.445312 0.34375 -0.4375 C 0.382812 -0.425781 0.421875 -0.410156 0.453125 -0.390625 C 0.484375 -0.378906 0.503906 -0.359375 0.515625 -0.328125 C 0.535156 -0.296875 0.546875 -0.257812 0.546875 -0.21875 C 0.546875 -0.164062 0.53125 -0.117188 0.5 -0.078125 C 0.476562 -0.046875 0.445312 -0.0195312 0.40625 0 C 0.375 0.0078125 0.332031 0.015625 0.28125 0.015625 C 0.238281 0.015625 0.1875 0.0078125 0.125 0 C 0.113281 -0.0078125 0.109375 -0.015625 0.109375 -0.015625 C 0.0976562 -0.015625 0.0859375 -0.0078125 0.078125 0 C 0.0546875 0 0.0390625 -0.00390625 0.03125 -0.015625 C 0.03125 -0.0234375 0.03125 -0.0351562 0.03125 -0.046875 C 0.03125 -0.0664062 0.03125 -0.0859375 0.03125 -0.109375 C 0.03125 -0.128906 0.0234375 -0.148438 0.015625 -0.171875 C 0.015625 -0.179688 0.015625 -0.191406 0.015625 -0.203125 C 0.015625 -0.210938 0.015625 -0.21875 0.015625 -0.21875 C 0.0234375 -0.226562 0.0351562 -0.234375 0.046875 -0.234375 C 0.046875 -0.234375 0.0507812 -0.234375 0.0625 -0.234375 C 0.0703125 -0.234375 0.078125 -0.226562 0.078125 -0.21875 C 0.078125 -0.21875 0.0859375 -0.210938 0.109375 -0.203125 C 0.128906 -0.191406 0.148438 -0.179688 0.171875 -0.171875 C 0.191406 -0.171875 0.210938 -0.171875 0.234375 -0.171875 C 0.234375 -0.171875 0.238281 -0.171875 0.25 -0.171875 C 0.257812 -0.179688 0.265625 -0.195312 0.265625 -0.21875 C 0.265625 -0.226562 0.257812 -0.234375 0.25 -0.234375 C 0.238281 -0.242188 0.222656 -0.253906 0.203125 -0.265625 C 0.128906 -0.285156 0.078125 -0.3125 0.046875 -0.34375 C 0.0234375 -0.382812 0.015625 -0.429688 0.015625 -0.484375 C 0.015625 -0.535156 0.0234375 -0.578125 0.046875 -0.609375 C 0.0664062 -0.648438 0.0976562 -0.675781 0.140625 -0.6875 C 0.179688 -0.707031 0.226562 -0.71875 0.28125 -0.71875 Z M 0.28125 -0.71875 "/></g></g></g><g fill="#ffffff" fill-opacity="1"><g transform="translate(44.751195, 28.131647)"><g><path d="M 0.0625 -0.71875 C 0.0703125 -0.71875 0.0859375 -0.71875 0.109375 -0.71875 C 0.128906 -0.71875 0.144531 -0.71875 0.15625 -0.71875 C 0.175781 -0.71875 0.210938 -0.71875 0.265625 -0.71875 C 0.273438 -0.71875 0.28125 -0.710938 0.28125 -0.703125 C 0.289062 -0.703125 0.296875 -0.695312 0.296875 -0.6875 C 0.296875 -0.675781 0.289062 -0.671875 0.28125 -0.671875 C 0.28125 -0.671875 0.28125 -0.664062 0.28125 -0.65625 C 0.28125 -0.644531 0.273438 -0.632812 0.265625 -0.625 C 0.265625 -0.625 0.265625 -0.617188 0.265625 -0.609375 L 0.265625 -0.484375 C 0.265625 -0.472656 0.265625 -0.460938 0.265625 -0.453125 C 0.273438 -0.453125 0.28125 -0.453125 0.28125 -0.453125 C 0.300781 -0.453125 0.316406 -0.460938 0.328125 -0.484375 C 0.347656 -0.515625 0.363281 -0.539062 0.375 -0.5625 C 0.394531 -0.59375 0.40625 -0.617188 0.40625 -0.640625 C 0.40625 -0.648438 0.398438 -0.65625 0.390625 -0.65625 C 0.390625 -0.664062 0.390625 -0.671875 0.390625 -0.671875 C 0.390625 -0.679688 0.390625 -0.6875 0.390625 -0.6875 C 0.390625 -0.695312 0.390625 -0.703125 0.390625 -0.703125 C 0.398438 -0.710938 0.40625 -0.71875 0.40625 -0.71875 C 0.414062 -0.71875 0.429688 -0.71875 0.453125 -0.71875 C 0.484375 -0.71875 0.515625 -0.71875 0.546875 -0.71875 C 0.554688 -0.71875 0.566406 -0.71875 0.578125 -0.71875 C 0.585938 -0.71875 0.59375 -0.71875 0.59375 -0.71875 C 0.601562 -0.71875 0.613281 -0.71875 0.625 -0.71875 C 0.632812 -0.71875 0.640625 -0.710938 0.640625 -0.703125 C 0.648438 -0.703125 0.65625 -0.695312 0.65625 -0.6875 C 0.65625 -0.675781 0.65625 -0.671875 0.65625 -0.671875 C 0.65625 -0.671875 0.65625 -0.664062 0.65625 -0.65625 C 0.644531 -0.65625 0.640625 -0.648438 0.640625 -0.640625 C 0.640625 -0.628906 0.632812 -0.613281 0.625 -0.59375 C 0.613281 -0.5625 0.597656 -0.523438 0.578125 -0.484375 C 0.566406 -0.453125 0.554688 -0.425781 0.546875 -0.40625 C 0.535156 -0.40625 0.523438 -0.398438 0.515625 -0.390625 C 0.515625 -0.378906 0.515625 -0.375 0.515625 -0.375 C 0.515625 -0.375 0.515625 -0.367188 0.515625 -0.359375 C 0.523438 -0.347656 0.535156 -0.335938 0.546875 -0.328125 C 0.554688 -0.304688 0.566406 -0.28125 0.578125 -0.25 C 0.597656 -0.21875 0.613281 -0.1875 0.625 -0.15625 C 0.632812 -0.125 0.640625 -0.101562 0.640625 -0.09375 C 0.640625 -0.0820312 0.640625 -0.078125 0.640625 -0.078125 C 0.648438 -0.078125 0.660156 -0.0703125 0.671875 -0.0625 C 0.671875 -0.0507812 0.671875 -0.0390625 0.671875 -0.03125 C 0.679688 -0.03125 0.6875 -0.03125 0.6875 -0.03125 C 0.6875 -0.0195312 0.679688 -0.0078125 0.671875 0 C 0.671875 0 0.664062 0 0.65625 0 C 0.59375 0 0.554688 0 0.546875 0 C 0.515625 0 0.472656 0 0.421875 0 C 0.410156 0 0.398438 0 0.390625 0 C 0.390625 -0.0078125 0.390625 -0.0195312 0.390625 -0.03125 C 0.390625 -0.03125 0.394531 -0.0351562 0.40625 -0.046875 C 0.40625 -0.0546875 0.40625 -0.0664062 0.40625 -0.078125 C 0.40625 -0.0859375 0.394531 -0.109375 0.375 -0.140625 C 0.363281 -0.179688 0.347656 -0.210938 0.328125 -0.234375 C 0.316406 -0.253906 0.300781 -0.265625 0.28125 -0.265625 C 0.28125 -0.265625 0.273438 -0.257812 0.265625 -0.25 C 0.265625 -0.25 0.265625 -0.242188 0.265625 -0.234375 L 0.265625 -0.09375 C 0.265625 -0.0820312 0.265625 -0.0703125 0.265625 -0.0625 C 0.273438 -0.0625 0.28125 -0.0625 0.28125 -0.0625 C 0.28125 -0.0625 0.28125 -0.0546875 0.28125 -0.046875 C 0.289062 -0.046875 0.296875 -0.0390625 0.296875 -0.03125 C 0.296875 -0.0195312 0.289062 -0.0078125 0.28125 0 C 0.28125 0 0.273438 0 0.265625 0 C 0.210938 0 0.175781 0 0.15625 0 C 0.132812 0 0.101562 0 0.0625 0 C 0.0507812 0 0.0390625 0 0.03125 0 C 0.03125 -0.0078125 0.03125 -0.0195312 0.03125 -0.03125 C 0.03125 -0.0390625 0.03125 -0.0507812 0.03125 -0.0625 C 0.0390625 -0.0625 0.046875 -0.0625 0.046875 -0.0625 C 0.046875 -0.0703125 0.046875 -0.0820312 0.046875 -0.09375 L 0.046875 -0.609375 C 0.046875 -0.617188 0.046875 -0.625 0.046875 -0.625 C 0.046875 -0.632812 0.0390625 -0.644531 0.03125 -0.65625 C 0.03125 -0.664062 0.03125 -0.675781 0.03125 -0.6875 C 0.03125 -0.695312 0.03125 -0.703125 0.03125 -0.703125 C 0.0390625 -0.710938 0.0507812 -0.71875 0.0625 -0.71875 Z M 0.0625 -0.71875 "/></g></g></g><g fill="#ffffff" fill-opacity="1"><g transform="translate(46.157249, 28.131647)"><g><path d="M 0.171875 -0.609375 C 0.179688 -0.648438 0.191406 -0.675781 0.203125 -0.6875 C 0.210938 -0.707031 0.222656 -0.71875 0.234375 -0.71875 C 0.234375 -0.71875 0.242188 -0.71875 0.265625 -0.71875 C 0.296875 -0.71875 0.328125 -0.71875 0.359375 -0.71875 C 0.378906 -0.71875 0.414062 -0.71875 0.46875 -0.71875 C 0.476562 -0.71875 0.488281 -0.707031 0.5 -0.6875 C 0.507812 -0.675781 0.519531 -0.65625 0.53125 -0.625 C 0.550781 -0.539062 0.570312 -0.453125 0.59375 -0.359375 C 0.625 -0.273438 0.644531 -0.191406 0.65625 -0.109375 C 0.664062 -0.0859375 0.671875 -0.078125 0.671875 -0.078125 C 0.671875 -0.078125 0.675781 -0.0703125 0.6875 -0.0625 C 0.6875 -0.0507812 0.6875 -0.0390625 0.6875 -0.03125 C 0.695312 -0.03125 0.703125 -0.03125 0.703125 -0.03125 C 0.703125 -0.0195312 0.695312 -0.0078125 0.6875 0 C 0.6875 0 0.679688 0 0.671875 0 C 0.660156 0 0.640625 0 0.609375 0 C 0.585938 0 0.566406 0 0.546875 0 C 0.515625 0 0.488281 0 0.46875 0 C 0.445312 0 0.429688 0 0.421875 0 C 0.410156 0 0.40625 0 0.40625 0 C 0.40625 -0.0078125 0.40625 -0.0195312 0.40625 -0.03125 C 0.40625 -0.0390625 0.40625 -0.0507812 0.40625 -0.0625 C 0.40625 -0.0703125 0.40625 -0.078125 0.40625 -0.078125 C 0.40625 -0.0976562 0.40625 -0.113281 0.40625 -0.125 C 0.40625 -0.132812 0.394531 -0.140625 0.375 -0.140625 L 0.265625 -0.140625 C 0.242188 -0.140625 0.234375 -0.132812 0.234375 -0.125 C 0.234375 -0.113281 0.234375 -0.0976562 0.234375 -0.078125 C 0.234375 -0.078125 0.234375 -0.0703125 0.234375 -0.0625 C 0.234375 -0.0625 0.234375 -0.0546875 0.234375 -0.046875 C 0.234375 -0.046875 0.234375 -0.0390625 0.234375 -0.03125 C 0.234375 -0.0195312 0.234375 -0.0078125 0.234375 0 C 0.234375 0 0.226562 0 0.21875 0 C 0.207031 0 0.191406 0 0.171875 0 C 0.160156 0 0.144531 0 0.125 0 C 0.09375 0 0.0664062 0 0.046875 0 L 0.03125 0 C 0.0195312 0 0.0078125 0 0 0 C -0.0078125 -0.0078125 -0.015625 -0.0195312 -0.015625 -0.03125 C -0.015625 -0.03125 -0.0078125 -0.03125 0 -0.03125 C 0 -0.0390625 0.00390625 -0.0507812 0.015625 -0.0625 C 0.015625 -0.0703125 0.015625 -0.078125 0.015625 -0.078125 C 0.0234375 -0.0859375 0.03125 -0.113281 0.03125 -0.15625 C 0.0390625 -0.207031 0.0546875 -0.28125 0.078125 -0.375 C 0.0976562 -0.46875 0.128906 -0.546875 0.171875 -0.609375 Z M 0.296875 -0.46875 C 0.265625 -0.40625 0.25 -0.363281 0.25 -0.34375 C 0.25 -0.332031 0.25 -0.320312 0.25 -0.3125 C 0.257812 -0.3125 0.273438 -0.3125 0.296875 -0.3125 L 0.359375 -0.3125 C 0.378906 -0.3125 0.390625 -0.320312 0.390625 -0.34375 C 0.390625 -0.351562 0.382812 -0.367188 0.375 -0.390625 C 0.363281 -0.421875 0.359375 -0.441406 0.359375 -0.453125 C 0.347656 -0.492188 0.335938 -0.515625 0.328125 -0.515625 C 0.316406 -0.515625 0.304688 -0.507812 0.296875 -0.5 C 0.296875 -0.5 0.296875 -0.488281 0.296875 -0.46875 Z M 0.296875 -0.46875 "/></g></g></g><g clip-path="url(#2ba97c5394)"><path fill="#ffffff" d="M 39.554688 16.804688 L 41.824219 16.804688 C 42.046875 16.804688 42.234375 16.617188 42.234375 16.390625 C 42.234375 16.167969 42.046875 15.980469 41.824219 15.980469 L 37.71875 15.980469 C 37.496094 15.980469 37.308594 15.792969 37.308594 15.566406 C 37.308594 15.34375 37.496094 15.15625 37.71875 15.15625 L 39.117188 15.15625 C 39.339844 15.15625 39.527344 14.96875 39.527344 14.742188 C 39.527344 14.519531 39.339844 14.332031 39.117188 14.332031 L 36.351562 14.332031 C 36.128906 14.332031 35.941406 14.144531 35.941406 13.917969 C 35.941406 13.695312 36.128906 13.507812 36.351562 13.507812 L 38.027344 13.507812 C 38.253906 13.507812 38.441406 13.320312 38.441406 13.09375 C 38.441406 12.871094 38.253906 12.683594 38.027344 12.683594 L 34.882812 12.683594 C 34.65625 12.683594 34.46875 12.496094 34.46875 12.269531 C 34.46875 12.046875 34.65625 11.859375 34.882812 11.859375 L 36.445312 11.859375 C 36.660156 11.839844 36.828125 11.671875 36.828125 11.453125 C 36.828125 11.257812 36.679688 11.089844 36.492188 11.050781 L 35.648438 11.050781 C 35.425781 11.050781 35.238281 10.863281 35.238281 10.640625 C 35.238281 10.414062 35.425781 10.226562 35.648438 10.226562 L 36.886719 10.226562 C 36.921875 10.226562 36.953125 10.226562 36.980469 10.238281 L 37.289062 10.238281 C 37.515625 10.238281 37.699219 10.050781 37.699219 9.824219 C 37.699219 9.601562 37.515625 9.414062 37.289062 9.414062 L 35.816406 9.414062 C 35.800781 9.414062 35.769531 9.421875 35.753906 9.421875 L 33.46875 9.421875 C 33.242188 9.421875 33.054688 9.234375 33.054688 9.011719 C 33.054688 8.785156 33.242188 8.597656 33.46875 8.597656 L 34.945312 8.597656 C 35.171875 8.597656 35.359375 8.410156 35.359375 8.1875 C 35.359375 7.988281 35.210938 7.820312 35.023438 7.78125 L 34.019531 7.78125 C 33.792969 7.78125 33.609375 7.59375 33.609375 7.371094 C 33.609375 7.144531 33.792969 6.957031 34.019531 6.957031 L 37.269531 6.957031 C 37.53125 6.957031 37.765625 7.089844 37.898438 7.316406 L 41.074219 12.652344 C 41.203125 12.878906 41.4375 13.011719 41.699219 13.011719 C 41.964844 13.011719 42.1875 12.886719 42.328125 12.652344 L 45.570312 7.304688 C 45.710938 7.082031 45.933594 6.949219 46.195312 6.949219 L 48.652344 6.949219 C 48.921875 6.949219 49.15625 7.089844 49.289062 7.324219 C 49.417969 7.566406 49.410156 7.839844 49.261719 8.0625 L 43.640625 16.871094 C 43.566406 16.992188 43.527344 17.113281 43.527344 17.261719 L 43.527344 23.015625 C 43.527344 23.417969 43.199219 23.746094 42.796875 23.746094 L 39.5 23.746094 C 39.488281 23.71875 39.488281 23.679688 39.488281 23.640625 C 39.488281 23.425781 39.648438 23.257812 39.855469 23.238281 L 40.222656 23.238281 C 40.445312 23.238281 40.632812 23.050781 40.632812 22.828125 C 40.632812 22.601562 40.445312 22.414062 40.222656 22.414062 L 37.421875 22.414062 C 37.195312 22.414062 37.007812 22.226562 37.007812 22.003906 C 37.007812 21.777344 37.195312 21.589844 37.421875 21.589844 L 39.816406 21.589844 C 40.035156 21.582031 40.222656 21.402344 40.222656 21.179688 C 40.222656 20.953125 40.042969 20.777344 39.816406 20.765625 L 39.753906 20.765625 C 39.527344 20.765625 39.339844 20.578125 39.339844 20.355469 C 39.339844 20.128906 39.527344 19.941406 39.753906 19.941406 L 40.960938 19.941406 C 41.1875 19.941406 41.371094 19.753906 41.371094 19.53125 C 41.371094 19.304688 41.1875 19.117188 40.960938 19.117188 L 39.257812 19.117188 C 39.03125 19.117188 38.84375 18.929688 38.84375 18.707031 C 38.84375 18.480469 39.03125 18.292969 39.257812 18.292969 L 40.351562 18.292969 C 40.578125 18.292969 40.765625 18.105469 40.765625 17.882812 C 40.765625 17.65625 40.578125 17.46875 40.351562 17.46875 L 38.65625 17.46875 C 38.433594 17.46875 38.246094 17.28125 38.246094 17.058594 C 38.246094 16.832031 38.433594 16.644531 38.65625 16.644531 L 39.554688 16.644531 Z M 34.019531 13.542969 L 35.179688 13.542969 C 35.40625 13.542969 35.59375 13.730469 35.59375 13.957031 C 35.59375 14.179688 35.40625 14.367188 35.179688 14.367188 L 34.019531 14.367188 C 33.792969 14.367188 33.609375 14.179688 33.609375 13.957031 C 33.617188 13.722656 33.792969 13.542969 34.019531 13.542969 Z M 31.988281 8.671875 L 32.511719 8.671875 C 32.738281 8.671875 32.921875 8.859375 32.921875 9.085938 C 32.921875 9.308594 32.738281 9.496094 32.511719 9.496094 L 31.988281 9.496094 C 31.761719 9.496094 31.574219 9.308594 31.574219 9.085938 C 31.574219 8.851562 31.761719 8.671875 31.988281 8.671875 Z M 36.734375 16.804688 L 37.261719 16.804688 C 37.484375 16.804688 37.671875 16.992188 37.671875 17.214844 C 37.671875 17.441406 37.484375 17.628906 37.261719 17.628906 L 36.734375 17.628906 C 36.511719 17.628906 36.324219 17.441406 36.324219 17.214844 C 36.332031 16.992188 36.511719 16.804688 36.734375 16.804688 Z M 36.464844 18.433594 L 38.074219 18.433594 C 38.300781 18.433594 38.488281 18.621094 38.488281 18.847656 C 38.488281 19.070312 38.300781 19.257812 38.074219 19.257812 L 36.464844 19.257812 C 36.238281 19.257812 36.050781 19.070312 36.050781 18.847656 C 36.0625 18.621094 36.238281 18.433594 36.464844 18.433594 Z M 35.660156 15.171875 L 36.324219 15.171875 C 36.550781 15.171875 36.734375 15.359375 36.734375 15.585938 C 36.734375 15.8125 36.550781 16 36.324219 16 L 35.660156 16 C 35.433594 16 35.246094 15.8125 35.246094 15.585938 C 35.246094 15.359375 35.433594 15.171875 35.660156 15.171875 Z M 38.058594 20.074219 L 38.582031 20.074219 C 38.804688 20.074219 38.992188 20.261719 38.992188 20.484375 C 38.992188 20.710938 38.804688 20.898438 38.582031 20.898438 L 38.058594 20.898438 C 37.832031 20.898438 37.644531 20.710938 37.644531 20.484375 C 37.644531 20.25 37.832031 20.074219 38.058594 20.074219 Z M 33.128906 16.804688 L 35.320312 16.804688 C 35.546875 16.804688 35.734375 16.992188 35.734375 17.214844 C 35.734375 17.441406 35.546875 17.628906 35.320312 17.628906 L 33.128906 17.628906 C 32.90625 17.628906 32.71875 17.441406 32.71875 17.214844 C 32.726562 16.992188 32.90625 16.804688 33.128906 16.804688 Z M 33.128906 16.804688 " fill-opacity="1" fill-rule="evenodd"/></g></svg>